<?xml version="1.0" encoding="UTF-8"?>
<svg xmlns="http://www.w3.org/2000/svg" xml:space="preserve" width="328px" height="158px" version="1.1" style="shape-rendering:geometricPrecision; text-rendering:geometricPrecision; image-rendering:optimizeQuality; fill-rule:evenodd; clip-rule:evenodd"
viewBox="0 0 57 27"
 xmlns:xlink="http://www.w3.org/1999/xlink">

 <g id="content">
   <path fill="#0175BB"  fill-rule="nonzero" d="M5 24l0 -13 3 0c0,0 1,-1 1,-1 0,0 1,0 1,0 1,0 2,1 3,2 1,1 1,2 1,3 0,2 0,3 -1,4 -1,1 -2,1 -4,1 0,0 0,0 0,0 0,0 -1,0 -1,0l0 4 -3 0zm3 -6c0,0 0,0 1,0 0,0 0,0 0,0 1,0 1,0 2,-1 0,0 0,-1 0,-2 0,0 0,-1 0,-2 -1,0 -1,0 -2,0 0,0 0,0 0,0 -1,0 -1,0 -1,0l0 5zm14 -7l3 0 0 9 -2 0 0 -1c-1,0 -1,1 -2,1 -1,0 -1,0 -2,0 -1,0 -2,0 -2,0 -1,-1 -1,-2 -1,-3l0 -6 3 0 0 5c0,1 0,1 1,1 0,1 0,1 1,1 0,0 1,-1 1,-1 0,0 0,-1 0,-2l0 -4zm9 9l-3 0 0 -9 3 0 0 1c0,0 1,-1 1,-1 1,0 1,-1 2,-1l0 0 0 4 0 0 0 0c-1,0 -2,0 -2,0 -1,0 -1,1 -1,2l0 4zm5 -1l0 -2c1,0 1,1 2,1 0,0 1,0 1,0 0,0 1,0 1,0 0,0 0,0 0,-1 0,0 0,0 0,0 0,0 0,0 -1,0l-1 -1c-1,0 -1,0 -2,-1 0,0 0,-1 0,-2 0,-1 0,-1 1,-2 0,0 1,-1 2,-1 1,0 1,0 2,0 0,1 1,1 2,1l-1 2c0,0 -1,0 -1,0 -1,-1 -1,-1 -1,-1 -1,0 -1,0 -1,0 0,1 0,1 0,1 0,0 0,0 0,0 0,1 0,1 0,1l2 0c0,1 1,1 1,1 1,1 1,1 1,2 0,1 0,2 -1,2 -1,1 -2,1 -3,1 0,0 -1,0 -1,0 -1,0 -1,0 -2,-1zm11 -5l4 0 0 0c0,0 0,-1 0,-1 -1,0 -1,0 -1,0 -1,0 -2,0 -2,0 0,0 -1,1 -1,1zm6 3l0 2c-1,1 -1,1 -2,1 0,0 -1,0 -2,0 -1,0 -2,0 -3,-1 -1,-1 -2,-2 -2,-3 0,-2 1,-3 2,-4 1,-1 2,-2 4,-2 1,0 2,1 3,1 0,1 1,2 1,3 0,0 0,1 0,1l0 0 0 1 -7 0c0,0 1,1 1,1 1,1 1,1 2,1 0,0 1,0 1,0 1,-1 2,-1 2,-1z"/>
   <line fill="none"  stroke="#0175BB" stroke-width="2.16763" x1="4" y1="6" x2="11" y2= "6" />
   <polygon fill="none" points="0,0 57,0 57,27 0,27 "/>
 </g>
</svg>
