<svg xmlns="http://www.w3.org/2000/svg" xml:space="preserve" width="359px" height="359px" version="1.1" style="shape-rendering:geometricPrecision; text-rendering:geometricPrecision; image-rendering:optimizeQuality; fill-rule:evenodd; clip-rule:evenodd"
viewBox="0 0 193 193"
 xmlns:xlink="http://www.w3.org/1999/xlink">
 <g>
 <g id="content">
  <path id="wheel" fill="#fff" d="M95 74c14,-2 25,9 26,21 2,14 -9,25 -21,27 -14,1 -25,-9 -26,-22 -2,-14 8,-25 21,-26zm-66 15l0 17 20 4c0,1 2,6 3,8 2,5 3,4 1,8 -2,2 -10,13 -10,14l11 12c3,-1 14,-9 17,-11 2,0 5,2 7,3 2,1 5,1 7,2l4 20 17 0 3 -20c3,-1 6,-2 9,-3 6,-3 3,-5 15,4 1,1 5,5 7,5l12 -12c-1,-1 -10,-14 -12,-16 1,-2 2,-4 3,-7l2 -5c1,-2 0,-1 1,-2 1,-1 18,-3 20,-4l0 -16c0,-2 -1,-1 -4,-2l-16 -2c-1,-2 -2,-7 -3,-9 -4,-7 -4,-2 9,-22l-12 -12c-4,2 -12,9 -17,12 -1,0 -4,-2 -6,-3 -3,-1 -6,-2 -8,-3l-3 -20 -17 0 -4 20c-6,2 -8,3 -13,6 -3,-1 -13,-10 -17,-12 -1,1 -11,11 -12,12l10 14c3,4 1,3 -1,8 -4,8 -1,8 -5,9 -1,0 -2,0 -3,0l-15 3z"/>
 </g>
  <rect fill="none" width="193" height="193"/>
  </g>
</svg>
