<svg xmlns="http://www.w3.org/2000/svg">
<defs>
<font id="0f010929641b9975f3f06964a235a5bb" horiz-adv-x='1024' >
  <font-face 
    font-family="GTHaptik-Medium"
    font-weight="500"
    font-stretch="normal"
    units-per-em="1000"
    panose-1="2 0 5 5 2 0 0 2 0 4"
    ascent="750"
    descent="-250"
    x-height="500"
    cap-height="700"
    bbox="-104 -325 1273 1260"
    underline-thickness="50"
    underline-position="-50"
    unicode-range="U+0020-FB04"
  />
<missing-glyph horiz-adv-x="885" 
d="M496 494q34 0 55 -21t21 -53q0 -33 -21 -55t-55 -22q-32 0 -53.5 22t-21.5 55q0 32 21.5 53t53.5 21zM496 378q17 0 29.5 11.5t12.5 30.5q0 17 -12.5 28.5t-29.5 11.5t-28.5 -11.5t-11.5 -28.5q0 -19 11.5 -30.5t28.5 -11.5zM296 579h41l-61 -90v-62h-35v63l-61 89h41
l37 -52zM725 279h-34v96h34v-96zM708 267q10 0 16 -6t6 -15q0 -22 -22 -22q-9 0 -15 6t-6 16q0 9 6 15t15 6zM711 454q61 0 87 -24t26 -61v-246q-36 22 -64 29.5t-48 7.5q-29 0 -57 -9.5t-59 -9.5q-57 0 -57 52v77q-10 1 -19.5 2t-18.5 1q-34 0 -67 -8.5t-68 -8.5
q-33 0 -47 14t-14 38v58h-5q-20 0 -42 -4t-43.5 -9.5t-41.5 -12.5t-36 -13v-327h-53v633q-7 7 -12 17t-5 20q0 19 12 30.5t32 11.5q17 0 30 -11.5t13 -30.5q0 -23 -17 -37v-8q36 14 80 25.5t80 11.5q21 0 41 -5.5t35.5 -16t25 -27.5t9.5 -39v-15q17 4 41 7t52 3q24 0 49 -4
t45.5 -14t33 -27t12.5 -43v-37q15 4 31.5 7t38.5 3zM299 409q15 0 32.5 -2.5t33.5 -7.5v175q0 25 -21 35t-46 10q-17 0 -38 -3.5t-43 -9.5t-43 -13t-37 -14v-208q42 17 83 27.5t79 10.5zM501 315q24 0 50 -5t47 -14v178q0 6 -2 15t-11 17t-28 14t-54 6q-22 0 -44 -2.5
t-51 -7.5v-159q0 -18 -11.5 -25t-26.5 -12l-16.5 -5.5t-7.5 -8.5q0 -8 19 -8q33 0 66 8.5t70 8.5zM782 368q0 25 -20 33.5t-50 8.5q-18 0 -33.5 -2.5t-37.5 -7.5v-156q0 -17 -9.5 -23.5t-28.5 -14.5q-9 -4 -15.5 -7.5t-6.5 -8.5q0 -8 16 -8q14 0 28 3.5t27.5 7t28 7
t30.5 3.5q36 0 71 -11v176zM598 248q0 5 -17 12v-22q17 8 17 10zM348 352q5 2 8 2.5t8 1.5q-4 7 -16 7v-11z" />
    <glyph glyph-name="IJ" unicode="IJ" horiz-adv-x="530" 
d="M80 0v700h114v-700h-114zM250 114q45 0 70.5 33t25.5 79v474h114v-474q0 -50 -14.5 -91.5t-41.5 -71.5t-66 -46.5t-88 -16.5v114z" />
    <glyph glyph-name="ij" unicode="ij" horiz-adv-x="556" 
d="M84 500h108v-500h-108v500zM60 634q0 33 22.5 55.5t55.5 22.5t55.5 -22.5t22.5 -55.5t-22.5 -55.5t-55.5 -22.5t-55.5 22.5t-22.5 55.5zM256 -96q34 0 56 5.5t35 16t17.5 25.5t4.5 33v516h108v-516q0 -47 -11.5 -81.5t-37.5 -57.5t-68 -34t-104 -11v104zM345 634
q0 33 22.5 55.5t55.5 22.5t55.5 -22.5t22.5 -55.5t-22.5 -55.5t-55.5 -22.5t-55.5 22.5t-22.5 55.5z" />
    <glyph glyph-name="napostrophe" unicode="&#x22;n" horiz-adv-x="579" 
d="M302 408q-26 0 -48.5 -8t-40 -28.5t-27.5 -54t-10 -84.5v-233h-106v500h106v-51q26 29 62.5 46t81.5 17q51 0 86.5 -16.5t58.5 -46t33.5 -70t10.5 -87.5v-292h-108v292q0 53 -22.5 84.5t-76.5 31.5zM-54 562q-21 10 -33 29t-12 40q0 15 6 29.5t16.5 26t25 18.5t31.5 7
q18 0 33 -7t25.5 -18.5t16.5 -25.5t6 -28q0 -12 -4 -23t-9 -19l-87 -154l-65 38z" />
    <glyph glyph-name="ff" unicode="ff" horiz-adv-x="688" 
d="M208 0h-106v402h-87v98h87v24q0 100 43.5 142.5t120.5 42.5q17 0 39.5 -2t46.5 -7v-100q-21 3 -39.5 5t-36.5 2q-35 0 -51.5 -17.5t-16.5 -65.5v-24h215v24q0 100 43.5 142.5t120.5 42.5q17 0 39.5 -2t46.5 -7v-100q-21 3 -39.5 5t-36.5 2q-35 0 -51.5 -17.5t-16.5 -65.5
v-24h137v-98h-137v-402h-106v402h-215v-402z" />
    <glyph glyph-name="fi" unicode="fi" horiz-adv-x="644" 
d="M428 629q0 33 22.5 55.5t55.5 22.5t55.5 -22.5t22.5 -55.5t-22.5 -55.5t-55.5 -22.5t-55.5 22.5t-22.5 55.5zM208 402v-402h-106v402h-87v98h87v24q0 100 43.5 142.5t120.5 42.5q17 0 39.5 -2t46.5 -7v-100q-21 3 -39.5 5t-36.5 2q-35 0 -51.5 -17.5t-16.5 -65.5v-24h352
v-500h-108v402h-244z" />
    <glyph glyph-name="fl" unicode="fl" horiz-adv-x="606" 
d="M15 500h87v24q0 100 43.5 142.5t120.5 42.5q17 0 39.5 -2t46.5 -7v-100q-21 3 -39.5 5t-36.5 2q-35 0 -51.5 -17.5t-16.5 -65.5v-24h137v-98h-137v-402h-106v402h-87v98zM428 0v700h108v-700h-108z" />
    <glyph glyph-name=".notdef" horiz-adv-x="885" 
d="M496 494q34 0 55 -21t21 -53q0 -33 -21 -55t-55 -22q-32 0 -53.5 22t-21.5 55q0 32 21.5 53t53.5 21zM496 378q17 0 29.5 11.5t12.5 30.5q0 17 -12.5 28.5t-29.5 11.5t-28.5 -11.5t-11.5 -28.5q0 -19 11.5 -30.5t28.5 -11.5zM296 579h41l-61 -90v-62h-35v63l-61 89h41
l37 -52zM725 279h-34v96h34v-96zM708 267q10 0 16 -6t6 -15q0 -22 -22 -22q-9 0 -15 6t-6 16q0 9 6 15t15 6zM711 454q61 0 87 -24t26 -61v-246q-36 22 -64 29.5t-48 7.5q-29 0 -57 -9.5t-59 -9.5q-57 0 -57 52v77q-10 1 -19.5 2t-18.5 1q-34 0 -67 -8.5t-68 -8.5
q-33 0 -47 14t-14 38v58h-5q-20 0 -42 -4t-43.5 -9.5t-41.5 -12.5t-36 -13v-327h-53v633q-7 7 -12 17t-5 20q0 19 12 30.5t32 11.5q17 0 30 -11.5t13 -30.5q0 -23 -17 -37v-8q36 14 80 25.5t80 11.5q21 0 41 -5.5t35.5 -16t25 -27.5t9.5 -39v-15q17 4 41 7t52 3q24 0 49 -4
t45.5 -14t33 -27t12.5 -43v-37q15 4 31.5 7t38.5 3zM299 409q15 0 32.5 -2.5t33.5 -7.5v175q0 25 -21 35t-46 10q-17 0 -38 -3.5t-43 -9.5t-43 -13t-37 -14v-208q42 17 83 27.5t79 10.5zM501 315q24 0 50 -5t47 -14v178q0 6 -2 15t-11 17t-28 14t-54 6q-22 0 -44 -2.5
t-51 -7.5v-159q0 -18 -11.5 -25t-26.5 -12l-16.5 -5.5t-7.5 -8.5q0 -8 19 -8q33 0 66 8.5t70 8.5zM782 368q0 25 -20 33.5t-50 8.5q-18 0 -33.5 -2.5t-37.5 -7.5v-156q0 -17 -9.5 -23.5t-28.5 -14.5q-9 -4 -15.5 -7.5t-6.5 -8.5q0 -8 16 -8q14 0 28 3.5t27.5 7t28 7
t30.5 3.5q36 0 71 -11v176zM598 248q0 5 -17 12v-22q17 8 17 10zM348 352q5 2 8 2.5t8 1.5q-4 7 -16 7v-11z" />
    <glyph glyph-name=".null" horiz-adv-x="0" 
 />
    <glyph glyph-name="nonmarkingreturn" horiz-adv-x="333" 
 />
    <glyph glyph-name="space" unicode=" " horiz-adv-x="290" 
 />
    <glyph glyph-name="exclam" unicode="!" horiz-adv-x="346" 
d="M90 70q0 35 24 59t59 24t59 -24t24 -59t-24 -58.5t-59 -23.5t-59 23.5t-24 58.5zM116 700h114v-493h-114v493z" />
    <glyph glyph-name="quotedbl" unicode="&#x22;" horiz-adv-x="370" 
d="M70 689h95v-268h-95v268zM204 689h96v-268h-96v268z" />
    <glyph glyph-name="numbersign" unicode="#" horiz-adv-x="578" 
d="M378 0h-91l30 209h-96l-29 -209h-93l30 209h-99l9 90h102l16 111h-102l14 90h99l29 200h92l-27 -200h94l28 200h93l-27 -200h98l-9 -90h-103l-16 -111h102l-13 -90h-101zM250 410l-17 -111h95l15 111h-93z" />
    <glyph glyph-name="dollar" unicode="$" horiz-adv-x="585" 
d="M413 472q-9 43 -30.5 69t-48.5 37v-184q31 -10 62 -23.5t56 -35t40 -54.5t15 -83q0 -44 -13.5 -78t-37 -58t-55 -39t-67.5 -20v-79h-80v79q-31 4 -61.5 16t-56 34t-44 53.5t-27.5 74.5l101 54q8 -49 32 -77t56 -39v183q-32 10 -63.5 23.5t-57 35.5t-41.5 55.5t-16 84.5
q0 40 13.5 73.5t37.5 59t56.5 41.5t70.5 22v68h80v-68q66 -11 116.5 -58t69.5 -123zM190 501q0 -32 17.5 -50t46.5 -30v160q-33 -10 -48.5 -32t-15.5 -48zM393 198q0 29 -16.5 46.5t-42.5 29.5v-155q59 18 59 79z" />
    <glyph glyph-name="percent" unicode="%" horiz-adv-x="829" 
d="M462 165q0 34 13 64.5t35.5 53.5t52.5 36t65 13q34 0 64.5 -13t53 -36t35.5 -53.5t13 -64.5t-13 -64t-35.5 -52.5t-53 -35.5t-64.5 -13q-35 0 -65 13t-52.5 35.5t-35.5 52.5t-13 64zM550 165q0 -16 6 -30t16.5 -24.5t25 -16.5t30.5 -6q32 0 54.5 22.5t22.5 54.5
q0 16 -6 30.5t-16.5 25t-24.5 16.5t-30 6q-32 0 -55 -23t-23 -55zM367 533q0 -35 -13 -65t-35.5 -52.5t-53 -35.5t-64.5 -13t-64.5 13t-53 35.5t-35.5 52.5t-13 65q0 34 13 64.5t35.5 53.5t53 36t64.5 13t64.5 -13t53 -36t35.5 -53.5t13 -64.5zM279 533q0 32 -23 55t-55 23
q-16 0 -30 -6t-24.5 -16.5t-16.5 -25t-6 -30.5t6 -30.5t16.5 -25t24.5 -16.5t30 -6q32 0 55 23t23 55zM118 52l538 648l65 -52l-538 -648z" />
    <glyph glyph-name="ampersand" unicode="&#x26;" horiz-adv-x="682" 
d="M75 191q0 37 11 67t29 54t41 43.5t48 36.5l-16 19q-26 29 -44 61t-18 82q0 31 12 59.5t34.5 50.5t54 35t70.5 13t71 -13t54 -35t34 -51t12 -60t-8.5 -56.5t-23.5 -47.5t-34.5 -40.5t-41.5 -34.5l108 -121q6 22 10 44.5t7 42.5l99 -18q-6 -44 -15.5 -83t-23.5 -74l87 -98
l-79 -72l-66 75q-35 -39 -83.5 -60.5t-112.5 -21.5q-53 0 -93 16.5t-67.5 44.5t-41.5 64.5t-14 77.5zM296 95q42 0 71.5 14.5t49.5 39.5l-144 164q-35 -26 -60 -55t-24 -67q0 -18 7 -35t20.5 -30.5t33.5 -22t46 -8.5zM293 451q27 20 45 43.5t18 54.5q0 26 -17.5 42t-42.5 16
q-23 0 -40.5 -17t-17.5 -40q0 -20 9 -38.5t23 -34.5z" />
    <glyph glyph-name="quotesingle" unicode="'" horiz-adv-x="235" 
d="M70 689h95v-268h-95v268z" />
    <glyph glyph-name="parenleft" unicode="(" horiz-adv-x="340" 
d="M40 310q0 134 50 254.5t142 214.5l73 -66q-78 -87 -118.5 -184t-40.5 -219t40.5 -219t118.5 -185l-73 -66q-92 94 -142 215t-50 255z" />
    <glyph glyph-name="parenright" unicode=")" horiz-adv-x="340" 
d="M300 310q0 -134 -50 -255t-142 -215l-73 66q78 88 118.5 185t40.5 219t-40.5 219t-118.5 184l73 66q92 -94 142 -214.5t50 -254.5z" />
    <glyph glyph-name="asterisk" unicode="*" horiz-adv-x="354" 
d="M220 700v-109l104 34l30 -84l-107 -34l64 -87l-67 -53l-67 90l-67 -90l-68 53l64 88l-106 33l30 84l103 -35v110h87z" />
    <glyph glyph-name="plus" unicode="+" 
d="M93 375h200v200h114v-200h200v-114h-200v-200h-114v200h-200v114z" />
    <glyph glyph-name="comma" unicode="," horiz-adv-x="329" 
d="M209 173l90 -51l-189 -341l-90 49z" />
    <glyph glyph-name="hyphen" unicode="-" horiz-adv-x="627" 
d="M80 364h467v-114h-467v114z" />
    <glyph glyph-name="period" unicode="." horiz-adv-x="375" 
d="M100 87q0 37 25 62.5t62 25.5q38 0 63 -25.5t25 -62.5t-25 -62t-63 -25q-37 0 -62 25t-25 62z" />
    <glyph glyph-name="slash" unicode="/" horiz-adv-x="739" 
d="M60 73l531 627l88 -73l-531 -627z" />
    <glyph glyph-name="zero" unicode="0" horiz-adv-x="769" 
d="M385 700q68 0 127 -26t103 -72.5t69 -110.5t25 -141t-25 -141t-69 -110.5t-103 -72.5t-127 -26t-127 26t-103 72.5t-69.5 110.5t-25.5 141t25.5 141t69.5 110.5t103 72.5t127 26zM385 114q45 0 83.5 17t67 48.5t44.5 74.5t16 96q0 52 -16 95.5t-44.5 75t-67 48.5
t-83.5 17t-84 -17t-67 -48.5t-44 -75t-16 -95.5q0 -53 16 -96t44 -74.5t67 -48.5t84 -17zM470 350q0 -35 -25 -59.5t-60 -24.5t-60 24.5t-25 59.5t25 60t60 25t60 -25t25 -60z" />
    <glyph glyph-name="one" unicode="1" horiz-adv-x="478" 
d="M378 700v-700h-114v529l-144 -144l-80 81l236 234h102z" />
    <glyph glyph-name="two" unicode="2" horiz-adv-x="622" 
d="M70 551q16 30 38.5 57t52 47.5t65.5 32.5t78 12q47 0 87 -15.5t69 -43.5t45.5 -67.5t16.5 -86.5q0 -53 -19 -94t-51 -75l-187 -204h250v-114h-426v94l282 303q17 17 27 39t10 49q0 24 -8.5 42.5t-22.5 31.5t-32.5 20t-39.5 7q-49 0 -87 -31t-59 -81z" />
    <glyph glyph-name="three" unicode="3" horiz-adv-x="580" 
d="M386 497q0 42 -26.5 65.5t-65.5 23.5q-41 0 -75.5 -27t-52.5 -83l-92 77q12 29 31.5 55.5t47 47t62 32.5t75.5 12q45 0 83.5 -15t66.5 -41.5t44 -63t16 -78.5q0 -52 -20.5 -89t-45.5 -60q32 -26 49 -64t17 -88q0 -47 -15 -84t-42 -63t-65 -40t-84 -14q-84 0 -141 43
t-83 112l101 77q15 -54 45 -86t76 -32q39 0 66.5 24t27.5 66q0 43 -28 67t-73 24h-39v114h39q44 0 72.5 22.5t28.5 65.5z" />
    <glyph glyph-name="four" unicode="4" horiz-adv-x="695" 
d="M655 250v-114h-139v-136h-114v136h-372v99l393 465h93v-450h139zM402 499l-209 -249h209v249z" />
    <glyph glyph-name="five" unicode="5" horiz-adv-x="601" 
d="M113 700h408v-114h-294v-115q11 2 25 3.5t33 1.5q53 0 96.5 -17.5t74.5 -49.5t48 -76t17 -96q0 -59 -20.5 -103.5t-55 -74t-79.5 -44.5t-93 -15q-58 0 -110 20t-93 55l58 101q38 -32 77 -47t74 -15q26 0 49 8t40.5 23.5t28 39t10.5 55.5q0 57 -34.5 89.5t-97.5 32.5
q-35 0 -78 -10.5t-84 -30.5v379z" />
    <glyph glyph-name="six" unicode="6" horiz-adv-x="600" 
d="M306 468q52 0 95 -16.5t74 -47t48 -73.5t17 -95q0 -51 -17.5 -94.5t-49 -75t-74 -49t-93.5 -17.5q-63 0 -110.5 26t-78.5 72q-27 38 -37 93t-10 116q0 103 20.5 176t52.5 117q33 46 80.5 73t113.5 27q59 0 98.5 -18.5t71.5 -43.5l-62 -93q-23 17 -49.5 29t-58.5 12
q-58 0 -96 -44q-17 -21 -27.5 -48t-14.5 -53q28 14 56 20.5t51 6.5zM187 235q0 -30 9.5 -52.5t26 -37.5t38 -23t45.5 -8q54 0 87 33.5t33 87.5q0 55 -31.5 87t-88.5 32q-26 0 -47.5 -8.5t-37.5 -24.5t-25 -37.5t-9 -48.5z" />
    <glyph glyph-name="seven" unicode="7" horiz-adv-x="552" 
d="M512 602l-310 -602h-128l301 586h-335v114h472v-98z" />
    <glyph glyph-name="eight" unicode="8" horiz-adv-x="570" 
d="M70 203q0 49 17.5 84.5t51.5 63.5q-34 28 -51.5 63t-17.5 84q0 47 16 84.5t44.5 63.5t68 40t86.5 14t86.5 -14t68 -40t44.5 -63.5t16 -84.5q0 -49 -17.5 -84t-51.5 -63q34 -28 51.5 -63.5t17.5 -84.5q0 -47 -16 -85t-44.5 -64t-68 -40t-86.5 -14t-86.5 14t-68 40
t-44.5 64t-16 85zM285 408q42 0 71.5 23t29.5 67q0 41 -28 64.5t-73 23.5t-73 -23.5t-28 -64.5q0 -44 29.5 -67t71.5 -23zM285 294q-42 0 -71.5 -23.5t-29.5 -67.5q0 -41 28 -65t73 -24t73 24t28 65q0 44 -29.5 67.5t-71.5 23.5z" />
    <glyph glyph-name="nine" unicode="9" horiz-adv-x="595" 
d="M462 94q-32 -45 -80 -69.5t-114 -24.5q-29 0 -53 3t-45 9.5t-41 15.5t-41 21l47 104q36 -20 68.5 -29.5t64.5 -9.5q30 0 54 9t44 32q18 22 26 49t10 56q-28 -16 -55.5 -22t-51.5 -6q-52 0 -95 16.5t-74 47t-48.5 73.5t-17.5 95q0 51 18 94t49.5 74.5t74.5 49.5t93 18
q63 0 109.5 -26t78.5 -71q26 -39 36.5 -94t10.5 -116q0 -104 -18 -179.5t-50 -119.5zM415 465q0 30 -10 52.5t-26.5 37.5t-38 23t-45.5 8q-54 0 -87.5 -33.5t-33.5 -87.5q0 -55 32 -87t89 -32q52 0 86 32.5t34 86.5z" />
    <glyph glyph-name="colon" unicode=":" horiz-adv-x="335" 
d="M80 87q0 37 25 62.5t62 25.5t62.5 -25.5t25.5 -62.5t-25.5 -62t-62.5 -25t-62 25t-25 62zM80 424q0 37 25 62.5t62 25.5t62.5 -25.5t25.5 -62.5t-25.5 -62t-62.5 -25t-62 25t-25 62z" />
    <glyph glyph-name="semicolon" unicode=";" horiz-adv-x="414" 
d="M219 173l90 -51l-189 -341l-90 49zM159 424q0 37 25 62.5t62 25.5t62.5 -25.5t25.5 -62.5t-25.5 -62t-62.5 -25t-62 25t-25 62z" />
    <glyph glyph-name="less" unicode="&#x3c;" 
d="M542 70l-424 187v94l424 187l40 -93l-318 -141l318 -141z" />
    <glyph glyph-name="equal" unicode="=" 
d="M593 339h-487v107h487v-107zM593 140h-487v107h487v-107z" />
    <glyph glyph-name="greater" unicode="&#x3e;" 
d="M118 163l318 141l-318 141l40 93l424 -187v-94l-424 -187z" />
    <glyph glyph-name="question" unicode="?" horiz-adv-x="554" 
d="M213 234q0 40 11 69t27 50.5t35.5 38t35.5 33t27 35.5t11 44q0 32 -22.5 57t-70.5 25q-51 0 -77 -29t-26 -91h-114q0 53 15 96t43 74t68 47.5t91 16.5q46 0 84.5 -13.5t65.5 -38.5t42 -61.5t15 -82.5q0 -37 -11 -63.5t-27.5 -48t-36 -38.5t-36 -35t-27.5 -38t-11 -47v-27
h-112v27zM186 70q0 35 24 59t59 24t59 -24t24 -59t-24 -58.5t-59 -23.5t-59 23.5t-24 58.5z" />
    <glyph glyph-name="at" unicode="@" horiz-adv-x="935" 
d="M444 265q-20 -2 -29 -13t-9 -25q0 -15 12.5 -27t39.5 -12q21 0 37.5 7t28.5 18.5t18.5 26t6.5 29.5v9zM304 407q21 52 63.5 83t105.5 31q47 0 81 -12t55.5 -33.5t31.5 -51t10 -65.5v-124q0 -23 9.5 -35t25.5 -12q15 0 28.5 8.5t23.5 28t15.5 50.5t5.5 75q0 58 -20 106
t-56 82t-87.5 52.5t-114.5 18.5q-65 0 -119 -22t-93 -62.5t-61 -96.5t-22 -123t21 -124t59.5 -99t91 -65.5t115.5 -23.5q69 0 126 15t101 35l19 -101q-54 -22 -111.5 -36.5t-134.5 -14.5q-85 0 -157 32t-124.5 88t-82 131.5t-29.5 162.5q0 88 31 163t85 129t127 84.5
t158 30.5t155.5 -25.5t121.5 -72.5t79 -113.5t28 -148.5q0 -120 -48 -190t-135 -70q-73 0 -104 53q-23 -26 -54 -40t-73 -14q-35 0 -62 10.5t-45.5 28.5t-28.5 43t-10 54q0 50 32 82t96 39l112 12q2 0 3 3.5t1 5.5q0 23 -16.5 40t-54.5 17q-26 0 -50.5 -14.5t-38.5 -46.5z
" />
    <glyph glyph-name="A" unicode="A" horiz-adv-x="782" 
d="M645 0l-54 118h-401l-54 -118h-126l326 700h110l326 -700h-127zM244 232h294l-147 316z" />
    <glyph glyph-name="B" unicode="B" horiz-adv-x="616" 
d="M80 700h296q41 0 77.5 -14.5t63.5 -41t43 -63.5t16 -82t-20 -84t-52 -65q32 -26 52 -64.5t20 -84.5q0 -45 -16 -82t-43 -63.5t-63.5 -41t-77.5 -14.5h-296v700zM194 114h182q38 0 62 23.5t24 63.5t-23 66t-58 26h-187v-179zM194 407h187q35 0 58 26t23 66t-24 63.5
t-62 23.5h-182v-179z" />
    <glyph glyph-name="C" unicode="C" horiz-adv-x="666" 
d="M598 484q-38 48 -89 75t-109 27q-52 0 -95.5 -17t-74.5 -48t-48.5 -74.5t-17.5 -96.5t17.5 -96.5t48.5 -74.5t74.5 -48t95.5 -17q26 0 59.5 8t69.5 28l20 -117q-39 -18 -76.5 -25.5t-72.5 -7.5q-75 0 -139 26.5t-111 73.5t-73.5 111t-26.5 139t26.5 139t73.5 111
t111 73.5t139 26.5t137.5 -28t113.5 -79z" />
    <glyph glyph-name="D" unicode="D" horiz-adv-x="724" 
d="M80 700h245q74 0 138 -26.5t111 -73t73.5 -110.5t26.5 -140t-26.5 -140t-73.5 -110.5t-111 -73t-138 -26.5h-245v700zM194 586v-472h131q51 0 94 17.5t74.5 49t49 74.5t17.5 95t-17.5 95t-49 74.5t-74.5 49t-94 17.5h-131z" />
    <glyph glyph-name="E" unicode="E" horiz-adv-x="576" 
d="M80 700h441v-114h-327v-179h327v-114h-327v-179h327v-114h-441v700z" />
    <glyph glyph-name="F" unicode="F" horiz-adv-x="561" 
d="M194 586v-179h327v-114h-327v-293h-114v700h441v-114h-327z" />
    <glyph glyph-name="G" unicode="G" horiz-adv-x="666" 
d="M400 586q-52 0 -95.5 -17t-74.5 -48t-48.5 -74.5t-17.5 -96.5t17.5 -96.5t48.5 -74.5t74.5 -48t95.5 -17q10 0 20.5 1.5t22.5 3.5v149h-155v114h269v-346q-40 -17 -82.5 -26.5t-74.5 -9.5q-75 0 -139 26.5t-111 73.5t-73.5 111t-26.5 139t26.5 139t73.5 111t111 73.5
t139 26.5t137.5 -28t113.5 -79l-53 -109q-38 48 -89 75t-109 27z" />
    <glyph glyph-name="H" unicode="H" horiz-adv-x="744" 
d="M550 0v293h-356v-293h-114v700h114v-293h356v293h114v-700h-114z" />
    <glyph glyph-name="I" unicode="I" horiz-adv-x="274" 
d="M80 0v700h114v-700h-114z" />
    <glyph glyph-name="J" unicode="J" horiz-adv-x="499" 
d="M117 271q0 -34 5.5 -62.5t18 -49.5t32 -33t46.5 -12q45 0 70.5 33t25.5 79v474h114v-474q0 -50 -14.5 -91.5t-41.5 -71.5t-66 -46.5t-88 -16.5q-57 0 -96 20.5t-63 52.5t-34.5 71t-10.5 77z" />
    <glyph glyph-name="K" unicode="K" horiz-adv-x="672" 
d="M281 309l-87 -87v-222h-114v700h114v-316l313 316h160l-306 -309l300 -391h-143z" />
    <glyph glyph-name="L" unicode="L" horiz-adv-x="542" 
d="M80 700h114v-586h333v-114h-447v700z" />
    <glyph glyph-name="M" unicode="M" horiz-adv-x="1006" 
d="M457 0l-263 462v-462h-114v700h109l314 -550l314 550h109v-700h-114v462l-263 -462h-92z" />
    <glyph glyph-name="N" unicode="N" horiz-adv-x="791" 
d="M608 0l-414 503v-503h-114v700h101l416 -508v508h114v-700h-103z" />
    <glyph glyph-name="O" unicode="O" horiz-adv-x="798" 
d="M399 700q75 0 139 -26.5t110.5 -73.5t73 -111t26.5 -139t-26.5 -139t-73 -111t-110.5 -73.5t-139 -26.5t-139 26.5t-110.5 73.5t-73 111t-26.5 139t26.5 139t73 111t110.5 73.5t139 26.5zM399 114q51 0 94 17.5t74.5 49t49 75t17.5 94.5t-17.5 94t-49 74.5t-74.5 49.5
t-94 18t-94 -18t-74.5 -49.5t-49 -74.5t-17.5 -94t17.5 -94.5t49 -75t74.5 -49t94 -17.5z" />
    <glyph glyph-name="P" unicode="P" horiz-adv-x="604" 
d="M194 219v-219h-114v700h254q52 0 96 -18t76 -50t50 -76t18 -96t-18 -96t-50 -76.5t-76 -50.5t-96 -18h-140zM334 333q26 0 49 9.5t40 26.5t27 40t10 51t-10 51t-27 39.5t-40 26t-49 9.5h-140v-253h140z" />
    <glyph glyph-name="Q" unicode="Q" horiz-adv-x="837" 
d="M399 700q75 0 139 -26.5t110.5 -73.5t73 -111t26.5 -139q0 -60 -16.5 -112.5t-47.5 -95.5l173 -173l-80 -81l-174 174q-43 -30 -94.5 -46t-109.5 -16q-75 0 -139 26.5t-110.5 73.5t-73 111t-26.5 139t26.5 139t73 111t110.5 73.5t139 26.5zM399 114q67 0 121 31l-185 186
l80 81l186 -187q16 26 24.5 58t8.5 67q0 51 -17.5 94t-49 74.5t-74.5 49.5t-94 18t-94 -18t-74.5 -49.5t-49 -74.5t-17.5 -94t17.5 -94.5t49 -75t74.5 -49t94 -17.5z" />
    <glyph glyph-name="R" unicode="R" horiz-adv-x="693" 
d="M194 0h-114v700h273q52 0 96 -18t76 -50t50 -76t18 -96q0 -68 -30 -121.5t-81 -84.5l206 -254h-147l-178 219h-169v-219zM330 442l77 -98q32 15 52.5 45.5t20.5 70.5q0 28 -10 51t-27.5 39.5t-40.5 26t-49 9.5h-159v-253h77l-29 36z" />
    <glyph glyph-name="S" unicode="S" horiz-adv-x="570" 
d="M413 472q-12 57 -44 85.5t-79 28.5t-73.5 -23t-26.5 -59q0 -35 23.5 -54t58.5 -32.5t76.5 -26.5t76.5 -35.5t58.5 -59.5t23.5 -98q0 -51 -17.5 -88.5t-47 -62t-67.5 -36t-80 -11.5q-36 0 -73 9.5t-68.5 31t-55 56t-33.5 84.5l101 54q10 -61 44.5 -91t84.5 -30
q45 0 71.5 21t26.5 58q0 35 -23.5 55t-58.5 34t-76.5 27.5t-76.5 35.5t-58.5 58t-23.5 95q0 49 17.5 87t47 63.5t68.5 38.5t82 13q82 0 144.5 -47.5t84.5 -136.5z" />
    <glyph glyph-name="T" unicode="T" horiz-adv-x="654" 
d="M649 586h-266v-586h-114v586h-264v114h644v-114z" />
    <glyph glyph-name="U" unicode="U" horiz-adv-x="783" 
d="M70 700h114v-379q0 -44 16 -82t43.5 -66t65.5 -44t82 -16q45 0 83 16t65.5 44t43.5 66t16 82v379h114v-379q0 -69 -24.5 -127.5t-68 -101.5t-102 -67.5t-127.5 -24.5q-68 0 -126.5 24.5t-102 67.5t-68 101.5t-24.5 127.5v379z" />
    <glyph glyph-name="V" unicode="V" horiz-adv-x="760" 
d="M338 0l-333 700h127l249 -523l247 523h127l-334 -700h-83z" />
    <glyph glyph-name="W" unicode="W" horiz-adv-x="1214" 
d="M657 700l224 -503l201 503h122l-278 -700h-81l-238 531l-237 -531h-81l-279 700h122l201 -503l224 503h100z" />
    <glyph glyph-name="X" unicode="X" horiz-adv-x="744" 
d="M445 349l284 -349h-147l-210 259l-209 -259h-148l284 349l-283 351h146l210 -260l211 260h146z" />
    <glyph glyph-name="Y" unicode="Y" horiz-adv-x="690" 
d="M288 0v292l-283 408h139l201 -291l201 291h139l-283 -408v-292h-114z" />
    <glyph glyph-name="Z" unicode="Z" horiz-adv-x="667" 
d="M220 113h397v-113h-567v85l397 502h-397v113h567v-85z" />
    <glyph glyph-name="bracketleft" unicode="[" horiz-adv-x="356" 
d="M110 747h216v-95h-116v-684h116v-95h-216v874z" />
    <glyph glyph-name="backslash" unicode="\" horiz-adv-x="679" 
d="M561 0l-531 627l88 73l531 -627z" />
    <glyph glyph-name="bracketright" unicode="]" horiz-adv-x="356" 
d="M246 -127h-216v95h116v684h-116v95h216v-874z" />
    <glyph glyph-name="asciicircum" unicode="^" horiz-adv-x="362" 
d="M181 768l171 -161l-69 -71l-102 99l-103 -99l-68 71z" />
    <glyph glyph-name="underscore" unicode="_" horiz-adv-x="596" 
d="M30 36h536v-92h-536v92z" />
    <glyph glyph-name="grave" unicode="`" horiz-adv-x="296" 
d="M286 624l-51 -79l-225 141l52 83z" />
    <glyph glyph-name="a" unicode="a" horiz-adv-x="541" 
d="M368 356q0 25 -25.5 40.5t-69.5 15.5q-45 0 -75 -16.5t-44 -62.5l-97 50q10 30 27 53.5t42.5 40.5t60 26t80.5 9q108 0 158.5 -51t50.5 -139v-322h-108v55q-22 -26 -55.5 -45.5t-87.5 -19.5q-41 0 -74 12t-56.5 34t-36.5 51t-13 64q0 37 13.5 64.5t35 45.5t50 28t58.5 13
l143 13q23 2 23 22v19zM219 207q-33 -4 -48.5 -20t-15.5 -36q0 -26 21.5 -41.5t62.5 -15.5q26 0 49.5 9t41 24.5t28 35.5t10.5 42v20z" />
    <glyph glyph-name="b" unicode="b" horiz-adv-x="601" 
d="M323 512q55 0 100.5 -18.5t78.5 -52.5t51 -82.5t18 -108.5t-18.5 -108.5t-52 -82.5t-80 -52.5t-101.5 -18.5q-40 0 -78 16.5t-65 45.5v-50h-106v700h106v-249q26 28 64.5 44.5t82.5 16.5zM315 92q33 0 59.5 11.5t45.5 32.5t29 50t10 64t-10 64t-29 50t-45.5 32.5
t-59.5 11.5q-69 0 -106.5 -43t-37.5 -115t37.5 -115t106.5 -43z" />
    <glyph glyph-name="c" unicode="c" horiz-adv-x="502" 
d="M30 250q0 58 20 106.5t54.5 83t81.5 53.5t102 19q60 0 107 -22t82 -59l-68 -83q-17 23 -49 41.5t-74 18.5q-29 0 -55.5 -10.5t-46 -30.5t-31 -49.5t-11.5 -67.5t11.5 -67.5t31 -49.5t46 -30.5t55.5 -10.5q42 0 74 18t54 43l63 -86q-13 -14 -31.5 -28t-42 -25.5
t-52.5 -18.5t-63 -7q-55 0 -102 19t-81.5 53.5t-54.5 83t-20 106.5z" />
    <glyph glyph-name="d" unicode="d" horiz-adv-x="600" 
d="M278 512q47 0 85 -17t61 -40v245h106v-700h-106v55q-21 -25 -59 -46t-87 -21q-55 0 -100.5 18.5t-78.5 52.5t-51 82.5t-18 108.5t18 108.5t51 82.5t78.5 52.5t100.5 18.5zM286 92q69 0 106.5 44t37.5 116t-37.5 114t-106.5 42q-33 0 -59.5 -11.5t-45.5 -32.5t-29 -50
t-10 -64t10 -64t29 -50t45.5 -32.5t59.5 -11.5z" />
    <glyph glyph-name="e" unicode="e" horiz-adv-x="543" 
d="M492 82q-17 -19 -37.5 -36t-46.5 -30t-57.5 -20.5t-71.5 -7.5q-54 0 -99.5 19.5t-78.5 54t-52 83t-19 106.5q0 52 17 99.5t49.5 83.5t78.5 57t104 21q54 0 98.5 -20t75.5 -55t48 -83t17 -103v-39h-379q8 -58 47.5 -89t92.5 -31q54 0 90.5 20.5t65.5 53.5zM400 304
q-9 50 -39.5 77t-81.5 27t-85.5 -28t-46.5 -76h253z" />
    <glyph glyph-name="f" unicode="f" horiz-adv-x="367" 
d="M15 500h87v24q0 100 43.5 142.5t120.5 42.5q17 0 39.5 -2t46.5 -7v-100q-21 3 -39.5 5t-36.5 2q-35 0 -51.5 -17.5t-16.5 -65.5v-24h137v-98h-137v-402h-106v402h-87v98z" />
    <glyph glyph-name="g" unicode="g" horiz-adv-x="612" 
d="M439 55q-23 -29 -62.5 -48t-87.5 -19q-55 0 -100.5 18.5t-78.5 52.5t-51.5 82.5t-18.5 108.5t18.5 108.5t51.5 83t78.5 53t100.5 18.5q48 0 86 -17.5t61 -43.5v48h106v-461q0 -44 -10.5 -88.5t-37.5 -81t-73 -59.5t-118 -23q-47 0 -83.5 9.5t-65 26t-49.5 39.5t-37 49
l81 63q26 -47 65.5 -67.5t93.5 -20.5q39 0 64.5 14.5t40.5 36.5t20.5 49t5.5 53v16zM298 409q-33 0 -60 -12t-46 -33t-29.5 -50t-10.5 -64t10.5 -64t29.5 -50t46 -32.5t60 -11.5q69 0 106.5 44t37.5 116t-37.5 114.5t-106.5 42.5z" />
    <glyph glyph-name="h" unicode="h" horiz-adv-x="566" 
d="M201 358q-16 -26 -20.5 -60t-4.5 -65v-233h-106v700h106v-251q9 10 22.5 21.5t31 20.5t40 15t50.5 6q47 0 82 -16t58 -44.5t34.5 -68.5t11.5 -88v-295h-108v299q0 55 -26 82t-71 27q-30 0 -56.5 -12t-43.5 -38z" />
    <glyph glyph-name="i" unicode="i" horiz-adv-x="276" 
d="M84 500h108v-500h-108v500zM60 634q0 33 22.5 55.5t55.5 22.5t55.5 -22.5t22.5 -55.5t-22.5 -55.5t-55.5 -22.5t-55.5 22.5t-22.5 55.5z" />
    <glyph glyph-name="j" unicode="j" horiz-adv-x="280" 
d="M-20 -96q34 0 56 5.5t35 16t17.5 25.5t4.5 33v516h108v-516q0 -47 -11.5 -81.5t-37.5 -57.5t-68 -34t-104 -11v104zM69 634q0 33 22.5 55.5t55.5 22.5t55.5 -22.5t22.5 -55.5t-22.5 -55.5t-55.5 -22.5t-55.5 22.5t-22.5 55.5z" />
    <glyph glyph-name="k" unicode="k" horiz-adv-x="534" 
d="M235 205l-59 -55v-150h-106v700h106v-410l203 210h145l-215 -224l211 -276h-137z" />
    <glyph glyph-name="l" unicode="l" horiz-adv-x="248" 
d="M70 0v700h108v-700h-108z" />
    <glyph glyph-name="m" unicode="m" horiz-adv-x="912" 
d="M733 296q0 49 -22.5 80.5t-77.5 31.5q-58 0 -90 -38t-32 -130v-240h-109v296q0 49 -22.5 80.5t-77.5 31.5q-60 0 -93 -40t-33 -135v-233h-106v500h106v-51q25 29 61.5 46t78.5 17q61 0 97.5 -23.5t58.5 -58.5q32 38 71 60t99 22q54 0 92 -16t62 -45.5t35 -71t11 -93.5
v-286h-109v296z" />
    <glyph glyph-name="n" unicode="n" horiz-adv-x="579" 
d="M302 408q-26 0 -48.5 -8t-40 -28.5t-27.5 -54t-10 -84.5v-233h-106v500h106v-51q26 29 62.5 46t81.5 17q51 0 86.5 -16.5t58.5 -46t33.5 -70t10.5 -87.5v-292h-108v292q0 53 -22.5 84.5t-76.5 31.5z" />
    <glyph glyph-name="o" unicode="o" horiz-adv-x="582" 
d="M291 512q54 0 102 -20.5t83 -56t55.5 -83.5t20.5 -102t-20.5 -102t-55.5 -83.5t-83 -56t-102 -20.5t-102 20.5t-83 56t-55.5 83.5t-20.5 102t20.5 102t55.5 83.5t83 56t102 20.5zM291 92q33 0 60 12.5t47 34t31 50t11 61.5t-11 61.5t-31 50t-47 34t-60 12.5t-60 -12.5
t-47 -34t-31 -50t-11 -61.5t11 -61.5t31 -50t47 -34t60 -12.5z" />
    <glyph glyph-name="p" unicode="p" horiz-adv-x="601" 
d="M70 -200v700h106v-46q26 24 62.5 41t84.5 17q55 0 100.5 -18.5t78.5 -52.5t51 -82.5t18 -108.5t-18 -108.5t-51 -82.5t-78.5 -52.5t-100.5 -18.5q-48 0 -84 17.5t-63 43.5v-249h-106zM315 408q-69 0 -106.5 -43t-37.5 -115t37.5 -115t106.5 -43q33 0 59.5 11.5t45.5 32.5
t29 50t10 64t-10 64t-29 50t-45.5 32.5t-59.5 11.5z" />
    <glyph glyph-name="q" unicode="q" horiz-adv-x="600" 
d="M424 -200v253q-21 -25 -59 -45t-87 -20q-55 0 -100.5 18.5t-78.5 52.5t-51 82.5t-18 108.5t18 108.5t51 82.5t78.5 52.5t100.5 18.5q47 0 85 -16.5t61 -41.5v46h106v-700h-106zM286 408q-33 0 -59.5 -11.5t-45.5 -32.5t-29 -50t-10 -64t10 -64t29 -50t45.5 -32.5
t59.5 -11.5q69 0 106.5 43t37.5 115t-37.5 115t-106.5 43z" />
    <glyph glyph-name="r" unicode="r" horiz-adv-x="385" 
d="M365 387q-28 10 -62 10q-32 0 -57.5 -11t-40.5 -33q-17 -23 -22 -54t-5 -68v-231h-108v500h105v-56q22 32 54.5 50.5t73.5 18.5q32 0 62 -8v-118z" />
    <glyph glyph-name="s" unicode="s" horiz-adv-x="479" 
d="M120 167q20 -35 54.5 -55t71.5 -20q42 0 65.5 14.5t23.5 36.5q0 23 -20.5 34.5t-51.5 19.5t-67 16.5t-67 25t-51.5 45t-20.5 77.5q0 30 13 57t37.5 48t60.5 33.5t82 12.5q69 0 118.5 -30.5t75.5 -75.5l-81 -61q-17 27 -46 45t-67 18q-41 0 -63 -15.5t-22 -36.5t20.5 -32
t51.5 -18.5t66.5 -15.5t66.5 -24.5t51.5 -45.5t20.5 -77q0 -34 -14 -62.5t-40 -49t-62 -32t-80 -11.5q-36 0 -68.5 9t-60 24.5t-48.5 37t-34 46.5z" />
    <glyph glyph-name="t" unicode="t" horiz-adv-x="384" 
d="M108 402h-93v98h93v134h106v-134h130v-98h-130v-261q0 -43 36 -44q42 -2 99 6v-97q-52 -11 -99 -11q-71 0 -106.5 34t-35.5 117v256z" />
    <glyph glyph-name="u" unicode="u" horiz-adv-x="572" 
d="M273 92q33 0 56 12.5t38 35t22 53t7 65.5v242h106v-500h-106v56q-25 -29 -59.5 -48.5t-81.5 -19.5q-51 0 -86 16.5t-57 46t-32 70t-10 87.5v292h108v-292q0 -53 21 -84.5t74 -31.5z" />
    <glyph glyph-name="v" unicode="v" horiz-adv-x="542" 
d="M532 500l-220 -500h-82l-220 500h118l143 -345l143 345h118z" />
    <glyph glyph-name="w" unicode="w" horiz-adv-x="861" 
d="M467 500l138 -329l129 329h117l-206 -500h-80l-134 318q-33 -78 -68.5 -159.5t-67.5 -158.5h-79l-206 500h117l128 -329l138 329h74z" />
    <glyph glyph-name="x" unicode="x" horiz-adv-x="548" 
d="M538 0h-134l-130 168l-130 -168h-134l198 250q-23 29 -48.5 61t-51 64.5t-50.5 64t-48 60.5h134l130 -168l130 168h134l-198 -250z" />
    <glyph glyph-name="y" unicode="y" horiz-adv-x="540" 
d="M138 500l143 -296l139 296h115l-324 -700h-117l128 278l-212 422h128z" />
    <glyph glyph-name="z" unicode="z" horiz-adv-x="455" 
d="M172 102h253v-102h-395v91l243 307h-235v102h377v-91z" />
    <glyph glyph-name="braceleft" unicode="{" horiz-adv-x="389" 
d="M260 29q0 -32 19.5 -47.5t45.5 -15.5h44v-93h-39q-75 0 -121.5 37.5t-46.5 123.5v156q0 33 -27 52t-75 22v95q48 3 75 22.5t27 53.5v151q0 87 46.5 124t121.5 37h39v-93h-44q-26 0 -45.5 -15.5t-19.5 -47.5v-158q0 -41 -12.5 -70t-46.5 -49q33 -18 46 -46t13 -68v-171z
" />
    <glyph glyph-name="bar" unicode="|" horiz-adv-x="298" 
d="M100 761h98v-895h-98v895z" />
    <glyph glyph-name="braceright" unicode="}" horiz-adv-x="389" 
d="M129 200q0 40 13 68t46 46q-34 20 -46.5 49t-12.5 70v158q0 32 -19.5 47.5t-45.5 15.5h-44v93h39q75 0 121.5 -37t46.5 -124v-151q0 -34 27 -53.5t75 -22.5v-95q-48 -3 -75 -22t-27 -52v-156q0 -86 -46.5 -123.5t-121.5 -37.5h-39v93h44q26 0 45.5 15.5t19.5 47.5v171z
" />
    <glyph glyph-name="asciitilde" unicode="~" horiz-adv-x="690" 
d="M446 218q-35 0 -66 13t-53 24t-43.5 19.5t-39.5 8.5q-26 0 -54 -18t-54 -44l-61 85q35 34 77 61t92 27q37 0 68.5 -13t51.5 -24q22 -11 43.5 -19.5t39.5 -8.5q26 0 53.5 17.5t53.5 43.5l61 -80q-18 -17 -37 -33.5t-40 -29.5t-44 -21t-48 -8z" />
    <glyph glyph-name="exclamdown" unicode="&#xa1;" horiz-adv-x="225" 
d="M174 -189h-112v510h112v-510zM195 435q0 -35 -21.5 -56.5t-55.5 -21.5q-35 0 -56.5 21.5t-21.5 56.5q0 34 21.5 55.5t56.5 21.5q34 0 55.5 -21.5t21.5 -55.5z" />
    <glyph glyph-name="cent" unicode="&#xa2;" horiz-adv-x="517" 
d="M40 250q0 50 14.5 92.5t41 75.5t62.5 55.5t80 31.5v94h85v-88q51 -5 92 -26t72 -54l-68 -83q-14 20 -39 36t-57 21v-311q32 6 57.5 22t43.5 37l63 -86q-24 -26 -64.5 -49.5t-99.5 -28.5v-86h-85v92q-44 9 -80 31.5t-62.5 55.5t-41 75.5t-14.5 92.5zM152 250
q0 -57 24 -93.5t62 -53.5v293q-38 -16 -62 -53t-24 -93z" />
    <glyph glyph-name="sterling" unicode="&#xa3;" horiz-adv-x="583" 
d="M133 306h-93v90h93v103q0 43 12 80t36 64.5t60.5 43t86.5 15.5q36 0 65.5 -11t52.5 -28t39.5 -39.5t27.5 -44.5l-92 -66q-16 36 -40 59t-53 23q-39 0 -61 -24t-22 -72v-103h184v-90h-184v-118q0 -29 -7 -48.5t-17 -32.5h151q45 0 84.5 24t63.5 59l53 -92
q-30 -41 -77.5 -69.5t-123.5 -28.5h-322v103q40 5 61.5 26t21.5 59v118z" />
    <glyph glyph-name="currency" unicode="&#xa4;" horiz-adv-x="544" 
d="M61 346q0 66 36 119l-74 73l58 56l72 -73q26 17 56 27t64 10q33 0 63 -10t56 -27l73 73l58 -56l-75 -74q36 -53 36 -118q0 -33 -9.5 -62.5t-26.5 -54.5l81 -82l-56 -56l-82 80q-26 -17 -56 -26t-62 -9q-33 0 -63 9t-56 26l-81 -80l-56 56l80 81q-36 53 -36 118zM162 346
q0 -23 9 -42.5t24 -34.5t35 -23.5t43 -8.5q22 0 42 8.5t35 23.5t24 34.5t9 42.5t-9 43t-24 35t-35 24t-42 9q-23 0 -43 -9t-35 -24t-24 -35t-9 -43z" />
    <glyph glyph-name="yen" unicode="&#xa5;" horiz-adv-x="690" 
d="M288 0v141h-167v90h167v48h-167v90h113l-229 331h139l201 -291l201 291h139l-230 -331h114v-90h-167v-48h167v-90h-167v-141h-114z" />
    <glyph glyph-name="brokenbar" unicode="&#xa6;" horiz-adv-x="298" 
d="M100 388v373h98v-373h-98zM198 289v-423h-98v423h98z" />
    <glyph glyph-name="section" unicode="&#xa7;" horiz-adv-x="520" 
d="M50 275q0 47 21.5 84t62.5 62q-21 20 -33.5 47t-12.5 65q0 36 12.5 67.5t36.5 54.5t57.5 36t75.5 13q60 0 107.5 -28.5t76.5 -88.5l-84 -53q-16 35 -42 54.5t-60 19.5q-38 0 -58 -22t-20 -50q0 -35 30.5 -54t77.5 -37q25 -10 55.5 -23t56 -33t43 -50t17.5 -73
q0 -48 -22.5 -85t-62.5 -61q21 -20 34 -47t13 -65q0 -36 -12.5 -67.5t-36.5 -54.5t-57.5 -36t-75.5 -13q-60 0 -107.5 28t-76.5 88l84 54q15 -35 41.5 -54.5t60.5 -19.5q38 0 58 21.5t20 49.5q0 34 -28.5 52.5t-80.5 38.5q-28 11 -58 24.5t-55 34t-41.5 50t-16.5 71.5z
M151 281q0 -19 10 -33t26.5 -25t37 -20t40.5 -17q8 -3 15 -6t15 -7q30 15 52 36.5t22 50.5q0 19 -10 33t-26.5 25t-37 20t-40.5 17l-30 12q-30 -14 -52 -35.5t-22 -50.5z" />
    <glyph glyph-name="dieresis" unicode="&#xa8;" horiz-adv-x="395" 
d="M10 634q0 33 22.5 55.5t55.5 22.5t55.5 -22.5t22.5 -55.5t-22.5 -55.5t-55.5 -22.5t-55.5 22.5t-22.5 55.5zM230 634q0 33 22.5 55.5t55.5 22.5q32 0 54.5 -22.5t22.5 -55.5t-22.5 -55.5t-54.5 -22.5q-33 0 -55.5 22.5t-22.5 55.5z" />
    <glyph glyph-name="copyright" unicode="&#xa9;" horiz-adv-x="780" 
d="M506 410q-26 31 -53 46t-59 15q-51 0 -84.5 -33t-33.5 -89q0 -55 33.5 -89t84.5 -34q17 0 36 4.5t41 18.5l14 -75q-22 -11 -45 -15.5t-43 -4.5q-42 0 -77.5 15t-61.5 41t-40.5 61.5t-14.5 77.5t14.5 77.5t40.5 61.5t61.5 41t77.5 15q82 0 143 -63zM395 78q57 0 106 20
t84 55.5t55 84.5t20 106t-20 106t-55 84.5t-84 55.5t-106 20t-106 -20t-84 -55.5t-55 -84.5t-20 -106t20 -106t55 -84.5t84 -55.5t106 -20zM395 -12q-76 0 -141 27t-112.5 74.5t-74.5 112.5t-27 142q0 76 27 141t74.5 113t112.5 75t141 27t141.5 -27t112.5 -75t74 -113
t27 -141q0 -77 -27 -142t-74 -112.5t-112.5 -74.5t-141.5 -27z" />
    <glyph glyph-name="ordfeminine" unicode="&#xaa;" horiz-adv-x="462" 
d="M317 603q0 23 -23 35t-58 12q-30 0 -55 -12t-36 -50l-78 41q17 44 56.5 73t113.5 29q86 0 126.5 -39.5t40.5 -109.5v-250h-87v38q-17 -18 -44 -32t-66 -14q-69 0 -108 35t-39 91q0 30 11 51.5t29 35.5t40.5 21.5t46.5 9.5l114 11q16 1 16 15v9zM200 491q-27 -3 -39 -14.5
t-12 -27.5q0 -40 61 -40q48 0 77.5 26.5t29.5 69.5z" />
    <glyph glyph-name="guillemotleft" unicode="&#xab;" horiz-adv-x="525" 
d="M231 32l-191 218l191 218l74 -67l-136 -151l136 -152zM441 32l-191 218l191 218l74 -67l-135 -151l135 -152z" />
    <glyph glyph-name="logicalnot" unicode="&#xac;" 
d="M102 425h495v-279h-109v169h-386v110z" />
    <glyph glyph-name="softhyphen" unicode="&#xad;" horiz-adv-x="529" 
d="M80 364h369v-114h-369v114z" />
    <glyph glyph-name="registered" unicode="&#xae;" horiz-adv-x="780" 
d="M321 173h-63v357h140q54 0 88 -35t34 -89q0 -33 -14 -60.5t-39 -43.5l105 -129h-81l-89 110h-81v-110zM386 401l38 -49q14 8 24 22t10 32q0 27 -18 43.5t-42 16.5h-77v-120h30l-13 16zM395 78q57 0 106 20t84 55.5t55 84.5t20 106t-20 106t-55 84.5t-84 55.5t-106 20
t-106 -20t-84 -55.5t-55 -84.5t-20 -106t20 -106t55 -84.5t84 -55.5t106 -20zM395 -12q-76 0 -141 27t-112.5 74.5t-74.5 112.5t-27 142q0 76 27 141t74.5 113t112.5 75t141 27t141.5 -27t112.5 -75t74 -113t27 -141q0 -77 -27 -142t-74 -112.5t-112.5 -74.5t-141.5 -27z
" />
    <glyph glyph-name="macron" unicode="&#xaf;" horiz-adv-x="310" 
d="M10 692h290v-90h-290v90z" />
    <glyph glyph-name="degree" unicode="&#xb0;" 
d="M484 584q0 -29 -10.5 -53t-28.5 -42t-42.5 -28t-52.5 -10q-29 0 -53.5 10t-42.5 28t-28 42t-10 53t10 53.5t28 42.5t42.5 28t53.5 10q28 0 52.5 -10t42.5 -28t28.5 -42.5t10.5 -53.5zM412 584q0 29 -16.5 48t-45.5 19t-45.5 -19t-16.5 -48q0 -28 16.5 -47t45.5 -19
t45.5 19t16.5 47z" />
    <glyph glyph-name="plusminus" unicode="&#xb1;" 
d="M99 484h195v130h112v-130h195v-110h-195v-130h-112v130h-195v110zM99 191h502v-106h-502v106z" />
    <glyph glyph-name="twosuperior" unicode="&#xb2;" horiz-adv-x="428" 
d="M60 700q20 37 56.5 63.5t92.5 26.5q31 0 57 -9t45 -26t29.5 -40.5t10.5 -51.5q0 -38 -16 -66.5t-36 -48.5l-102 -98h154v-80h-281v64l171 168q11 11 19 26.5t8 30.5q0 20 -15.5 35.5t-44.5 15.5q-31 0 -51 -18.5t-34 -44.5z" />
    <glyph glyph-name="threesuperior" unicode="&#xb3;" horiz-adv-x="407" 
d="M261 664q0 20 -15.5 33t-40.5 13q-23 0 -44 -12.5t-36 -42.5l-61 50q8 16 20.5 31t30 27t39.5 19.5t49 7.5q61 0 99.5 -33.5t38.5 -87.5q0 -35 -17 -56t-38 -32q23 -11 39 -34.5t16 -58.5q0 -51 -36 -84.5t-99 -33.5q-54 0 -90.5 25.5t-55.5 68.5l67 51q13 -29 31.5 -47
t46.5 -18q24 0 40 11.5t16 32.5q0 20 -15.5 33t-49.5 13h-24v79h24q33 0 49 12t16 33z" />
    <glyph glyph-name="acute" unicode="&#xb4;" horiz-adv-x="296" 
d="M234 769l52 -83l-225 -141l-51 79z" />
    <glyph glyph-name="uni00B5" unicode="&#xb5;" 
d="M337 92q33 0 56 12.5t38 35t22 53t7 65.5v242h106v-500h-106v56q-25 -29 -59.5 -48.5t-81.5 -19.5q-24 0 -44.5 4t-37.5 11v-203h-103v700h108v-292q0 -53 21 -84.5t74 -31.5z" />
    <glyph glyph-name="paragraph" unicode="&#xb6;" horiz-adv-x="518" 
d="M488 -127h-100v719h-72v-719h-100v438q-38 2 -70.5 17.5t-56 41t-36.5 59t-13 71.5q0 40 14.5 74.5t39.5 60t59.5 40t75.5 14.5h259v-816z" />
    <glyph glyph-name="periodcentered" unicode="&#xb7;" horiz-adv-x="342" 
d="M91 320q0 37 25 62.5t62 25.5t62.5 -25.5t25.5 -62.5t-25.5 -62t-62.5 -25t-62 25t-25 62z" />
    <glyph glyph-name="cedilla" unicode="&#xb8;" horiz-adv-x="195" 
d="M115 38q38 -42 54 -76t16 -63q0 -48 -30 -73.5t-70 -25.5q-21 0 -39.5 5t-35.5 13v85q19 -7 32.5 -10.5t26.5 -3.5q8 0 16 6t8 20q0 19 -16 48.5t-60 74.5h98z" />
    <glyph glyph-name="onesuperior" unicode="&#xb9;" horiz-adv-x="343" 
d="M263 790v-420h-80v300l-84 -81l-58 56l151 145h71z" />
    <glyph glyph-name="ordmasculine" unicode="&#xba;" horiz-adv-x="496" 
d="M248 729q43 0 81.5 -16t66.5 -43.5t44.5 -65t16.5 -79.5t-16.5 -79.5t-44.5 -65t-66.5 -43.5t-81.5 -16q-44 0 -82 16t-66 43.5t-44.5 65t-16.5 79.5t16.5 79.5t44.5 65t66 43.5t82 16zM248 411q24 0 44.5 9t35.5 24t24 36t9 45t-9 45t-24 36t-35.5 24t-44.5 9t-44.5 -9
t-35.5 -24t-24 -36t-9 -45t9 -45t24 -36t35.5 -24t44.5 -9z" />
    <glyph glyph-name="guillemotright" unicode="&#xbb;" horiz-adv-x="526" 
d="M231 98l136 152l-136 151l74 67l191 -218l-191 -218zM20 98l136 152l-136 151l74 67l191 -218l-191 -218z" />
    <glyph glyph-name="onequarter" unicode="&#xbc;" horiz-adv-x="900" 
d="M155 43l523 659l54 -44l-523 -660zM270 700v-420h-80v300l-84 -81l-58 56l151 145h71zM852 161v-80h-87v-81h-80v81h-233v67l249 272h64v-259h87zM685 290l-121 -129h121v129z" />
    <glyph glyph-name="onehalf" unicode="&#xbd;" horiz-adv-x="900" 
d="M157 43l523 659l54 -44l-523 -660zM265 700v-420h-80v300l-84 -81l-58 56l151 145h71zM566 330q20 37 56.5 63.5t92.5 26.5q31 0 57 -9t45 -26t29.5 -40.5t10.5 -51.5q0 -38 -16 -66.5t-36 -48.5l-102 -98h154v-80h-281v64l171 168q11 11 19 26.5t8 30.5q0 20 -15.5 35.5
t-44.5 15.5q-31 0 -51 -18.5t-34 -44.5z" />
    <glyph glyph-name="threequarters" unicode="&#xbe;" horiz-adv-x="900" 
d="M162 43l523 659l54 -44l-523 -660zM844 161v-80h-87v-81h-80v81h-233v67l249 272h64v-259h87zM677 290l-121 -129h121v129zM246 574q0 20 -15.5 33t-40.5 13q-23 0 -44 -12.5t-36 -42.5l-61 50q8 16 20.5 31t30 27t39.5 19.5t49 7.5q61 0 99.5 -33.5t38.5 -87.5
q0 -35 -17 -56t-38 -32q23 -11 39 -34.5t16 -58.5q0 -51 -36 -84.5t-99 -33.5q-54 0 -90.5 25.5t-55.5 68.5l67 51q13 -29 31.5 -47t46.5 -18q24 0 40 11.5t16 32.5q0 20 -15.5 33t-49.5 13h-24v79h24q33 0 49 12t16 33z" />
    <glyph glyph-name="questiondown" unicode="&#xbf;" horiz-adv-x="495" 
d="M301 266q0 -40 -11 -69t-27 -50.5t-35.5 -38t-35.5 -33t-27 -35.5t-11 -44q0 -32 22.5 -57t70.5 -25q51 0 77 29t26 91h114q0 -53 -15 -96t-43 -74t-68 -47.5t-91 -16.5q-47 0 -85 13.5t-65 38.5t-42 61.5t-15 82.5q0 37 11 63.5t27.5 48t36 38.5t36 35t27.5 38t11 47v27
h112v-27zM328 430q0 -35 -24 -59t-59 -24t-59 24t-24 59t24 58.5t59 23.5t59 -23.5t24 -58.5z" />
    <glyph glyph-name="Agrave" unicode="&#xc0;" horiz-adv-x="782" 
d="M645 0l-54 118h-401l-54 -118h-126l326 700h110l326 -700h-127zM244 232h294l-147 316zM532 824l-51 -79l-225 141l52 83z" />
    <glyph glyph-name="Aacute" unicode="&#xc1;" horiz-adv-x="782" 
d="M645 0l-54 118h-401l-54 -118h-126l326 700h110l326 -700h-127zM244 232h294l-147 316zM482 969l52 -83l-225 -141l-51 79z" />
    <glyph glyph-name="Acircumflex" unicode="&#xc2;" horiz-adv-x="782" 
d="M645 0l-54 118h-401l-54 -118h-126l326 700h110l326 -700h-127zM244 232h294l-147 316zM268 740l-63 69l186 159l186 -159l-63 -70l-123 107z" />
    <glyph glyph-name="Atilde" unicode="&#xc3;" horiz-adv-x="782" 
d="M645 0l-54 118h-401l-54 -118h-126l326 700h110l326 -700h-127zM244 232h294l-147 316zM326 912q19 0 35 -6t29 -13.5t24.5 -13.5t22.5 -6q14 0 33 11.5t37 28.5l52 -65q-12 -12 -26 -23.5t-29.5 -21t-32.5 -15.5t-34 -6q-22 0 -38 6t-28.5 13.5t-23 13.5t-21.5 6
q-14 0 -33 -11.5t-36 -28.5l-52 65q12 12 26 23.5t29.5 21t32 15.5t33.5 6z" />
    <glyph glyph-name="Adieresis" unicode="&#xc4;" horiz-adv-x="782" 
d="M140 724q0 33 22.5 55.5t55.5 22.5t55.5 -22.5t22.5 -55.5t-22.5 -55.5t-55.5 -22.5t-55.5 22.5t-22.5 55.5zM486 724q0 33 22.5 55.5t55.5 22.5q32 0 54.5 -22.5t22.5 -55.5t-22.5 -55.5t-54.5 -22.5q-33 0 -55.5 22.5t-22.5 55.5zM645 0l-54 118h-401l-54 -118h-126
l326 700h110l326 -700h-127zM244 232h294l-147 316z" />
    <glyph glyph-name="Aring" unicode="&#xc5;" horiz-adv-x="782" 
d="M645 0l-54 118h-401l-54 -118h-126l326 700h110l326 -700h-127zM244 232h294l-147 316zM344 880q0 -22 13 -34.5t34 -12.5q22 0 34.5 12.5t12.5 34.5t-12.5 34.5t-34.5 12.5q-21 0 -34 -12.5t-13 -34.5zM260 880q0 28 10 52t27.5 41.5t41.5 27.5t52 10t52 -10t41.5 -27.5
t27.5 -41.5t10 -52t-10 -52t-27.5 -41.5t-41.5 -27.5t-52 -10t-52 10t-41.5 27.5t-27.5 41.5t-10 52z" />
    <glyph glyph-name="AE" unicode="&#xc6;" horiz-adv-x="979" 
d="M483 0v118h-268l-83 -118h-144l507 700h430v-113h-327v-180h327v-114h-327v-180h327v-113h-442zM298 232h186v256z" />
    <glyph glyph-name="Ccedilla" unicode="&#xc7;" horiz-adv-x="666" 
d="M598 484q-38 48 -89 75t-109 27q-52 0 -95.5 -17t-74.5 -48t-48.5 -74.5t-17.5 -96.5t17.5 -96.5t48.5 -74.5t74.5 -48t95.5 -17q26 0 59.5 8t69.5 28l20 -117q-54 -25 -108 -31q21 -29 30.5 -54.5t9.5 -48.5q0 -48 -30 -73.5t-70 -25.5q-21 0 -39.5 5t-35.5 13v85
q19 -7 32.5 -10.5t26.5 -3.5q8 0 16 6t8 20q0 15 -10 37t-36 52q-64 10 -117.5 40t-92.5 75.5t-61 104t-22 126.5q0 75 26.5 139t73.5 111t111 73.5t139 26.5t137.5 -28t113.5 -79z" />
    <glyph glyph-name="Egrave" unicode="&#xc8;" horiz-adv-x="576" 
d="M80 700h441v-114h-327v-179h327v-114h-327v-179h327v-114h-441v700zM437 824l-51 -79l-225 141l52 83z" />
    <glyph glyph-name="Eacute" unicode="&#xc9;" horiz-adv-x="576" 
d="M80 700h441v-114h-327v-179h327v-114h-327v-179h327v-114h-441v700zM387 969l52 -83l-225 -141l-51 79z" />
    <glyph glyph-name="Ecircumflex" unicode="&#xca;" horiz-adv-x="576" 
d="M80 700h441v-114h-327v-179h327v-114h-327v-179h327v-114h-441v700zM173 740l-63 69l186 159l186 -159l-63 -70l-123 107z" />
    <glyph glyph-name="Edieresis" unicode="&#xcb;" horiz-adv-x="576" 
d="M80 700h441v-114h-327v-179h327v-114h-327v-179h327v-114h-441v700zM108 834q0 33 22.5 55.5t55.5 22.5t55.5 -22.5t22.5 -55.5t-22.5 -55.5t-55.5 -22.5t-55.5 22.5t-22.5 55.5zM328 834q0 33 22.5 55.5t55.5 22.5q32 0 54.5 -22.5t22.5 -55.5t-22.5 -55.5t-54.5 -22.5
q-33 0 -55.5 22.5t-22.5 55.5z" />
    <glyph glyph-name="Igrave" unicode="&#xcc;" horiz-adv-x="274" 
d="M80 0v700h114v-700h-114zM278 824l-51 -79l-225 141l52 83z" />
    <glyph glyph-name="Iacute" unicode="&#xcd;" horiz-adv-x="274" 
d="M80 0v700h114v-700h-114zM228 969l52 -83l-225 -141l-51 79z" />
    <glyph glyph-name="Icircumflex" unicode="&#xce;" horiz-adv-x="274" 
d="M80 0v700h114v-700h-114zM14 740l-63 69l186 159l186 -159l-63 -70l-123 107z" />
    <glyph glyph-name="Idieresis" unicode="&#xcf;" horiz-adv-x="274" 
d="M80 0v700h114v-700h-114zM-97 728q0 33 22.5 55.5t55.5 22.5t55.5 -22.5t22.5 -55.5t-22.5 -55.5t-55.5 -22.5t-55.5 22.5t-22.5 55.5zM217 728q0 33 22.5 55.5t55.5 22.5q32 0 54.5 -22.5t22.5 -55.5t-22.5 -55.5t-54.5 -22.5q-33 0 -55.5 22.5t-22.5 55.5z" />
    <glyph glyph-name="Eth" unicode="&#xd0;" horiz-adv-x="724" 
d="M0 405h80v295h245q74 0 138 -26.5t111 -73t73.5 -110.5t26.5 -140t-26.5 -140t-73.5 -110.5t-111 -73t-138 -26.5h-245v301h-80v104zM194 586v-181h145v-104h-145v-187h131q51 0 94 17.5t74.5 49t49 74.5t17.5 95t-17.5 95t-49 74.5t-74.5 49t-94 17.5h-131z" />
    <glyph glyph-name="Ntilde" unicode="&#xd1;" horiz-adv-x="791" 
d="M608 0l-414 503v-503h-114v700h101l416 -508v508h114v-700h-103zM345 912q19 0 35 -6t29 -13.5t24.5 -13.5t22.5 -6q14 0 33 11.5t37 28.5l52 -65q-12 -12 -26 -23.5t-29.5 -21t-32.5 -15.5t-34 -6q-22 0 -38 6t-28.5 13.5t-23 13.5t-21.5 6q-14 0 -33 -11.5t-36 -28.5
l-52 65q12 12 26 23.5t29.5 21t32 15.5t33.5 6z" />
    <glyph glyph-name="Ograve" unicode="&#xd2;" horiz-adv-x="798" 
d="M399 700q75 0 139 -26.5t110.5 -73.5t73 -111t26.5 -139t-26.5 -139t-73 -111t-110.5 -73.5t-139 -26.5t-139 26.5t-110.5 73.5t-73 111t-26.5 139t26.5 139t73 111t110.5 73.5t139 26.5zM399 114q51 0 94 17.5t74.5 49t49 75t17.5 94.5t-17.5 94t-49 74.5t-74.5 49.5
t-94 18t-94 -18t-74.5 -49.5t-49 -74.5t-17.5 -94t17.5 -94.5t49 -75t74.5 -49t94 -17.5zM540 824l-51 -79l-225 141l52 83z" />
    <glyph glyph-name="Oacute" unicode="&#xd3;" horiz-adv-x="798" 
d="M399 700q75 0 139 -26.5t110.5 -73.5t73 -111t26.5 -139t-26.5 -139t-73 -111t-110.5 -73.5t-139 -26.5t-139 26.5t-110.5 73.5t-73 111t-26.5 139t26.5 139t73 111t110.5 73.5t139 26.5zM399 114q51 0 94 17.5t74.5 49t49 75t17.5 94.5t-17.5 94t-49 74.5t-74.5 49.5
t-94 18t-94 -18t-74.5 -49.5t-49 -74.5t-17.5 -94t17.5 -94.5t49 -75t74.5 -49t94 -17.5zM490 969l52 -83l-225 -141l-51 79z" />
    <glyph glyph-name="Ocircumflex" unicode="&#xd4;" horiz-adv-x="798" 
d="M399 700q75 0 139 -26.5t110.5 -73.5t73 -111t26.5 -139t-26.5 -139t-73 -111t-110.5 -73.5t-139 -26.5t-139 26.5t-110.5 73.5t-73 111t-26.5 139t26.5 139t73 111t110.5 73.5t139 26.5zM399 114q51 0 94 17.5t74.5 49t49 75t17.5 94.5t-17.5 94t-49 74.5t-74.5 49.5
t-94 18t-94 -18t-74.5 -49.5t-49 -74.5t-17.5 -94t17.5 -94.5t49 -75t74.5 -49t94 -17.5zM276 740l-63 69l186 159l186 -159l-63 -70l-123 107z" />
    <glyph glyph-name="Otilde" unicode="&#xd5;" horiz-adv-x="798" 
d="M399 700q75 0 139 -26.5t110.5 -73.5t73 -111t26.5 -139t-26.5 -139t-73 -111t-110.5 -73.5t-139 -26.5t-139 26.5t-110.5 73.5t-73 111t-26.5 139t26.5 139t73 111t110.5 73.5t139 26.5zM399 114q51 0 94 17.5t74.5 49t49 75t17.5 94.5t-17.5 94t-49 74.5t-74.5 49.5
t-94 18t-94 -18t-74.5 -49.5t-49 -74.5t-17.5 -94t17.5 -94.5t49 -75t74.5 -49t94 -17.5zM334 912q19 0 35 -6t29 -13.5t24.5 -13.5t22.5 -6q14 0 33 11.5t37 28.5l52 -65q-12 -12 -26 -23.5t-29.5 -21t-32.5 -15.5t-34 -6q-22 0 -38 6t-28.5 13.5t-23 13.5t-21.5 6
q-14 0 -33 -11.5t-36 -28.5l-52 65q12 12 26 23.5t29.5 21t32 15.5t33.5 6z" />
    <glyph glyph-name="Odieresis" unicode="&#xd6;" horiz-adv-x="798" 
d="M41 724q0 33 22.5 55.5t55.5 22.5t55.5 -22.5t22.5 -55.5t-22.5 -55.5t-55.5 -22.5t-55.5 22.5t-22.5 55.5zM601 724q0 33 22.5 55.5t55.5 22.5q32 0 54.5 -22.5t22.5 -55.5t-22.5 -55.5t-54.5 -22.5q-33 0 -55.5 22.5t-22.5 55.5zM399 700q75 0 139 -26.5t110.5 -73.5
t73 -111t26.5 -139t-26.5 -139t-73 -111t-110.5 -73.5t-139 -26.5t-139 26.5t-110.5 73.5t-73 111t-26.5 139t26.5 139t73 111t110.5 73.5t139 26.5zM399 114q51 0 94 17.5t74.5 49t49 75t17.5 94.5t-17.5 94t-49 74.5t-74.5 49.5t-94 18t-94 -18t-74.5 -49.5t-49 -74.5
t-17.5 -94t17.5 -94.5t49 -75t74.5 -49t94 -17.5z" />
    <glyph glyph-name="multiply" unicode="&#xd7;" 
d="M182 562l167 -167l168 168l76 -77l-167 -168l167 -166l-76 -77l-168 168l-167 -167l-75 76l166 166l-166 168z" />
    <glyph glyph-name="Oslash" unicode="&#xd8;" horiz-adv-x="798" 
d="M399 700q52 0 98.5 -13.5t86.5 -36.5l60 71l71 -62l-58 -68q43 -47 67 -108t24 -133q0 -75 -26.5 -139t-73 -111t-110.5 -73.5t-139 -26.5q-56 0 -104.5 14.5t-90.5 41.5l-65 -77l-73 60l67 79q-39 46 -61 104.5t-22 127.5q0 75 26.5 139t73 111t110.5 73.5t139 26.5z
M399 114q51 0 94 17.5t74.5 49t49 75t17.5 94.5q0 45 -13.5 83.5t-38.5 68.5l-303 -358q26 -14 56 -22t64 -8zM164 350q0 -42 11.5 -78t32.5 -65l300 354q-50 25 -109 25q-51 0 -94 -18t-74.5 -49.5t-49 -74.5t-17.5 -94z" />
    <glyph glyph-name="Ugrave" unicode="&#xd9;" horiz-adv-x="783" 
d="M70 700h114v-379q0 -44 16 -82t43.5 -66t65.5 -44t82 -16q45 0 83 16t65.5 44t43.5 66t16 82v379h114v-379q0 -69 -24.5 -127.5t-68 -101.5t-102 -67.5t-127.5 -24.5q-68 0 -126.5 24.5t-102 67.5t-68 101.5t-24.5 127.5v379zM532 824l-51 -79l-225 141l52 83z" />
    <glyph glyph-name="Uacute" unicode="&#xda;" horiz-adv-x="783" 
d="M70 700h114v-379q0 -44 16 -82t43.5 -66t65.5 -44t82 -16q45 0 83 16t65.5 44t43.5 66t16 82v379h114v-379q0 -69 -24.5 -127.5t-68 -101.5t-102 -67.5t-127.5 -24.5q-68 0 -126.5 24.5t-102 67.5t-68 101.5t-24.5 127.5v379zM482 969l52 -83l-225 -141l-51 79z" />
    <glyph glyph-name="Ucircumflex" unicode="&#xdb;" horiz-adv-x="783" 
d="M70 700h114v-379q0 -44 16 -82t43.5 -66t65.5 -44t82 -16q45 0 83 16t65.5 44t43.5 66t16 82v379h114v-379q0 -69 -24.5 -127.5t-68 -101.5t-102 -67.5t-127.5 -24.5q-68 0 -126.5 24.5t-102 67.5t-68 101.5t-24.5 127.5v379zM268 740l-63 69l186 159l186 -159l-63 -70
l-123 107z" />
    <glyph glyph-name="Udieresis" unicode="&#xdc;" horiz-adv-x="783" 
d="M70 700h114v-379q0 -44 16 -82t43.5 -66t65.5 -44t82 -16q45 0 83 16t65.5 44t43.5 66t16 82v379h114v-379q0 -69 -24.5 -127.5t-68 -101.5t-102 -67.5t-127.5 -24.5q-68 0 -126.5 24.5t-102 67.5t-68 101.5t-24.5 127.5v379zM204 724q0 33 22.5 55.5t55.5 22.5
t55.5 -22.5t22.5 -55.5t-22.5 -55.5t-55.5 -22.5t-55.5 22.5t-22.5 55.5zM424 724q0 33 22.5 55.5t55.5 22.5q32 0 54.5 -22.5t22.5 -55.5t-22.5 -55.5t-54.5 -22.5q-33 0 -55.5 22.5t-22.5 55.5z" />
    <glyph glyph-name="Yacute" unicode="&#xdd;" horiz-adv-x="690" 
d="M288 0v292l-283 408h139l201 -291l201 291h139l-283 -408v-292h-114zM456 969l52 -83l-225 -141l-51 79z" />
    <glyph glyph-name="Thorn" unicode="&#xde;" horiz-adv-x="619" 
d="M195 124v-124h-115v700h114v-124h134q50 0 92.5 -17t73 -47t48 -71.5t17.5 -90.5t-17.5 -90.5t-48 -71.5t-73 -47t-92.5 -17h-133zM316 238q52 0 88 29t36 83t-36 83t-88 29h-121v-224h121z" />
    <glyph glyph-name="germandbls" unicode="&#xdf;" horiz-adv-x="573" 
d="M61 470q0 51 12.5 93.5t39 73t67.5 48t97 17.5q53 0 92 -14.5t64.5 -39.5t37.5 -57.5t12 -69.5q0 -42 -17 -77t-48 -57q51 -18 84.5 -63t33.5 -118q0 -51 -17 -91t-48.5 -67t-75 -41t-96.5 -14q-16 0 -34.5 1t-38.5 3v101q12 -1 23 -1q10 -1 20.5 -1h20.5q30 0 55 6.5
t43.5 20t29 34.5t10.5 49q0 30 -13.5 52.5t-37 37.5t-55.5 22.5t-69 8.5v97q60 5 91.5 28.5t31.5 68.5q0 35 -27.5 56.5t-75.5 21.5t-76 -32.5t-28 -96.5v-541h-108v541z" />
    <glyph glyph-name="agrave" unicode="&#xe0;" horiz-adv-x="521" 
d="M368 356q0 25 -25.5 40.5t-69.5 15.5q-45 0 -75 -16.5t-44 -62.5l-97 50q10 30 27 53.5t42.5 40.5t60 26t80.5 9q108 0 158.5 -51t50.5 -139v-322h-108v55q-22 -26 -55.5 -45.5t-87.5 -19.5q-41 0 -74 12t-56.5 34t-36.5 51t-13 64q0 37 13.5 64.5t35 45.5t50 28t58.5 13
l143 13q23 2 23 22v19zM219 207q-33 -4 -48.5 -20t-15.5 -36q0 -26 21.5 -41.5t62.5 -15.5q26 0 49.5 9t41 24.5t28 35.5t10.5 42v20zM410 624l-51 -79l-225 141l52 83z" />
    <glyph glyph-name="aacute" unicode="&#xe1;" horiz-adv-x="521" 
d="M368 356q0 25 -25.5 40.5t-69.5 15.5q-45 0 -75 -16.5t-44 -62.5l-97 50q10 30 27 53.5t42.5 40.5t60 26t80.5 9q108 0 158.5 -51t50.5 -139v-322h-108v55q-22 -26 -55.5 -45.5t-87.5 -19.5q-41 0 -74 12t-56.5 34t-36.5 51t-13 64q0 37 13.5 64.5t35 45.5t50 28t58.5 13
l143 13q23 2 23 22v19zM219 207q-33 -4 -48.5 -20t-15.5 -36q0 -26 21.5 -41.5t62.5 -15.5q26 0 49.5 9t41 24.5t28 35.5t10.5 42v20zM358 769l52 -83l-225 -141l-51 79z" />
    <glyph glyph-name="acircumflex" unicode="&#xe2;" horiz-adv-x="521" 
d="M368 356q0 25 -25.5 40.5t-69.5 15.5q-45 0 -75 -16.5t-44 -62.5l-97 50q10 30 27 53.5t42.5 40.5t60 26t80.5 9q108 0 158.5 -51t50.5 -139v-322h-108v55q-22 -26 -55.5 -45.5t-87.5 -19.5q-41 0 -74 12t-56.5 34t-36.5 51t-13 64q0 37 13.5 64.5t35 45.5t50 28t58.5 13
l143 13q23 2 23 22v19zM219 207q-33 -4 -48.5 -20t-15.5 -36q0 -26 21.5 -41.5t62.5 -15.5q26 0 49.5 9t41 24.5t28 35.5t10.5 42v20zM149 540l-63 69l186 159l186 -159l-63 -70l-123 107z" />
    <glyph glyph-name="atilde" unicode="&#xe3;" horiz-adv-x="521" 
d="M368 356q0 25 -25.5 40.5t-69.5 15.5q-45 0 -75 -16.5t-44 -62.5l-97 50q10 30 27 53.5t42.5 40.5t60 26t80.5 9q108 0 158.5 -51t50.5 -139v-322h-108v55q-22 -26 -55.5 -45.5t-87.5 -19.5q-41 0 -74 12t-56.5 34t-36.5 51t-13 64q0 37 13.5 64.5t35 45.5t50 28t58.5 13
l143 13q23 2 23 22v19zM219 207q-33 -4 -48.5 -20t-15.5 -36q0 -26 21.5 -41.5t62.5 -15.5q26 0 49.5 9t41 24.5t28 35.5t10.5 42v20zM216 712q19 0 35 -6t29 -13.5t24.5 -13.5t22.5 -6q14 0 33 11.5t37 28.5l52 -65q-12 -12 -26 -23.5t-29.5 -21t-32.5 -15.5t-34 -6
q-22 0 -38 6t-28.5 13.5t-23 13.5t-21.5 6q-14 0 -33 -11.5t-36 -28.5l-52 65q12 12 26 23.5t29.5 21t32 15.5t33.5 6z" />
    <glyph glyph-name="adieresis" unicode="&#xe4;" horiz-adv-x="521" 
d="M368 356q0 25 -25.5 40.5t-69.5 15.5q-45 0 -75 -16.5t-44 -62.5l-97 50q10 30 27 53.5t42.5 40.5t60 26t80.5 9q108 0 158.5 -51t50.5 -139v-322h-108v55q-22 -26 -55.5 -45.5t-87.5 -19.5q-41 0 -74 12t-56.5 34t-36.5 51t-13 64q0 37 13.5 64.5t35 45.5t50 28t58.5 13
l143 13q23 2 23 22v19zM219 207q-33 -4 -48.5 -20t-15.5 -36q0 -26 21.5 -41.5t62.5 -15.5q26 0 49.5 9t41 24.5t28 35.5t10.5 42v20zM84 634q0 33 22.5 55.5t55.5 22.5t55.5 -22.5t22.5 -55.5t-22.5 -55.5t-55.5 -22.5t-55.5 22.5t-22.5 55.5zM304 634q0 33 22.5 55.5
t55.5 22.5q32 0 54.5 -22.5t22.5 -55.5t-22.5 -55.5t-54.5 -22.5q-33 0 -55.5 22.5t-22.5 55.5z" />
    <glyph glyph-name="aring" unicode="&#xe5;" horiz-adv-x="521" 
d="M368 356q0 25 -25.5 40.5t-69.5 15.5q-45 0 -75 -16.5t-44 -62.5l-97 50q10 30 27 53.5t42.5 40.5t60 26t80.5 9q108 0 158.5 -51t50.5 -139v-322h-108v55q-22 -26 -55.5 -45.5t-87.5 -19.5q-41 0 -74 12t-56.5 34t-36.5 51t-13 64q0 37 13.5 64.5t35 45.5t50 28t58.5 13
l143 13q23 2 23 22v19zM219 207q-33 -4 -48.5 -20t-15.5 -36q0 -26 21.5 -41.5t62.5 -15.5q26 0 49.5 9t41 24.5t28 35.5t10.5 42v20zM224 680q0 -22 13 -34.5t34 -12.5q22 0 34.5 12.5t12.5 34.5t-12.5 34.5t-34.5 12.5q-21 0 -34 -12.5t-13 -34.5zM140 680q0 28 10 52
t27.5 41.5t41.5 27.5t52 10t52 -10t41.5 -27.5t27.5 -41.5t10 -52t-10 -52t-27.5 -41.5t-41.5 -27.5t-52 -10t-52 10t-41.5 27.5t-27.5 41.5t-10 52z" />
    <glyph glyph-name="ae" unicode="&#xe6;" horiz-adv-x="856" 
d="M805 82q-17 -19 -37 -36t-44.5 -30t-55.5 -20.5t-71 -7.5q-58 0 -104.5 24.5t-76.5 66.5q-12 -17 -29 -32.5t-39.5 -28.5t-53 -20.5t-69.5 -7.5q-41 0 -74 12t-56.5 34t-36.5 51t-13 64q0 37 13.5 64.5t35 45.5t50 28t58.5 13l144 13q11 1 16.5 7.5t5.5 14.5v19
q0 25 -25.5 40.5t-69.5 15.5q-45 0 -75 -16.5t-44 -62.5l-97 50q21 59 70 94t142 35q57 0 99 -18.5t67 -48.5q29 32 71 49.5t96 17.5t96 -20t71.5 -55t45.5 -83t16 -103v-39h-361q6 -57 39.5 -88.5t85.5 -31.5q54 0 89.5 20t64.5 52zM219 207q-32 -4 -48 -20t-16 -36
q0 -26 21.5 -41.5t62.5 -15.5q26 0 49.5 9t41 24.5t28 35.5t10.5 42v20zM713 304q-9 49 -37.5 76.5t-79.5 27.5q-47 0 -77.5 -26.5t-40.5 -76.5z" />
    <glyph glyph-name="ccedilla" unicode="&#xe7;" horiz-adv-x="502" 
d="M30 250q0 58 20 106.5t54.5 83t81.5 53.5t102 19q60 0 107 -22t82 -59l-68 -83q-17 23 -49 41.5t-74 18.5q-29 0 -55.5 -10.5t-46 -30.5t-31 -49.5t-11.5 -67.5t11.5 -67.5t31 -49.5t46 -30.5t55.5 -10.5q42 0 74 18t54 43l63 -86q-21 -23 -55.5 -44.5t-82.5 -29.5
q18 -26 26 -49.5t8 -44.5q0 -48 -30 -73.5t-70 -25.5q-21 0 -39.5 5t-35.5 13v85q19 -7 32.5 -10.5t26.5 -3.5q8 0 16 6t8 20t-7.5 32t-27.5 44q-47 7 -86.5 28.5t-68.5 55t-45 78t-16 97.5z" />
    <glyph glyph-name="egrave" unicode="&#xe8;" horiz-adv-x="543" 
d="M492 82q-17 -19 -37.5 -36t-46.5 -30t-57.5 -20.5t-71.5 -7.5q-54 0 -99.5 19.5t-78.5 54t-52 83t-19 106.5q0 52 17 99.5t49.5 83.5t78.5 57t104 21q54 0 98.5 -20t75.5 -55t48 -83t17 -103v-39h-379q8 -58 47.5 -89t92.5 -31q54 0 90.5 20.5t65.5 53.5zM400 304
q-9 50 -39.5 77t-81.5 27t-85.5 -28t-46.5 -76h253zM439 624l-51 -79l-225 141l52 83z" />
    <glyph glyph-name="eacute" unicode="&#xe9;" horiz-adv-x="543" 
d="M492 82q-17 -19 -37.5 -36t-46.5 -30t-57.5 -20.5t-71.5 -7.5q-54 0 -99.5 19.5t-78.5 54t-52 83t-19 106.5q0 52 17 99.5t49.5 83.5t78.5 57t104 21q54 0 98.5 -20t75.5 -55t48 -83t17 -103v-39h-379q8 -58 47.5 -89t92.5 -31q54 0 90.5 20.5t65.5 53.5zM400 304
q-9 50 -39.5 77t-81.5 27t-85.5 -28t-46.5 -76h253zM367 769l52 -83l-225 -141l-51 79z" />
    <glyph glyph-name="ecircumflex" unicode="&#xea;" horiz-adv-x="543" 
d="M492 82q-17 -19 -37.5 -36t-46.5 -30t-57.5 -20.5t-71.5 -7.5q-54 0 -99.5 19.5t-78.5 54t-52 83t-19 106.5q0 52 17 99.5t49.5 83.5t78.5 57t104 21q54 0 98.5 -20t75.5 -55t48 -83t17 -103v-39h-379q8 -58 47.5 -89t92.5 -31q54 0 90.5 20.5t65.5 53.5zM400 304
q-9 50 -39.5 77t-81.5 27t-85.5 -28t-46.5 -76h253zM155 540l-63 69l186 159l186 -159l-63 -70l-123 107z" />
    <glyph glyph-name="edieresis" unicode="&#xeb;" horiz-adv-x="543" 
d="M492 82q-17 -19 -37.5 -36t-46.5 -30t-57.5 -20.5t-71.5 -7.5q-54 0 -99.5 19.5t-78.5 54t-52 83t-19 106.5q0 52 17 99.5t49.5 83.5t78.5 57t104 21q54 0 98.5 -20t75.5 -55t48 -83t17 -103v-39h-379q8 -58 47.5 -89t92.5 -31q54 0 90.5 20.5t65.5 53.5zM400 304
q-9 50 -39.5 77t-81.5 27t-85.5 -28t-46.5 -76h253zM89 634q0 33 22.5 55.5t55.5 22.5t55.5 -22.5t22.5 -55.5t-22.5 -55.5t-55.5 -22.5t-55.5 22.5t-22.5 55.5zM309 634q0 33 22.5 55.5t55.5 22.5q32 0 54.5 -22.5t22.5 -55.5t-22.5 -55.5t-54.5 -22.5q-33 0 -55.5 22.5
t-22.5 55.5z" />
    <glyph glyph-name="igrave" unicode="&#xec;" horiz-adv-x="256" 
d="M71 500h108v-500h-108v500zM266 624l-51 -79l-225 141l52 83z" />
    <glyph glyph-name="iacute" unicode="&#xed;" horiz-adv-x="256" 
d="M71 500h108v-500h-108v500zM214 769l52 -83l-225 -141l-51 79z" />
    <glyph glyph-name="icircumflex" unicode="&#xee;" horiz-adv-x="256" 
d="M71 500h108v-500h-108v500zM5 540l-63 69l186 159l186 -159l-63 -70l-123 107z" />
    <glyph glyph-name="idieresis" unicode="&#xef;" horiz-adv-x="256" 
d="M71 500h108v-500h-108v500zM-59 634q0 33 22.5 55.5t55.5 22.5t55.5 -22.5t22.5 -55.5t-22.5 -55.5t-55.5 -22.5t-55.5 22.5t-22.5 55.5zM161 634q0 33 22.5 55.5t55.5 22.5q32 0 54.5 -22.5t22.5 -55.5t-22.5 -55.5t-54.5 -22.5q-33 0 -55.5 22.5t-22.5 55.5z" />
    <glyph glyph-name="eth" unicode="&#xf0;" horiz-adv-x="578" 
d="M265 659q-42 25 -90 44l35 81q41 -14 75.5 -30.5t64.5 -36.5l88 60l50 -70l-69 -47q72 -74 100.5 -164.5t28.5 -182.5q0 -83 -19.5 -144t-55 -101.5t-84.5 -60t-107 -19.5q-54 0 -100.5 19t-80 53.5t-52.5 83t-19 106.5t19.5 106.5t53.5 83t79 53.5t96 19q15 0 34 -3
t39 -9.5t39.5 -18t37.5 -27.5q-13 46 -36 83.5t-55 67.5l-98 -67l-50 69zM438 251q0 33 -10 61.5t-29.5 49.5t-47.5 33.5t-64 12.5q-66 0 -105.5 -43t-39.5 -114q0 -35 10.5 -64.5t30 -50.5t46 -32.5t58.5 -11.5q31 0 58.5 11t48 31.5t32.5 50t12 66.5z" />
    <glyph glyph-name="ntilde" unicode="&#xf1;" horiz-adv-x="579" 
d="M302 408q-26 0 -48.5 -8t-40 -28.5t-27.5 -54t-10 -84.5v-233h-106v500h106v-51q26 29 62.5 46t81.5 17q51 0 86.5 -16.5t58.5 -46t33.5 -70t10.5 -87.5v-292h-108v292q0 53 -22.5 84.5t-76.5 31.5zM243 712q19 0 35 -6t29 -13.5t24.5 -13.5t22.5 -6q14 0 33 11.5
t37 28.5l52 -65q-12 -12 -26 -23.5t-29.5 -21t-32.5 -15.5t-34 -6q-22 0 -38 6t-28.5 13.5t-23 13.5t-21.5 6q-14 0 -33 -11.5t-36 -28.5l-52 65q12 12 26 23.5t29.5 21t32 15.5t33.5 6z" />
    <glyph glyph-name="ograve" unicode="&#xf2;" horiz-adv-x="582" 
d="M291 512q54 0 102 -20.5t83 -56t55.5 -83.5t20.5 -102t-20.5 -102t-55.5 -83.5t-83 -56t-102 -20.5t-102 20.5t-83 56t-55.5 83.5t-20.5 102t20.5 102t55.5 83.5t83 56t102 20.5zM291 92q33 0 60 12.5t47 34t31 50t11 61.5t-11 61.5t-31 50t-47 34t-60 12.5t-60 -12.5
t-47 -34t-31 -50t-11 -61.5t11 -61.5t31 -50t47 -34t60 -12.5zM429 624l-51 -79l-225 141l52 83z" />
    <glyph glyph-name="oacute" unicode="&#xf3;" horiz-adv-x="582" 
d="M291 512q54 0 102 -20.5t83 -56t55.5 -83.5t20.5 -102t-20.5 -102t-55.5 -83.5t-83 -56t-102 -20.5t-102 20.5t-83 56t-55.5 83.5t-20.5 102t20.5 102t55.5 83.5t83 56t102 20.5zM291 92q33 0 60 12.5t47 34t31 50t11 61.5t-11 61.5t-31 50t-47 34t-60 12.5t-60 -12.5
t-47 -34t-31 -50t-11 -61.5t11 -61.5t31 -50t47 -34t60 -12.5zM387 769l52 -83l-225 -141l-51 79z" />
    <glyph glyph-name="ocircumflex" unicode="&#xf4;" horiz-adv-x="582" 
d="M291 512q54 0 102 -20.5t83 -56t55.5 -83.5t20.5 -102t-20.5 -102t-55.5 -83.5t-83 -56t-102 -20.5t-102 20.5t-83 56t-55.5 83.5t-20.5 102t20.5 102t55.5 83.5t83 56t102 20.5zM291 92q33 0 60 12.5t47 34t31 50t11 61.5t-11 61.5t-31 50t-47 34t-60 12.5t-60 -12.5
t-47 -34t-31 -50t-11 -61.5t11 -61.5t31 -50t47 -34t60 -12.5zM168 540l-63 69l186 159l186 -159l-63 -70l-123 107z" />
    <glyph glyph-name="otilde" unicode="&#xf5;" horiz-adv-x="582" 
d="M291 512q54 0 102 -20.5t83 -56t55.5 -83.5t20.5 -102t-20.5 -102t-55.5 -83.5t-83 -56t-102 -20.5t-102 20.5t-83 56t-55.5 83.5t-20.5 102t20.5 102t55.5 83.5t83 56t102 20.5zM291 92q33 0 60 12.5t47 34t31 50t11 61.5t-11 61.5t-31 50t-47 34t-60 12.5t-60 -12.5
t-47 -34t-31 -50t-11 -61.5t11 -61.5t31 -50t47 -34t60 -12.5zM235 712q19 0 35 -6t29 -13.5t24.5 -13.5t22.5 -6q14 0 33 11.5t37 28.5l52 -65q-12 -12 -26 -23.5t-29.5 -21t-32.5 -15.5t-34 -6q-22 0 -38 6t-28.5 13.5t-23 13.5t-21.5 6q-14 0 -33 -11.5t-36 -28.5l-52 65
q12 12 26 23.5t29.5 21t32 15.5t33.5 6z" />
    <glyph glyph-name="odieresis" unicode="&#xf6;" horiz-adv-x="582" 
d="M291 512q54 0 102 -20.5t83 -56t55.5 -83.5t20.5 -102t-20.5 -102t-55.5 -83.5t-83 -56t-102 -20.5t-102 20.5t-83 56t-55.5 83.5t-20.5 102t20.5 102t55.5 83.5t83 56t102 20.5zM291 92q33 0 60 12.5t47 34t31 50t11 61.5t-11 61.5t-31 50t-47 34t-60 12.5t-60 -12.5
t-47 -34t-31 -50t-11 -61.5t11 -61.5t31 -50t47 -34t60 -12.5zM103 634q0 33 22.5 55.5t55.5 22.5t55.5 -22.5t22.5 -55.5t-22.5 -55.5t-55.5 -22.5t-55.5 22.5t-22.5 55.5zM323 634q0 33 22.5 55.5t55.5 22.5q32 0 54.5 -22.5t22.5 -55.5t-22.5 -55.5t-54.5 -22.5
q-33 0 -55.5 22.5t-22.5 55.5z" />
    <glyph glyph-name="divide" unicode="&#xf7;" 
d="M77 375h545v-110h-545v110zM253 132q0 38 25 63t62 25t62.5 -25t25.5 -63q0 -37 -25.5 -62t-62.5 -25t-62 25t-25 62zM253 507q0 37 25 62.5t62 25.5t62.5 -25.5t25.5 -62.5t-25.5 -62t-62.5 -25t-62 25t-25 62z" />
    <glyph glyph-name="oslash" unicode="&#xf8;" horiz-adv-x="583" 
d="M291 512q38 0 72 -10t64 -28l40 47l70 -62l-40 -48q26 -33 40.5 -74t14.5 -87q0 -54 -20.5 -102t-55.5 -83.5t-83 -56t-102 -20.5q-35 0 -66.5 8.5t-59.5 23.5l-35 -41l-72 60l34 40q-29 35 -45.5 78t-16.5 93q0 54 20.5 102t55.5 83.5t83 56t102 20.5zM142 250
q0 -47 22 -86l194 228q-32 16 -67 16q-33 0 -60 -12.5t-47 -34t-31 -50t-11 -61.5zM291 92q33 0 60 12.5t47 34t31 50t11 61.5q0 39 -17 75l-188 -223q24 -10 56 -10z" />
    <glyph glyph-name="ugrave" unicode="&#xf9;" horiz-adv-x="572" 
d="M273 92q33 0 56 12.5t38 35t22 53t7 65.5v242h106v-500h-106v56q-25 -29 -59.5 -48.5t-81.5 -19.5q-51 0 -86 16.5t-57 46t-32 70t-10 87.5v292h108v-292q0 -53 21 -84.5t74 -31.5zM384 624l-51 -79l-225 141l52 83z" />
    <glyph glyph-name="uacute" unicode="&#xfa;" horiz-adv-x="572" 
d="M273 92q33 0 56 12.5t38 35t22 53t7 65.5v242h106v-500h-106v56q-25 -29 -59.5 -48.5t-81.5 -19.5q-51 0 -86 16.5t-57 46t-32 70t-10 87.5v292h108v-292q0 -53 21 -84.5t74 -31.5zM412 769l52 -83l-225 -141l-51 79z" />
    <glyph glyph-name="ucircumflex" unicode="&#xfb;" horiz-adv-x="572" 
d="M273 92q33 0 56 12.5t38 35t22 53t7 65.5v242h106v-500h-106v56q-25 -29 -59.5 -48.5t-81.5 -19.5q-51 0 -86 16.5t-57 46t-32 70t-10 87.5v292h108v-292q0 -53 21 -84.5t74 -31.5zM163 540l-63 69l186 159l186 -159l-63 -70l-123 107z" />
    <glyph glyph-name="udieresis" unicode="&#xfc;" horiz-adv-x="572" 
d="M273 92q33 0 56 12.5t38 35t22 53t7 65.5v242h106v-500h-106v56q-25 -29 -59.5 -48.5t-81.5 -19.5q-51 0 -86 16.5t-57 46t-32 70t-10 87.5v292h108v-292q0 -53 21 -84.5t74 -31.5zM98 634q0 33 22.5 55.5t55.5 22.5t55.5 -22.5t22.5 -55.5t-22.5 -55.5t-55.5 -22.5
t-55.5 22.5t-22.5 55.5zM318 634q0 33 22.5 55.5t55.5 22.5q32 0 54.5 -22.5t22.5 -55.5t-22.5 -55.5t-54.5 -22.5q-33 0 -55.5 22.5t-22.5 55.5z" />
    <glyph glyph-name="yacute" unicode="&#xfd;" horiz-adv-x="540" 
d="M138 500l143 -296l139 296h115l-324 -700h-117l128 278l-212 422h128zM356 769l52 -83l-225 -141l-51 79z" />
    <glyph glyph-name="thorn" unicode="&#xfe;" horiz-adv-x="601" 
d="M176 439q29 26 66.5 43.5t85.5 17.5q54 0 98.5 -17.5t77 -50t50 -78.5t17.5 -104t-18 -104t-50 -78.5t-76.5 -50t-97.5 -17.5q-93 0 -153 60v-260h-106v900h106v-261zM320 104q64 0 101.5 40t37.5 106t-37.5 106t-101.5 40q-71 0 -110 -39t-39 -107t39 -107t110 -39z" />
    <glyph glyph-name="ydieresis" unicode="&#xff;" horiz-adv-x="540" 
d="M138 500l143 -296l139 296h115l-324 -700h-117l128 278l-212 422h128zM82 634q0 33 22.5 55.5t55.5 22.5t55.5 -22.5t22.5 -55.5t-22.5 -55.5t-55.5 -22.5t-55.5 22.5t-22.5 55.5zM302 634q0 33 22.5 55.5t55.5 22.5q32 0 54.5 -22.5t22.5 -55.5t-22.5 -55.5t-54.5 -22.5
q-33 0 -55.5 22.5t-22.5 55.5z" />
    <glyph glyph-name="Amacron" unicode="&#x100;" horiz-adv-x="782" 
d="M645 0l-54 118h-401l-54 -118h-126l326 700h110l326 -700h-127zM244 232h294l-147 316zM241 892h290v-90h-290v90z" />
    <glyph glyph-name="amacron" unicode="&#x101;" horiz-adv-x="521" 
d="M368 356q0 25 -25.5 40.5t-69.5 15.5q-45 0 -75 -16.5t-44 -62.5l-97 50q10 30 27 53.5t42.5 40.5t60 26t80.5 9q108 0 158.5 -51t50.5 -139v-322h-108v55q-22 -26 -55.5 -45.5t-87.5 -19.5q-41 0 -74 12t-56.5 34t-36.5 51t-13 64q0 37 13.5 64.5t35 45.5t50 28t58.5 13
l143 13q23 2 23 22v19zM219 207q-33 -4 -48.5 -20t-15.5 -36q0 -26 21.5 -41.5t62.5 -15.5q26 0 49.5 9t41 24.5t28 35.5t10.5 42v20zM127 692h290v-90h-290v90z" />
    <glyph glyph-name="Abreve" unicode="&#x102;" horiz-adv-x="782" 
d="M645 0l-54 118h-401l-54 -118h-126l326 700h110l326 -700h-127zM244 232h294l-147 316zM330 937q0 -35 16 -53.5t45 -18.5t45 18.5t16 53.5h89q0 -72 -39.5 -116.5t-110.5 -44.5q-70 0 -110 44.5t-40 116.5h89z" />
    <glyph glyph-name="abreve" unicode="&#x103;" horiz-adv-x="521" 
d="M368 356q0 25 -25.5 40.5t-69.5 15.5q-45 0 -75 -16.5t-44 -62.5l-97 50q10 30 27 53.5t42.5 40.5t60 26t80.5 9q108 0 158.5 -51t50.5 -139v-322h-108v55q-22 -26 -55.5 -45.5t-87.5 -19.5q-41 0 -74 12t-56.5 34t-36.5 51t-13 64q0 37 13.5 64.5t35 45.5t50 28t58.5 13
l143 13q23 2 23 22v19zM219 207q-33 -4 -48.5 -20t-15.5 -36q0 -26 21.5 -41.5t62.5 -15.5q26 0 49.5 9t41 24.5t28 35.5t10.5 42v20zM211 737q0 -35 16 -53.5t45 -18.5t45 18.5t16 53.5h89q0 -72 -39.5 -116.5t-110.5 -44.5q-70 0 -110 44.5t-40 116.5h89z" />
    <glyph glyph-name="Aogonek" unicode="&#x104;" horiz-adv-x="782" 
d="M703 0q-24 -29 -33 -49.5t-9 -35.5q0 -14 8 -20t16 -6q13 0 26.5 3.5t32.5 10.5v-85q-17 -8 -35.5 -13t-39.5 -5q-40 0 -70 25.5t-30 73.5q0 28 14 60.5t48 70.5l-40 88h-401l-54 -118h-126l326 700h110l326 -700h-69zM244 232h294l-147 316z" />
    <glyph glyph-name="aogonek" unicode="&#x105;" horiz-adv-x="521" 
d="M368 356q0 25 -25.5 40.5t-69.5 15.5q-45 0 -75 -16.5t-44 -62.5l-97 50q10 30 27 53.5t42.5 40.5t60 26t80.5 9q108 0 158.5 -51t50.5 -139v-322h-42q-24 -29 -33 -49.5t-9 -35.5q0 -14 8 -20t16 -6q13 0 26.5 3.5t32.5 10.5v-85q-17 -8 -35.5 -13t-39.5 -5
q-40 0 -70 25.5t-30 73.5q0 29 15 62.5t53 74.5v19q-22 -26 -55.5 -45.5t-87.5 -19.5q-41 0 -74 12t-56.5 34t-36.5 51t-13 64q0 37 13.5 64.5t35 45.5t50 28t58.5 13l143 13q23 2 23 22v19zM219 207q-33 -4 -48.5 -20t-15.5 -36q0 -26 21.5 -41.5t62.5 -15.5q26 0 49.5 9
t41 24.5t28 35.5t10.5 42v20z" />
    <glyph glyph-name="Cacute" unicode="&#x106;" horiz-adv-x="666" 
d="M598 484q-38 48 -89 75t-109 27q-52 0 -95.5 -17t-74.5 -48t-48.5 -74.5t-17.5 -96.5t17.5 -96.5t48.5 -74.5t74.5 -48t95.5 -17q26 0 59.5 8t69.5 28l20 -117q-39 -18 -76.5 -25.5t-72.5 -7.5q-75 0 -139 26.5t-111 73.5t-73.5 111t-26.5 139t26.5 139t73.5 111
t111 73.5t139 26.5t137.5 -28t113.5 -79zM479 969l52 -83l-225 -141l-51 79z" />
    <glyph glyph-name="cacute" unicode="&#x107;" horiz-adv-x="502" 
d="M30 250q0 58 20 106.5t54.5 83t81.5 53.5t102 19q60 0 107 -22t82 -59l-68 -83q-17 23 -49 41.5t-74 18.5q-29 0 -55.5 -10.5t-46 -30.5t-31 -49.5t-11.5 -67.5t11.5 -67.5t31 -49.5t46 -30.5t55.5 -10.5q42 0 74 18t54 43l63 -86q-13 -14 -31.5 -28t-42 -25.5
t-52.5 -18.5t-63 -7q-55 0 -102 19t-81.5 53.5t-54.5 83t-20 106.5zM368 769l52 -83l-225 -141l-51 79z" />
    <glyph glyph-name="Ccircumflex" unicode="&#x108;" horiz-adv-x="666" 
d="M598 484q-38 48 -89 75t-109 27q-52 0 -95.5 -17t-74.5 -48t-48.5 -74.5t-17.5 -96.5t17.5 -96.5t48.5 -74.5t74.5 -48t95.5 -17q26 0 59.5 8t69.5 28l20 -117q-39 -18 -76.5 -25.5t-72.5 -7.5q-75 0 -139 26.5t-111 73.5t-73.5 111t-26.5 139t26.5 139t73.5 111
t111 73.5t139 26.5t137.5 -28t113.5 -79zM265 740l-63 69l186 159l186 -159l-63 -70l-123 107z" />
    <glyph glyph-name="ccircumflex" unicode="&#x109;" horiz-adv-x="502" 
d="M30 250q0 58 20 106.5t54.5 83t81.5 53.5t102 19q60 0 107 -22t82 -59l-68 -83q-17 23 -49 41.5t-74 18.5q-29 0 -55.5 -10.5t-46 -30.5t-31 -49.5t-11.5 -67.5t11.5 -67.5t31 -49.5t46 -30.5t55.5 -10.5q42 0 74 18t54 43l63 -86q-13 -14 -31.5 -28t-42 -25.5
t-52.5 -18.5t-63 -7q-55 0 -102 19t-81.5 53.5t-54.5 83t-20 106.5zM155 540l-63 69l186 159l186 -159l-63 -70l-123 107z" />
    <glyph glyph-name="Cdotaccent" unicode="&#x10a;" horiz-adv-x="666" 
d="M598 484q-38 48 -89 75t-109 27q-52 0 -95.5 -17t-74.5 -48t-48.5 -74.5t-17.5 -96.5t17.5 -96.5t48.5 -74.5t74.5 -48t95.5 -17q26 0 59.5 8t69.5 28l20 -117q-39 -18 -76.5 -25.5t-72.5 -7.5q-75 0 -139 26.5t-111 73.5t-73.5 111t-26.5 139t26.5 139t73.5 111
t111 73.5t139 26.5t137.5 -28t113.5 -79zM307 841q0 34 23.5 57.5t57.5 23.5t57.5 -23.5t23.5 -57.5t-23.5 -57.5t-57.5 -23.5t-57.5 23.5t-23.5 57.5z" />
    <glyph glyph-name="cdotaccent" unicode="&#x10b;" horiz-adv-x="502" 
d="M30 250q0 58 20 106.5t54.5 83t81.5 53.5t102 19q60 0 107 -22t82 -59l-68 -83q-17 23 -49 41.5t-74 18.5q-29 0 -55.5 -10.5t-46 -30.5t-31 -49.5t-11.5 -67.5t11.5 -67.5t31 -49.5t46 -30.5t55.5 -10.5q42 0 74 18t54 43l63 -86q-13 -14 -31.5 -28t-42 -25.5
t-52.5 -18.5t-63 -7q-55 0 -102 19t-81.5 53.5t-54.5 83t-20 106.5zM190 641q0 34 23.5 57.5t57.5 23.5t57.5 -23.5t23.5 -57.5t-23.5 -57.5t-57.5 -23.5t-57.5 23.5t-23.5 57.5z" />
    <glyph glyph-name="Ccaron" unicode="&#x10c;" horiz-adv-x="666" 
d="M598 484q-38 48 -89 75t-109 27q-52 0 -95.5 -17t-74.5 -48t-48.5 -74.5t-17.5 -96.5t17.5 -96.5t48.5 -74.5t74.5 -48t95.5 -17q26 0 59.5 8t69.5 28l20 -117q-39 -18 -76.5 -25.5t-72.5 -7.5q-75 0 -139 26.5t-111 73.5t-73.5 111t-26.5 139t26.5 139t73.5 111
t111 73.5t139 26.5t137.5 -28t113.5 -79zM388 871l123 107l63 -69l-186 -159l-186 159l63 69z" />
    <glyph glyph-name="ccaron" unicode="&#x10d;" horiz-adv-x="502" 
d="M30 250q0 58 20 106.5t54.5 83t81.5 53.5t102 19q60 0 107 -22t82 -59l-68 -83q-17 23 -49 41.5t-74 18.5q-29 0 -55.5 -10.5t-46 -30.5t-31 -49.5t-11.5 -67.5t11.5 -67.5t31 -49.5t46 -30.5t55.5 -10.5q42 0 74 18t54 43l63 -86q-13 -14 -31.5 -28t-42 -25.5
t-52.5 -18.5t-63 -7q-55 0 -102 19t-81.5 53.5t-54.5 83t-20 106.5zM271 671l123 107l63 -69l-186 -159l-186 159l63 69z" />
    <glyph glyph-name="Dcaron" unicode="&#x10e;" horiz-adv-x="724" 
d="M80 700h245q74 0 138 -26.5t111 -73t73.5 -110.5t26.5 -140t-26.5 -140t-73.5 -110.5t-111 -73t-138 -26.5h-245v700zM194 586v-472h131q51 0 94 17.5t74.5 49t49 74.5t17.5 95t-17.5 95t-49 74.5t-74.5 49t-94 17.5h-131zM298 871l123 107l63 -69l-186 -159l-186 159
l63 69z" />
    <glyph glyph-name="dcaron" unicode="&#x10f;" horiz-adv-x="762" 
d="M278 512q47 0 85 -17t61 -40v245h106v-700h-106v55q-21 -25 -59 -46t-87 -21q-55 0 -100.5 18.5t-78.5 52.5t-51 82.5t-18 108.5t18 108.5t51 82.5t78.5 52.5t100.5 18.5zM286 92q69 0 106.5 44t37.5 116t-37.5 114t-106.5 42q-33 0 -59.5 -11.5t-45.5 -32.5t-29 -50
t-10 -64t10 -64t29 -50t45.5 -32.5t59.5 -11.5zM627 562q-21 10 -33 29t-12 40q0 15 6 29.5t16.5 26t25 18.5t31.5 7q18 0 33 -7t25.5 -18.5t16.5 -25.5t6 -28q0 -12 -4 -23t-9 -19l-87 -154l-65 38z" />
    <glyph glyph-name="Dcroat" unicode="&#x110;" horiz-adv-x="724" 
d="M0 405h80v295h245q74 0 138 -26.5t111 -73t73.5 -110.5t26.5 -140t-26.5 -140t-73.5 -110.5t-111 -73t-138 -26.5h-245v301h-80v104zM194 586v-181h145v-104h-145v-187h131q51 0 94 17.5t74.5 49t49 74.5t17.5 95t-17.5 95t-49 74.5t-74.5 49t-94 17.5h-131z" />
    <glyph glyph-name="dcroat" unicode="&#x111;" horiz-adv-x="600" 
d="M327 644h97v56h106v-56h59v-79h-59v-565h-106v55q-21 -25 -59 -46t-87 -21q-55 0 -100.5 18.5t-78.5 52.5t-51 82.5t-18 108.5t18 108.5t51 82.5t78.5 52.5t100.5 18.5q47 0 85 -17t61 -40v110h-97v79zM286 92q69 0 106.5 44t37.5 116t-37.5 114t-106.5 42
q-33 0 -59.5 -11.5t-45.5 -32.5t-29 -50t-10 -64t10 -64t29 -50t45.5 -32.5t59.5 -11.5z" />
    <glyph glyph-name="Emacron" unicode="&#x112;" horiz-adv-x="576" 
d="M80 700h441v-114h-327v-179h327v-114h-327v-179h327v-114h-441v700zM146 892h290v-90h-290v90z" />
    <glyph glyph-name="emacron" unicode="&#x113;" horiz-adv-x="543" 
d="M492 82q-17 -19 -37.5 -36t-46.5 -30t-57.5 -20.5t-71.5 -7.5q-54 0 -99.5 19.5t-78.5 54t-52 83t-19 106.5q0 52 17 99.5t49.5 83.5t78.5 57t104 21q54 0 98.5 -20t75.5 -55t48 -83t17 -103v-39h-379q8 -58 47.5 -89t92.5 -31q54 0 90.5 20.5t65.5 53.5zM400 304
q-9 50 -39.5 77t-81.5 27t-85.5 -28t-46.5 -76h253zM136 692h290v-90h-290v90z" />
    <glyph glyph-name="Ebreve" unicode="&#x114;" horiz-adv-x="576" 
d="M80 700h441v-114h-327v-179h327v-114h-327v-179h327v-114h-441v700zM235 937q0 -35 16 -53.5t45 -18.5t45 18.5t16 53.5h89q0 -72 -39.5 -116.5t-110.5 -44.5q-70 0 -110 44.5t-40 116.5h89z" />
    <glyph glyph-name="ebreve" unicode="&#x115;" horiz-adv-x="543" 
d="M492 82q-17 -19 -37.5 -36t-46.5 -30t-57.5 -20.5t-71.5 -7.5q-54 0 -99.5 19.5t-78.5 54t-52 83t-19 106.5q0 52 17 99.5t49.5 83.5t78.5 57t104 21q54 0 98.5 -20t75.5 -55t48 -83t17 -103v-39h-379q8 -58 47.5 -89t92.5 -31q54 0 90.5 20.5t65.5 53.5zM400 304
q-9 50 -39.5 77t-81.5 27t-85.5 -28t-46.5 -76h253zM216 737q0 -35 16 -53.5t45 -18.5t45 18.5t16 53.5h89q0 -72 -39.5 -116.5t-110.5 -44.5q-70 0 -110 44.5t-40 116.5h89z" />
    <glyph glyph-name="Edotaccent" unicode="&#x116;" horiz-adv-x="576" 
d="M80 700h441v-114h-327v-179h327v-114h-327v-179h327v-114h-441v700zM215 841q0 34 23.5 57.5t57.5 23.5t57.5 -23.5t23.5 -57.5t-23.5 -57.5t-57.5 -23.5t-57.5 23.5t-23.5 57.5z" />
    <glyph glyph-name="edotaccent" unicode="&#x117;" horiz-adv-x="543" 
d="M492 82q-17 -19 -37.5 -36t-46.5 -30t-57.5 -20.5t-71.5 -7.5q-54 0 -99.5 19.5t-78.5 54t-52 83t-19 106.5q0 52 17 99.5t49.5 83.5t78.5 57t104 21q54 0 98.5 -20t75.5 -55t48 -83t17 -103v-39h-379q8 -58 47.5 -89t92.5 -31q54 0 90.5 20.5t65.5 53.5zM400 304
q-9 50 -39.5 77t-81.5 27t-85.5 -28t-46.5 -76h253zM196 641q0 34 23.5 57.5t57.5 23.5t57.5 -23.5t23.5 -57.5t-23.5 -57.5t-57.5 -23.5t-57.5 23.5t-23.5 57.5z" />
    <glyph glyph-name="Eogonek" unicode="&#x118;" horiz-adv-x="576" 
d="M80 700h441v-114h-327v-179h327v-114h-327v-179h327v-114h-45q-24 -29 -33 -49.5t-9 -35.5q0 -14 8 -20t16 -6q13 0 26.5 3.5t32.5 10.5v-85q-17 -8 -35.5 -13t-39.5 -5q-40 0 -70 25.5t-30 73.5q0 23 9 47.5t29 53.5h-300v700z" />
    <glyph glyph-name="eogonek" unicode="&#x119;" horiz-adv-x="543" 
d="M492 82q-32 -35 -77 -62t-114 -31q-19 -25 -26 -43t-7 -31q0 -14 8 -20t16 -6q13 0 26.5 3.5t32.5 10.5v-85q-17 -8 -35.5 -13t-39.5 -5q-40 0 -70 25.5t-30 73.5q0 22 8 46t28 52q-41 10 -74.5 32.5t-57.5 55.5t-37 75t-13 91q0 52 17 99.5t49.5 83.5t78.5 57t104 21
q54 0 98.5 -20t75.5 -55t48 -83t17 -103v-39h-379q8 -58 47.5 -89t92.5 -31q54 0 90.5 20.5t65.5 53.5zM400 304q-9 50 -39.5 77t-81.5 27t-85.5 -28t-46.5 -76h253z" />
    <glyph glyph-name="Ecaron" unicode="&#x11a;" horiz-adv-x="576" 
d="M80 700h441v-114h-327v-179h327v-114h-327v-179h327v-114h-441v700zM296 871l123 107l63 -69l-186 -159l-186 159l63 69z" />
    <glyph glyph-name="ecaron" unicode="&#x11b;" horiz-adv-x="543" 
d="M492 82q-17 -19 -37.5 -36t-46.5 -30t-57.5 -20.5t-71.5 -7.5q-54 0 -99.5 19.5t-78.5 54t-52 83t-19 106.5q0 52 17 99.5t49.5 83.5t78.5 57t104 21q54 0 98.5 -20t75.5 -55t48 -83t17 -103v-39h-379q8 -58 47.5 -89t92.5 -31q54 0 90.5 20.5t65.5 53.5zM400 304
q-9 50 -39.5 77t-81.5 27t-85.5 -28t-46.5 -76h253zM273 671l123 107l63 -69l-186 -159l-186 159l63 69z" />
    <glyph glyph-name="Gcircumflex" unicode="&#x11c;" horiz-adv-x="666" 
d="M400 586q-52 0 -95.5 -17t-74.5 -48t-48.5 -74.5t-17.5 -96.5t17.5 -96.5t48.5 -74.5t74.5 -48t95.5 -17q10 0 20.5 1.5t22.5 3.5v149h-155v114h269v-346q-40 -17 -82.5 -26.5t-74.5 -9.5q-75 0 -139 26.5t-111 73.5t-73.5 111t-26.5 139t26.5 139t73.5 111t111 73.5
t139 26.5t137.5 -28t113.5 -79l-53 -109q-38 48 -89 75t-109 27zM255 740l-63 69l186 159l186 -159l-63 -70l-123 107z" />
    <glyph glyph-name="gcircumflex" unicode="&#x11d;" horiz-adv-x="612" 
d="M439 55q-23 -29 -62.5 -48t-87.5 -19q-55 0 -100.5 18.5t-78.5 52.5t-51.5 82.5t-18.5 108.5t18.5 108.5t51.5 83t78.5 53t100.5 18.5q48 0 86 -17.5t61 -43.5v48h106v-461q0 -44 -10.5 -88.5t-37.5 -81t-73 -59.5t-118 -23q-47 0 -83.5 9.5t-65 26t-49.5 39.5t-37 49
l81 63q26 -47 65.5 -67.5t93.5 -20.5q39 0 64.5 14.5t40.5 36.5t20.5 49t5.5 53v16zM298 409q-33 0 -60 -12t-46 -33t-29.5 -50t-10.5 -64t10.5 -64t29.5 -50t46 -32.5t60 -11.5q69 0 106.5 44t37.5 116t-37.5 114.5t-106.5 42.5zM183 540l-63 69l186 159l186 -159l-63 -70
l-123 107z" />
    <glyph glyph-name="Gbreve" unicode="&#x11e;" horiz-adv-x="666" 
d="M400 586q-52 0 -95.5 -17t-74.5 -48t-48.5 -74.5t-17.5 -96.5t17.5 -96.5t48.5 -74.5t74.5 -48t95.5 -17q10 0 20.5 1.5t22.5 3.5v149h-155v114h269v-346q-40 -17 -82.5 -26.5t-74.5 -9.5q-75 0 -139 26.5t-111 73.5t-73.5 111t-26.5 139t26.5 139t73.5 111t111 73.5
t139 26.5t137.5 -28t113.5 -79l-53 -109q-38 48 -89 75t-109 27zM319 937q0 -35 16 -53.5t45 -18.5t45 18.5t16 53.5h89q0 -72 -39.5 -116.5t-110.5 -44.5q-70 0 -110 44.5t-40 116.5h89z" />
    <glyph glyph-name="gbreve" unicode="&#x11f;" horiz-adv-x="612" 
d="M439 55q-23 -29 -62.5 -48t-87.5 -19q-55 0 -100.5 18.5t-78.5 52.5t-51.5 82.5t-18.5 108.5t18.5 108.5t51.5 83t78.5 53t100.5 18.5q48 0 86 -17.5t61 -43.5v48h106v-461q0 -44 -10.5 -88.5t-37.5 -81t-73 -59.5t-118 -23q-47 0 -83.5 9.5t-65 26t-49.5 39.5t-37 49
l81 63q26 -47 65.5 -67.5t93.5 -20.5q39 0 64.5 14.5t40.5 36.5t20.5 49t5.5 53v16zM298 409q-33 0 -60 -12t-46 -33t-29.5 -50t-10.5 -64t10.5 -64t29.5 -50t46 -32.5t60 -11.5q69 0 106.5 44t37.5 116t-37.5 114.5t-106.5 42.5zM245 737q0 -35 16 -53.5t45 -18.5t45 18.5
t16 53.5h89q0 -72 -39.5 -116.5t-110.5 -44.5q-70 0 -110 44.5t-40 116.5h89z" />
    <glyph glyph-name="Gdotaccent" unicode="&#x120;" horiz-adv-x="666" 
d="M400 586q-52 0 -95.5 -17t-74.5 -48t-48.5 -74.5t-17.5 -96.5t17.5 -96.5t48.5 -74.5t74.5 -48t95.5 -17q10 0 20.5 1.5t22.5 3.5v149h-155v114h269v-346q-40 -17 -82.5 -26.5t-74.5 -9.5q-75 0 -139 26.5t-111 73.5t-73.5 111t-26.5 139t26.5 139t73.5 111t111 73.5
t139 26.5t137.5 -28t113.5 -79l-53 -109q-38 48 -89 75t-109 27zM286 841q0 34 23.5 57.5t57.5 23.5t57.5 -23.5t23.5 -57.5t-23.5 -57.5t-57.5 -23.5t-57.5 23.5t-23.5 57.5z" />
    <glyph glyph-name="gdotaccent" unicode="&#x121;" horiz-adv-x="612" 
d="M439 55q-23 -29 -62.5 -48t-87.5 -19q-55 0 -100.5 18.5t-78.5 52.5t-51.5 82.5t-18.5 108.5t18.5 108.5t51.5 83t78.5 53t100.5 18.5q48 0 86 -17.5t61 -43.5v48h106v-461q0 -44 -10.5 -88.5t-37.5 -81t-73 -59.5t-118 -23q-47 0 -83.5 9.5t-65 26t-49.5 39.5t-37 49
l81 63q26 -47 65.5 -67.5t93.5 -20.5q39 0 64.5 14.5t40.5 36.5t20.5 49t5.5 53v16zM298 409q-33 0 -60 -12t-46 -33t-29.5 -50t-10.5 -64t10.5 -64t29.5 -50t46 -32.5t60 -11.5q69 0 106.5 44t37.5 116t-37.5 114.5t-106.5 42.5zM225 641q0 34 23.5 57.5t57.5 23.5
t57.5 -23.5t23.5 -57.5t-23.5 -57.5t-57.5 -23.5t-57.5 23.5t-23.5 57.5z" />
    <glyph glyph-name="Gcommaaccent" unicode="&#x122;" horiz-adv-x="666" 
d="M400 586q-52 0 -95.5 -17t-74.5 -48t-48.5 -74.5t-17.5 -96.5t17.5 -96.5t48.5 -74.5t74.5 -48t95.5 -17q10 0 20.5 1.5t22.5 3.5v149h-155v114h269v-346q-40 -17 -82.5 -26.5t-74.5 -9.5q-75 0 -139 26.5t-111 73.5t-73.5 111t-26.5 139t26.5 139t73.5 111t111 73.5
t139 26.5t137.5 -28t113.5 -79l-53 -109q-38 48 -89 75t-109 27zM300 -200q-21 10 -33 29t-12 40q0 15 6 29.5t16.5 26t25 18.5t31.5 7q18 0 33 -7t25.5 -18.5t16.5 -25.5t6 -28q0 -12 -4 -23t-9 -19l-87 -154l-65 38z" />
    <glyph glyph-name="gcommaaccent" unicode="&#x123;" horiz-adv-x="612" 
d="M439 55q-23 -29 -62.5 -48t-87.5 -19q-55 0 -100.5 18.5t-78.5 52.5t-51.5 82.5t-18.5 108.5t18.5 108.5t51.5 83t78.5 53t100.5 18.5q48 0 86 -17.5t61 -43.5v48h106v-461q0 -44 -10.5 -88.5t-37.5 -81t-73 -59.5t-118 -23q-47 0 -83.5 9.5t-65 26t-49.5 39.5t-37 49
l81 63q26 -47 65.5 -67.5t93.5 -20.5q39 0 64.5 14.5t40.5 36.5t20.5 49t5.5 53v16zM298 409q-33 0 -60 -12t-46 -33t-29.5 -50t-10.5 -64t10.5 -64t29.5 -50t46 -32.5t60 -11.5q69 0 106.5 44t37.5 116t-37.5 114.5t-106.5 42.5zM340 702q21 -10 33 -29t12 -40
q0 -15 -6 -29.5t-16.5 -26t-25 -18.5t-31.5 -7q-18 0 -33 7t-25.5 18.5t-16.5 25.5t-6 28q0 12 4 23t9 19l87 154l65 -38z" />
    <glyph glyph-name="Hcircumflex" unicode="&#x124;" horiz-adv-x="744" 
d="M550 0v293h-356v-293h-114v700h114v-293h356v293h114v-700h-114zM248 740l-63 69l186 159l186 -159l-63 -70l-123 107z" />
    <glyph glyph-name="hcircumflex" unicode="&#x125;" horiz-adv-x="566" 
d="M201 358q-16 -26 -20.5 -60t-4.5 -65v-233h-106v700h106v-251q9 10 22.5 21.5t31 20.5t40 15t50.5 6q47 0 82 -16t58 -44.5t34.5 -68.5t11.5 -88v-295h-108v299q0 55 -26 82t-71 27q-30 0 -56.5 -12t-43.5 -38zM24 740l-63 69l186 159l186 -159l-63 -70l-123 107z" />
    <glyph glyph-name="Hbar" unicode="&#x126;" horiz-adv-x="744" 
d="M30 585h50v115h114v-115h356v115h114v-115h46v-101h-46v-484h-114v293h-356v-293h-114v484h-50v101zM550 407v77h-356v-77h356z" />
    <glyph glyph-name="hbar" unicode="&#x127;" horiz-adv-x="566" 
d="M7 644h63v56h106v-56h93v-79h-93v-116q9 10 22.5 21.5t31 20.5t40 15t50.5 6q47 0 82 -16t58 -44.5t34.5 -68.5t11.5 -88v-295h-108v299q0 55 -26 82t-71 27q-30 0 -56.5 -12t-43.5 -38q-16 -26 -20.5 -60t-4.5 -65v-233h-106v565h-63v79z" />
    <glyph glyph-name="Itilde" unicode="&#x128;" horiz-adv-x="274" 
d="M80 0v700h114v-700h-114zM82 912q19 0 35 -6t29 -13.5t24.5 -13.5t22.5 -6q14 0 33 11.5t37 28.5l52 -65q-12 -12 -26 -23.5t-29.5 -21t-32.5 -15.5t-34 -6q-22 0 -38 6t-28.5 13.5t-23 13.5t-21.5 6q-14 0 -33 -11.5t-36 -28.5l-52 65q12 12 26 23.5t29.5 21t32 15.5
t33.5 6z" />
    <glyph glyph-name="itilde" unicode="&#x129;" horiz-adv-x="256" 
d="M71 500h108v-500h-108v500zM72 712q19 0 35 -6t29 -13.5t24.5 -13.5t22.5 -6q14 0 33 11.5t37 28.5l52 -65q-12 -12 -26 -23.5t-29.5 -21t-32.5 -15.5t-34 -6q-22 0 -38 6t-28.5 13.5t-23 13.5t-21.5 6q-14 0 -33 -11.5t-36 -28.5l-52 65q12 12 26 23.5t29.5 21t32 15.5
t33.5 6z" />
    <glyph glyph-name="Imacron" unicode="&#x12a;" horiz-adv-x="274" 
d="M80 0v700h114v-700h-114zM-8 892h290v-90h-290v90z" />
    <glyph glyph-name="imacron" unicode="&#x12b;" horiz-adv-x="256" 
d="M71 500h108v-500h-108v500zM-17 692h290v-90h-290v90z" />
    <glyph glyph-name="Ibreve" unicode="&#x12c;" horiz-adv-x="274" 
d="M80 0v700h114v-700h-114zM76 937q0 -35 16 -53.5t45 -18.5t45 18.5t16 53.5h89q0 -72 -39.5 -116.5t-110.5 -44.5q-70 0 -110 44.5t-40 116.5h89z" />
    <glyph glyph-name="ibreve" unicode="&#x12d;" horiz-adv-x="256" 
d="M71 500h108v-500h-108v500zM67 737q0 -35 16 -53.5t45 -18.5t45 18.5t16 53.5h89q0 -72 -39.5 -116.5t-110.5 -44.5q-70 0 -110 44.5t-40 116.5h89z" />
    <glyph glyph-name="Iogonek" unicode="&#x12e;" horiz-adv-x="274" 
d="M148 0q-24 -29 -33 -49.5t-9 -35.5q0 -14 8 -20t16 -6q13 0 26.5 3.5t32.5 10.5v-85q-17 -8 -35.5 -13t-39.5 -5q-40 0 -70 25.5t-30 73.5q0 29 15 62t51 73v666h114v-700h-46z" />
    <glyph glyph-name="iogonek" unicode="&#x12f;" horiz-adv-x="276" 
d="M152 0q-24 -29 -33 -49.5t-9 -35.5q0 -14 8 -20t16 -6q13 0 26.5 3.5t32.5 10.5v-85q-17 -8 -35.5 -13t-39.5 -5q-40 0 -70 25.5t-30 73.5q0 29 15 62t51 73v466h108v-500h-40zM60 634q0 33 22.5 55.5t55.5 22.5t55.5 -22.5t22.5 -55.5t-22.5 -55.5t-55.5 -22.5
t-55.5 22.5t-22.5 55.5z" />
    <glyph glyph-name="Idotaccent" unicode="&#x130;" horiz-adv-x="274" 
d="M80 0v700h114v-700h-114zM56 841q0 34 23.5 57.5t57.5 23.5t57.5 -23.5t23.5 -57.5t-23.5 -57.5t-57.5 -23.5t-57.5 23.5t-23.5 57.5z" />
    <glyph glyph-name="dotlessi" unicode="&#x131;" horiz-adv-x="256" 
d="M71 500h108v-500h-108v500z" />
    <glyph glyph-name="Jcircumflex" unicode="&#x134;" horiz-adv-x="499" 
d="M117 271q0 -34 5.5 -62.5t18 -49.5t32 -33t46.5 -12q45 0 70.5 33t25.5 79v474h114v-474q0 -50 -14.5 -91.5t-41.5 -71.5t-66 -46.5t-88 -16.5q-57 0 -96 20.5t-63 52.5t-34.5 71t-10.5 77zM235 740l-63 69l186 159l186 -159l-63 -70l-123 107z" />
    <glyph glyph-name="jcircumflex" unicode="&#x135;" horiz-adv-x="280" 
d="M-20 -96q34 0 56 5.5t35 16t17.5 25.5t4.5 33v516h108v-516q0 -47 -11.5 -81.5t-37.5 -57.5t-68 -34t-104 -11v104zM17 540l-63 69l186 159l186 -159l-63 -70l-123 107z" />
    <glyph glyph-name="Kcommaaccent" unicode="&#x136;" horiz-adv-x="672" 
d="M281 309l-87 -87v-222h-114v700h114v-316l313 316h160l-306 -309l300 -391h-143zM303 -200q-21 10 -33 29t-12 40q0 15 6 29.5t16.5 26t25 18.5t31.5 7q18 0 33 -7t25.5 -18.5t16.5 -25.5t6 -28q0 -12 -4 -23t-9 -19l-87 -154l-65 38z" />
    <glyph glyph-name="kcommaaccent" unicode="&#x137;" horiz-adv-x="534" 
d="M235 205l-59 -55v-150h-106v700h106v-410l203 210h145l-215 -224l211 -276h-137zM234 -200q-21 10 -33 29t-12 40q0 15 6 29.5t16.5 26t25 18.5t31.5 7q18 0 33 -7t25.5 -18.5t16.5 -25.5t6 -28q0 -12 -4 -23t-9 -19l-87 -154l-65 38z" />
    <glyph glyph-name="kgreenlandic" unicode="&#x138;" horiz-adv-x="534" 
d="M235 205l-59 -55v-150h-106v500h106v-210l203 210h145l-215 -224l211 -276h-137z" />
    <glyph glyph-name="Lacute" unicode="&#x139;" horiz-adv-x="542" 
d="M80 700h114v-586h333v-114h-447v700zM298 969l52 -83l-225 -141l-51 79z" />
    <glyph glyph-name="lacute" unicode="&#x13a;" horiz-adv-x="248" 
d="M70 0v700h108v-700h-108zM231 969l52 -83l-225 -141l-51 79z" />
    <glyph glyph-name="Lcommaaccent" unicode="&#x13b;" horiz-adv-x="542" 
d="M80 700h114v-586h333v-114h-447v700zM277 -200q-21 10 -33 29t-12 40q0 15 6 29.5t16.5 26t25 18.5t31.5 7q18 0 33 -7t25.5 -18.5t16.5 -25.5t6 -28q0 -12 -4 -23t-9 -19l-87 -154l-65 38z" />
    <glyph glyph-name="lcommaaccent" unicode="&#x13c;" horiz-adv-x="248" 
d="M70 0v700h108v-700h-108zM87 -200q-21 10 -33 29t-12 40q0 15 6 29.5t16.5 26t25 18.5t31.5 7q18 0 33 -7t25.5 -18.5t16.5 -25.5t6 -28q0 -12 -4 -23t-9 -19l-87 -154l-65 38z" />
    <glyph glyph-name="Lcaron" unicode="&#x13d;" horiz-adv-x="542" 
d="M80 700h114v-586h333v-114h-447v700zM167 871l123 107l63 -69l-186 -159l-186 159l63 69z" />
    <glyph glyph-name="lcaron" unicode="&#x13e;" horiz-adv-x="412" 
d="M70 0v700h108v-700h-108zM277 562q-21 10 -33 29t-12 40q0 15 6 29.5t16.5 26t25 18.5t31.5 7q18 0 33 -7t25.5 -18.5t16.5 -25.5t6 -28q0 -12 -4 -23t-9 -19l-87 -154l-65 38z" />
    <glyph glyph-name="Ldot" unicode="&#x13f;" horiz-adv-x="542" 
d="M80 700h114v-586h333v-114h-447v700zM296 397q0 34 23.5 57.5t57.5 23.5t57.5 -23.5t23.5 -57.5t-23.5 -57.5t-57.5 -23.5t-57.5 23.5t-23.5 57.5z" />
    <glyph glyph-name="ldot" unicode="&#x140;" horiz-adv-x="406" 
d="M70 0v700h108v-700h-108zM224 396q0 34 23.5 57.5t57.5 23.5t57.5 -23.5t23.5 -57.5t-23.5 -57.5t-57.5 -23.5t-57.5 23.5t-23.5 57.5z" />
    <glyph glyph-name="Lslash" unicode="&#x141;" horiz-adv-x="542" 
d="M-32 358l112 46v296h114v-248l152 63l38 -90l-190 -79v-232h333v-114h-447v298l-74 -30z" />
    <glyph glyph-name="lslash" unicode="&#x142;" horiz-adv-x="248" 
d="M-50 345l120 51v304h108v-257l97 42l35 -79l-132 -57v-349h-108v302l-85 -36z" />
    <glyph glyph-name="Nacute" unicode="&#x143;" horiz-adv-x="791" 
d="M608 0l-414 503v-503h-114v700h101l416 -508v508h114v-700h-103zM521 969l52 -83l-225 -141l-51 79z" />
    <glyph glyph-name="nacute" unicode="&#x144;" horiz-adv-x="579" 
d="M302 408q-26 0 -48.5 -8t-40 -28.5t-27.5 -54t-10 -84.5v-233h-106v500h106v-51q26 29 62.5 46t81.5 17q51 0 86.5 -16.5t58.5 -46t33.5 -70t10.5 -87.5v-292h-108v292q0 53 -22.5 84.5t-76.5 31.5zM391 769l52 -83l-225 -141l-51 79z" />
    <glyph glyph-name="Ncommaaccent" unicode="&#x145;" horiz-adv-x="791" 
d="M608 0l-414 503v-503h-114v700h101l416 -508v508h114v-700h-103zM363 -200q-21 10 -33 29t-12 40q0 15 6 29.5t16.5 26t25 18.5t31.5 7q18 0 33 -7t25.5 -18.5t16.5 -25.5t6 -28q0 -12 -4 -23t-9 -19l-87 -154l-65 38z" />
    <glyph glyph-name="ncommaaccent" unicode="&#x146;" horiz-adv-x="579" 
d="M302 408q-26 0 -48.5 -8t-40 -28.5t-27.5 -54t-10 -84.5v-233h-106v500h106v-51q26 29 62.5 46t81.5 17q51 0 86.5 -16.5t58.5 -46t33.5 -70t10.5 -87.5v-292h-108v292q0 53 -22.5 84.5t-76.5 31.5zM257 -200q-21 10 -33 29t-12 40q0 15 6 29.5t16.5 26t25 18.5t31.5 7
q18 0 33 -7t25.5 -18.5t16.5 -25.5t6 -28q0 -12 -4 -23t-9 -19l-87 -154l-65 38z" />
    <glyph glyph-name="Ncaron" unicode="&#x147;" horiz-adv-x="791" 
d="M608 0l-414 503v-503h-114v700h101l416 -508v508h114v-700h-103zM410 871l123 107l63 -69l-186 -159l-186 159l63 69z" />
    <glyph glyph-name="ncaron" unicode="&#x148;" horiz-adv-x="579" 
d="M302 408q-26 0 -48.5 -8t-40 -28.5t-27.5 -54t-10 -84.5v-233h-106v500h106v-51q26 29 62.5 46t81.5 17q51 0 86.5 -16.5t58.5 -46t33.5 -70t10.5 -87.5v-292h-108v292q0 53 -22.5 84.5t-76.5 31.5zM299 671l123 107l63 -69l-186 -159l-186 159l63 69z" />
    <glyph glyph-name="Eng" unicode="&#x14a;" horiz-adv-x="791" 
d="M717 -27q0 -49 -11.5 -83t-32 -55.5t-49.5 -31t-64 -9.5q-13 0 -33 2.5t-41 6.5v89q14 -2 30.5 -4t33.5 -2q33 0 48.5 18t15.5 69v27l-414 503v-503h-114v700h101l416 -508v508h114v-727z" />
    <glyph glyph-name="eng" unicode="&#x14b;" horiz-adv-x="579" 
d="M302 408q-26 0 -48.5 -8t-40 -28.5t-27.5 -54t-10 -84.5v-233h-106v500h106v-51q26 29 62.5 46t81.5 17q51 0 86.5 -16.5t58.5 -46t33.5 -70t10.5 -87.5v-318q0 -49 -11.5 -83t-32 -55.5t-49.5 -31t-64 -9.5q-13 0 -33 2.5t-41 6.5v91q14 -2 30.5 -4t33.5 -2
q33 0 46 17.5t13 67.5v318q0 53 -22.5 84.5t-76.5 31.5z" />
    <glyph glyph-name="Omacron" unicode="&#x14c;" horiz-adv-x="798" 
d="M399 700q75 0 139 -26.5t110.5 -73.5t73 -111t26.5 -139t-26.5 -139t-73 -111t-110.5 -73.5t-139 -26.5t-139 26.5t-110.5 73.5t-73 111t-26.5 139t26.5 139t73 111t110.5 73.5t139 26.5zM399 114q51 0 94 17.5t74.5 49t49 75t17.5 94.5t-17.5 94t-49 74.5t-74.5 49.5
t-94 18t-94 -18t-74.5 -49.5t-49 -74.5t-17.5 -94t17.5 -94.5t49 -75t74.5 -49t94 -17.5zM254 892h290v-90h-290v90z" />
    <glyph glyph-name="omacron" unicode="&#x14d;" horiz-adv-x="582" 
d="M291 512q54 0 102 -20.5t83 -56t55.5 -83.5t20.5 -102t-20.5 -102t-55.5 -83.5t-83 -56t-102 -20.5t-102 20.5t-83 56t-55.5 83.5t-20.5 102t20.5 102t55.5 83.5t83 56t102 20.5zM291 92q33 0 60 12.5t47 34t31 50t11 61.5t-11 61.5t-31 50t-47 34t-60 12.5t-60 -12.5
t-47 -34t-31 -50t-11 -61.5t11 -61.5t31 -50t47 -34t60 -12.5zM146 692h290v-90h-290v90z" />
    <glyph glyph-name="Obreve" unicode="&#x14e;" horiz-adv-x="798" 
d="M399 700q75 0 139 -26.5t110.5 -73.5t73 -111t26.5 -139t-26.5 -139t-73 -111t-110.5 -73.5t-139 -26.5t-139 26.5t-110.5 73.5t-73 111t-26.5 139t26.5 139t73 111t110.5 73.5t139 26.5zM399 114q51 0 94 17.5t74.5 49t49 75t17.5 94.5t-17.5 94t-49 74.5t-74.5 49.5
t-94 18t-94 -18t-74.5 -49.5t-49 -74.5t-17.5 -94t17.5 -94.5t49 -75t74.5 -49t94 -17.5zM338 937q0 -35 16 -53.5t45 -18.5t45 18.5t16 53.5h89q0 -72 -39.5 -116.5t-110.5 -44.5q-70 0 -110 44.5t-40 116.5h89z" />
    <glyph glyph-name="obreve" unicode="&#x14f;" horiz-adv-x="582" 
d="M291 512q54 0 102 -20.5t83 -56t55.5 -83.5t20.5 -102t-20.5 -102t-55.5 -83.5t-83 -56t-102 -20.5t-102 20.5t-83 56t-55.5 83.5t-20.5 102t20.5 102t55.5 83.5t83 56t102 20.5zM291 92q33 0 60 12.5t47 34t31 50t11 61.5t-11 61.5t-31 50t-47 34t-60 12.5t-60 -12.5
t-47 -34t-31 -50t-11 -61.5t11 -61.5t31 -50t47 -34t60 -12.5zM230 737q0 -35 16 -53.5t45 -18.5t45 18.5t16 53.5h89q0 -72 -39.5 -116.5t-110.5 -44.5q-70 0 -110 44.5t-40 116.5h89z" />
    <glyph glyph-name="Ohungarumlaut" unicode="&#x150;" horiz-adv-x="798" 
d="M399 700q75 0 139 -26.5t110.5 -73.5t73 -111t26.5 -139t-26.5 -139t-73 -111t-110.5 -73.5t-139 -26.5t-139 26.5t-110.5 73.5t-73 111t-26.5 139t26.5 139t73 111t110.5 73.5t139 26.5zM399 114q51 0 94 17.5t74.5 49t49 75t17.5 94.5t-17.5 94t-49 74.5t-74.5 49.5
t-94 18t-94 -18t-74.5 -49.5t-49 -74.5t-17.5 -94t17.5 -94.5t49 -75t74.5 -49t94 -17.5zM370 996l77 -54l-132 -190l-74 51zM533 982l77 -54l-132 -190l-74 51z" />
    <glyph glyph-name="ohungarumlaut" unicode="&#x151;" horiz-adv-x="582" 
d="M291 512q54 0 102 -20.5t83 -56t55.5 -83.5t20.5 -102t-20.5 -102t-55.5 -83.5t-83 -56t-102 -20.5t-102 20.5t-83 56t-55.5 83.5t-20.5 102t20.5 102t55.5 83.5t83 56t102 20.5zM291 92q33 0 60 12.5t47 34t31 50t11 61.5t-11 61.5t-31 50t-47 34t-60 12.5t-60 -12.5
t-47 -34t-31 -50t-11 -61.5t11 -61.5t31 -50t47 -34t60 -12.5zM265 796l77 -54l-132 -190l-74 51zM428 782l77 -54l-132 -190l-74 51z" />
    <glyph glyph-name="OE" unicode="&#x152;" horiz-adv-x="1213" 
d="M678 87q-46 -41 -106 -64t-129 -23q-75 0 -138.5 26.5t-110.5 73.5t-73.5 111t-26.5 139t26.5 139t73.5 111t110.5 73.5t138.5 26.5q69 0 129 -23.5t106 -64.5v88h441v-113h-327v-180h327v-114h-327v-180h327v-113h-441v87zM443 113q51 0 94 18t74.5 49.5t49 75
t17.5 94.5t-17.5 94.5t-49 75t-74.5 49.5t-94 18t-94.5 -18t-75 -49.5t-49 -75t-17.5 -94.5t17.5 -94.5t49 -75t75 -49.5t94.5 -18z" />
    <glyph glyph-name="oe" unicode="&#x153;" horiz-adv-x="1031" 
d="M925 82q-17 -19 -37 -36t-45 -30t-56 -20.5t-71 -7.5q-62 0 -109.5 24.5t-77.5 68.5q-33 -42 -81.5 -66.5t-113.5 -24.5q-55 0 -101.5 19.5t-80.5 54.5t-53 82.5t-19 104.5t19 104.5t53 82.5t80.5 54.5t101.5 19.5q65 0 114 -25t82 -67q29 41 75.5 66.5t109.5 25.5
q54 0 98 -20t74.5 -55t47 -83t16.5 -103v-39h-362q7 -59 40.5 -89.5t87.5 -30.5q51 0 86.5 20.5t64.5 53.5zM334 95q67 0 106 43t39 113t-39 113t-106 43t-106.5 -43t-39.5 -113q0 -33 11 -61.5t30.5 -49.5t46 -33t58.5 -12zM833 304q-11 51 -39 77.5t-79 26.5t-79.5 -26.5
t-38.5 -77.5h236z" />
    <glyph glyph-name="Racute" unicode="&#x154;" horiz-adv-x="693" 
d="M194 0h-114v700h273q52 0 96 -18t76 -50t50 -76t18 -96q0 -68 -30 -121.5t-81 -84.5l206 -254h-147l-178 219h-169v-219zM330 442l77 -98q32 15 52.5 45.5t20.5 70.5q0 28 -10 51t-27.5 39.5t-40.5 26t-49 9.5h-159v-253h77l-29 36zM405 969l52 -83l-225 -141l-51 79z
" />
    <glyph glyph-name="racute" unicode="&#x155;" horiz-adv-x="385" 
d="M365 387q-28 10 -62 10q-32 0 -57.5 -11t-40.5 -33q-17 -23 -22 -54t-5 -68v-231h-108v500h105v-56q22 32 54.5 50.5t73.5 18.5q32 0 62 -8v-118zM308 769l52 -83l-225 -141l-51 79z" />
    <glyph glyph-name="Rcommaaccent" unicode="&#x156;" horiz-adv-x="693" 
d="M194 0h-114v700h273q52 0 96 -18t76 -50t50 -76t18 -96q0 -68 -30 -121.5t-81 -84.5l206 -254h-147l-178 219h-169v-219zM330 442l77 -98q32 15 52.5 45.5t20.5 70.5q0 28 -10 51t-27.5 39.5t-40.5 26t-49 9.5h-159v-253h77l-29 36zM294 -200q-21 10 -33 29t-12 40
q0 15 6 29.5t16.5 26t25 18.5t31.5 7q18 0 33 -7t25.5 -18.5t16.5 -25.5t6 -28q0 -12 -4 -23t-9 -19l-87 -154l-65 38z" />
    <glyph glyph-name="rcommaaccent" unicode="&#x157;" horiz-adv-x="385" 
d="M365 387q-28 10 -62 10q-32 0 -57.5 -11t-40.5 -33q-17 -23 -22 -54t-5 -68v-231h-108v500h105v-56q22 32 54.5 50.5t73.5 18.5q32 0 62 -8v-118zM94 -200q-21 10 -33 29t-12 40q0 15 6 29.5t16.5 26t25 18.5t31.5 7q18 0 33 -7t25.5 -18.5t16.5 -25.5t6 -28
q0 -12 -4 -23t-9 -19l-87 -154l-65 38z" />
    <glyph glyph-name="Rcaron" unicode="&#x158;" horiz-adv-x="693" 
d="M194 0h-114v700h273q52 0 96 -18t76 -50t50 -76t18 -96q0 -68 -30 -121.5t-81 -84.5l206 -254h-147l-178 219h-169v-219zM330 442l77 -98q32 15 52.5 45.5t20.5 70.5q0 28 -10 51t-27.5 39.5t-40.5 26t-49 9.5h-159v-253h77l-29 36zM304 871l123 107l63 -69l-186 -159
l-186 159l63 69z" />
    <glyph glyph-name="rcaron" unicode="&#x159;" horiz-adv-x="385" 
d="M365 387q-28 10 -62 10q-32 0 -57.5 -11t-40.5 -33q-17 -23 -22 -54t-5 -68v-231h-108v500h105v-56q22 32 54.5 50.5t73.5 18.5q32 0 62 -8v-118zM193 671l123 107l63 -69l-186 -159l-186 159l63 69z" />
    <glyph glyph-name="Sacute" unicode="&#x15a;" horiz-adv-x="585" 
d="M413 472q-12 57 -44 85.5t-79 28.5t-73.5 -23t-26.5 -59q0 -35 23.5 -54t58.5 -32.5t76.5 -26.5t76.5 -35.5t58.5 -59.5t23.5 -98q0 -51 -17.5 -88.5t-47 -62t-67.5 -36t-80 -11.5q-36 0 -73 9.5t-68.5 31t-55 56t-33.5 84.5l101 54q10 -61 44.5 -91t84.5 -30
q45 0 71.5 21t26.5 58q0 35 -23.5 55t-58.5 34t-76.5 27.5t-76.5 35.5t-58.5 58t-23.5 95q0 49 17.5 87t47 63.5t68.5 38.5t82 13q82 0 144.5 -47.5t84.5 -136.5zM393 969l52 -83l-225 -141l-51 79z" />
    <glyph glyph-name="sacute" unicode="&#x15b;" horiz-adv-x="479" 
d="M120 167q20 -35 54.5 -55t71.5 -20q42 0 65.5 14.5t23.5 36.5q0 23 -20.5 34.5t-51.5 19.5t-67 16.5t-67 25t-51.5 45t-20.5 77.5q0 30 13 57t37.5 48t60.5 33.5t82 12.5q69 0 118.5 -30.5t75.5 -75.5l-81 -61q-17 27 -46 45t-67 18q-41 0 -63 -15.5t-22 -36.5t20.5 -32
t51.5 -18.5t66.5 -15.5t66.5 -24.5t51.5 -45.5t20.5 -77q0 -34 -14 -62.5t-40 -49t-62 -32t-80 -11.5q-36 0 -68.5 9t-60 24.5t-48.5 37t-34 46.5zM345 769l52 -83l-225 -141l-51 79z" />
    <glyph glyph-name="Scircumflex" unicode="&#x15c;" horiz-adv-x="585" 
d="M413 472q-12 57 -44 85.5t-79 28.5t-73.5 -23t-26.5 -59q0 -35 23.5 -54t58.5 -32.5t76.5 -26.5t76.5 -35.5t58.5 -59.5t23.5 -98q0 -51 -17.5 -88.5t-47 -62t-67.5 -36t-80 -11.5q-36 0 -73 9.5t-68.5 31t-55 56t-33.5 84.5l101 54q10 -61 44.5 -91t84.5 -30
q45 0 71.5 21t26.5 58q0 35 -23.5 55t-58.5 34t-76.5 27.5t-76.5 35.5t-58.5 58t-23.5 95q0 49 17.5 87t47 63.5t68.5 38.5t82 13q82 0 144.5 -47.5t84.5 -136.5zM169 740l-63 69l186 159l186 -159l-63 -70l-123 107z" />
    <glyph glyph-name="scircumflex" unicode="&#x15d;" horiz-adv-x="479" 
d="M120 167q20 -35 54.5 -55t71.5 -20q42 0 65.5 14.5t23.5 36.5q0 23 -20.5 34.5t-51.5 19.5t-67 16.5t-67 25t-51.5 45t-20.5 77.5q0 30 13 57t37.5 48t60.5 33.5t82 12.5q69 0 118.5 -30.5t75.5 -75.5l-81 -61q-17 27 -46 45t-67 18q-41 0 -63 -15.5t-22 -36.5t20.5 -32
t51.5 -18.5t66.5 -15.5t66.5 -24.5t51.5 -45.5t20.5 -77q0 -34 -14 -62.5t-40 -49t-62 -32t-80 -11.5q-36 0 -68.5 9t-60 24.5t-48.5 37t-34 46.5zM126 540l-63 69l186 159l186 -159l-63 -70l-123 107z" />
    <glyph glyph-name="Scedilla" unicode="&#x15e;" horiz-adv-x="585" 
d="M413 472q-12 57 -44 85.5t-79 28.5t-73.5 -23t-26.5 -59q0 -35 23.5 -54t58.5 -32.5t76.5 -26.5t76.5 -35.5t58.5 -59.5t23.5 -98q0 -43 -12.5 -76t-33.5 -57t-50 -39t-62 -21q24 -31 34 -57.5t10 -50.5q0 -48 -30 -73.5t-70 -25.5q-21 0 -39.5 5t-35.5 13v85
q19 -7 32.5 -10.5t26.5 -3.5q8 0 16 6t8 20q0 15 -10 37t-36 53q-32 4 -62.5 16.5t-56 34t-44 53t-27.5 74.5l101 54q10 -61 44.5 -91t84.5 -30q45 0 71.5 21t26.5 58q0 35 -23.5 55t-58.5 34t-76.5 27.5t-76.5 35.5t-58.5 58t-23.5 95q0 49 17.5 87t47 63.5t68.5 38.5
t82 13q82 0 144.5 -47.5t84.5 -136.5z" />
    <glyph glyph-name="scedilla" unicode="&#x15f;" horiz-adv-x="479" 
d="M120 167q20 -35 54.5 -55t71.5 -20q42 0 65.5 14.5t23.5 36.5q0 23 -20.5 34.5t-51.5 19.5t-67 16.5t-67 25t-51.5 45t-20.5 77.5q0 30 13 57t37.5 48t60.5 33.5t82 12.5q69 0 118.5 -30.5t75.5 -75.5l-81 -61q-17 27 -46 45t-67 18q-41 0 -63 -15.5t-22 -36.5t20.5 -32
t51.5 -18.5t66.5 -15.5t66.5 -24.5t51.5 -45.5t20.5 -77q0 -57 -38 -97t-103 -53q18 -26 26 -49.5t8 -44.5q0 -48 -30 -73.5t-70 -25.5q-21 0 -39.5 5t-35.5 13v85q19 -7 32.5 -10.5t26.5 -3.5q8 0 16 6t8 20t-7.5 32t-27.5 44q-60 8 -105 39t-68 75z" />
    <glyph glyph-name="Scaron" unicode="&#x160;" horiz-adv-x="585" 
d="M413 472q-12 57 -44 85.5t-79 28.5t-73.5 -23t-26.5 -59q0 -35 23.5 -54t58.5 -32.5t76.5 -26.5t76.5 -35.5t58.5 -59.5t23.5 -98q0 -51 -17.5 -88.5t-47 -62t-67.5 -36t-80 -11.5q-36 0 -73 9.5t-68.5 31t-55 56t-33.5 84.5l101 54q10 -61 44.5 -91t84.5 -30
q45 0 71.5 21t26.5 58q0 35 -23.5 55t-58.5 34t-76.5 27.5t-76.5 35.5t-58.5 58t-23.5 95q0 49 17.5 87t47 63.5t68.5 38.5t82 13q82 0 144.5 -47.5t84.5 -136.5zM292 871l123 107l63 -69l-186 -159l-186 159l63 69z" />
    <glyph glyph-name="scaron" unicode="&#x161;" horiz-adv-x="479" 
d="M120 167q20 -35 54.5 -55t71.5 -20q42 0 65.5 14.5t23.5 36.5q0 23 -20.5 34.5t-51.5 19.5t-67 16.5t-67 25t-51.5 45t-20.5 77.5q0 30 13 57t37.5 48t60.5 33.5t82 12.5q69 0 118.5 -30.5t75.5 -75.5l-81 -61q-17 27 -46 45t-67 18q-41 0 -63 -15.5t-22 -36.5t20.5 -32
t51.5 -18.5t66.5 -15.5t66.5 -24.5t51.5 -45.5t20.5 -77q0 -34 -14 -62.5t-40 -49t-62 -32t-80 -11.5q-36 0 -68.5 9t-60 24.5t-48.5 37t-34 46.5zM249 671l123 107l63 -69l-186 -159l-186 159l63 69z" />
    <glyph glyph-name="Tcommaaccent" unicode="&#x162;" horiz-adv-x="654" 
d="M649 586h-266v-586h-114v586h-264v114h644v-114zM288 -200q-21 10 -33 29t-12 40q0 15 6 29.5t16.5 26t25 18.5t31.5 7q18 0 33 -7t25.5 -18.5t16.5 -25.5t6 -28q0 -12 -4 -23t-9 -19l-87 -154l-65 38z" />
    <glyph glyph-name="tcommaaccent" unicode="&#x163;" horiz-adv-x="384" 
d="M108 402h-93v98h93v134h106v-134h130v-98h-130v-261q0 -43 36 -44q42 -2 99 6v-97q-52 -11 -99 -11q-71 0 -106.5 34t-35.5 117v256zM179 -200q-21 10 -33 29t-12 40q0 15 6 29.5t16.5 26t25 18.5t31.5 7q18 0 33 -7t25.5 -18.5t16.5 -25.5t6 -28q0 -12 -4 -23t-9 -19
l-87 -154l-65 38z" />
    <glyph glyph-name="Tcaron" unicode="&#x164;" horiz-adv-x="654" 
d="M649 586h-266v-586h-114v586h-264v114h644v-114zM326 871l123 107l63 -69l-186 -159l-186 159l63 69z" />
    <glyph glyph-name="tcaron" unicode="&#x165;" horiz-adv-x="568" 
d="M108 402h-93v98h93v134h106v-134h130v-98h-130v-261q0 -43 36 -44q42 -2 99 6v-97q-52 -11 -99 -11q-71 0 -106.5 34t-35.5 117v256zM438 562q-21 10 -33 29t-12 40q0 15 6 29.5t16.5 26t25 18.5t31.5 7q18 0 33 -7t25.5 -18.5t16.5 -25.5t6 -28q0 -12 -4 -23t-9 -19
l-87 -154l-65 38z" />
    <glyph glyph-name="Tbar" unicode="&#x166;" horiz-adv-x="654" 
d="M649 586h-266v-159h117v-100h-117v-327h-114v327h-119v100h119v159h-264v114h644v-114z" />
    <glyph glyph-name="tbar" unicode="&#x167;" horiz-adv-x="384" 
d="M43 351h65v51h-93v98h93v134h106v-134h130v-98h-130v-51h91v-79h-91v-131q0 -43 36 -44q42 -2 99 6v-97q-52 -11 -99 -11q-71 0 -106.5 34t-35.5 117v126h-65v79z" />
    <glyph glyph-name="Utilde" unicode="&#x168;" horiz-adv-x="783" 
d="M70 700h114v-379q0 -44 16 -82t43.5 -66t65.5 -44t82 -16q45 0 83 16t65.5 44t43.5 66t16 82v379h114v-379q0 -69 -24.5 -127.5t-68 -101.5t-102 -67.5t-127.5 -24.5q-68 0 -126.5 24.5t-102 67.5t-68 101.5t-24.5 127.5v379zM326 912q19 0 35 -6t29 -13.5t24.5 -13.5
t22.5 -6q14 0 33 11.5t37 28.5l52 -65q-12 -12 -26 -23.5t-29.5 -21t-32.5 -15.5t-34 -6q-22 0 -38 6t-28.5 13.5t-23 13.5t-21.5 6q-14 0 -33 -11.5t-36 -28.5l-52 65q12 12 26 23.5t29.5 21t32 15.5t33.5 6z" />
    <glyph glyph-name="utilde" unicode="&#x169;" horiz-adv-x="572" 
d="M273 92q33 0 56 12.5t38 35t22 53t7 65.5v242h106v-500h-106v56q-25 -29 -59.5 -48.5t-81.5 -19.5q-51 0 -86 16.5t-57 46t-32 70t-10 87.5v292h108v-292q0 -53 21 -84.5t74 -31.5zM230 712q19 0 35 -6t29 -13.5t24.5 -13.5t22.5 -6q14 0 33 11.5t37 28.5l52 -65
q-12 -12 -26 -23.5t-29.5 -21t-32.5 -15.5t-34 -6q-22 0 -38 6t-28.5 13.5t-23 13.5t-21.5 6q-14 0 -33 -11.5t-36 -28.5l-52 65q12 12 26 23.5t29.5 21t32 15.5t33.5 6z" />
    <glyph glyph-name="Umacron" unicode="&#x16a;" horiz-adv-x="783" 
d="M70 700h114v-379q0 -44 16 -82t43.5 -66t65.5 -44t82 -16q45 0 83 16t65.5 44t43.5 66t16 82v379h114v-379q0 -69 -24.5 -127.5t-68 -101.5t-102 -67.5t-127.5 -24.5q-68 0 -126.5 24.5t-102 67.5t-68 101.5t-24.5 127.5v379zM241 892h290v-90h-290v90z" />
    <glyph glyph-name="umacron" unicode="&#x16b;" horiz-adv-x="572" 
d="M273 92q33 0 56 12.5t38 35t22 53t7 65.5v242h106v-500h-106v56q-25 -29 -59.5 -48.5t-81.5 -19.5q-51 0 -86 16.5t-57 46t-32 70t-10 87.5v292h108v-292q0 -53 21 -84.5t74 -31.5zM141 692h290v-90h-290v90z" />
    <glyph glyph-name="Ubreve" unicode="&#x16c;" horiz-adv-x="783" 
d="M70 700h114v-379q0 -44 16 -82t43.5 -66t65.5 -44t82 -16q45 0 83 16t65.5 44t43.5 66t16 82v379h114v-379q0 -69 -24.5 -127.5t-68 -101.5t-102 -67.5t-127.5 -24.5q-68 0 -126.5 24.5t-102 67.5t-68 101.5t-24.5 127.5v379zM330 937q0 -35 16 -53.5t45 -18.5t45 18.5
t16 53.5h89q0 -72 -39.5 -116.5t-110.5 -44.5q-70 0 -110 44.5t-40 116.5h89z" />
    <glyph glyph-name="ubreve" unicode="&#x16d;" horiz-adv-x="572" 
d="M273 92q33 0 56 12.5t38 35t22 53t7 65.5v242h106v-500h-106v56q-25 -29 -59.5 -48.5t-81.5 -19.5q-51 0 -86 16.5t-57 46t-32 70t-10 87.5v292h108v-292q0 -53 21 -84.5t74 -31.5zM225 737q0 -35 16 -53.5t45 -18.5t45 18.5t16 53.5h89q0 -72 -39.5 -116.5t-110.5 -44.5
q-70 0 -110 44.5t-40 116.5h89z" />
    <glyph glyph-name="Uring" unicode="&#x16e;" horiz-adv-x="783" 
d="M70 700h114v-379q0 -44 16 -82t43.5 -66t65.5 -44t82 -16q45 0 83 16t65.5 44t43.5 66t16 82v379h114v-379q0 -69 -24.5 -127.5t-68 -101.5t-102 -67.5t-127.5 -24.5q-68 0 -126.5 24.5t-102 67.5t-68 101.5t-24.5 127.5v379zM344 880q0 -22 13 -34.5t34 -12.5
q22 0 34.5 12.5t12.5 34.5t-12.5 34.5t-34.5 12.5q-21 0 -34 -12.5t-13 -34.5zM260 880q0 28 10 52t27.5 41.5t41.5 27.5t52 10t52 -10t41.5 -27.5t27.5 -41.5t10 -52t-10 -52t-27.5 -41.5t-41.5 -27.5t-52 -10t-52 10t-41.5 27.5t-27.5 41.5t-10 52z" />
    <glyph glyph-name="uring" unicode="&#x16f;" horiz-adv-x="572" 
d="M273 92q33 0 56 12.5t38 35t22 53t7 65.5v242h106v-500h-106v56q-25 -29 -59.5 -48.5t-81.5 -19.5q-51 0 -86 16.5t-57 46t-32 70t-10 87.5v292h108v-292q0 -53 21 -84.5t74 -31.5zM239 680q0 -22 13 -34.5t34 -12.5q22 0 34.5 12.5t12.5 34.5t-12.5 34.5t-34.5 12.5
q-21 0 -34 -12.5t-13 -34.5zM155 680q0 28 10 52t27.5 41.5t41.5 27.5t52 10t52 -10t41.5 -27.5t27.5 -41.5t10 -52t-10 -52t-27.5 -41.5t-41.5 -27.5t-52 -10t-52 10t-41.5 27.5t-27.5 41.5t-10 52z" />
    <glyph glyph-name="Uhungarumlaut" unicode="&#x170;" horiz-adv-x="783" 
d="M70 700h114v-379q0 -44 16 -82t43.5 -66t65.5 -44t82 -16q45 0 83 16t65.5 44t43.5 66t16 82v379h114v-379q0 -69 -24.5 -127.5t-68 -101.5t-102 -67.5t-127.5 -24.5q-68 0 -126.5 24.5t-102 67.5t-68 101.5t-24.5 127.5v379zM352 996l77 -54l-132 -190l-74 51zM515 982
l77 -54l-132 -190l-74 51z" />
    <glyph glyph-name="uhungarumlaut" unicode="&#x171;" horiz-adv-x="572" 
d="M273 92q33 0 56 12.5t38 35t22 53t7 65.5v242h106v-500h-106v56q-25 -29 -59.5 -48.5t-81.5 -19.5q-51 0 -86 16.5t-57 46t-32 70t-10 87.5v292h108v-292q0 -53 21 -84.5t74 -31.5zM250 796l77 -54l-132 -190l-74 51zM413 782l77 -54l-132 -190l-74 51z" />
    <glyph glyph-name="Uogonek" unicode="&#x172;" horiz-adv-x="783" 
d="M70 700h114v-379q0 -44 16 -82t43.5 -66t65.5 -44t82 -16q45 0 83 16t65.5 44t43.5 66t16 82v379h114v-379q0 -65 -22 -121t-61 -98.5t-92 -68.5t-116 -32q-24 -29 -33.5 -50t-9.5 -36q0 -14 8 -20t16 -6q13 0 26.5 3.5t32.5 10.5v-85q-17 -8 -35.5 -13t-39.5 -5
q-40 0 -70 25.5t-30 73.5q0 23 9.5 49.5t32.5 56.5q-56 10 -103.5 38t-82 69.5t-54 94.5t-19.5 114v379z" />
    <glyph glyph-name="uogonek" unicode="&#x173;" horiz-adv-x="572" 
d="M273 92q33 0 56 12.5t38 35t22 53t7 65.5v242h106v-462h61q-44 -45 -60 -74.5t-16 -48.5q0 -14 8 -20t16 -6q13 0 26.5 3.5t32.5 10.5v-85q-17 -8 -35.5 -13t-39.5 -5q-40 0 -70 25.5t-30 73.5q0 23 9 47.5t29 53.5h-37v56q-25 -29 -59.5 -48.5t-81.5 -19.5
q-51 0 -86 16.5t-57 46t-32 70t-10 87.5v292h108v-292q0 -53 21 -84.5t74 -31.5z" />
    <glyph glyph-name="Wcircumflex" unicode="&#x174;" horiz-adv-x="1214" 
d="M657 700l224 -503l201 503h122l-278 -700h-81l-238 531l-237 -531h-81l-279 700h122l201 -503l224 503h100zM484 740l-63 69l186 159l186 -159l-63 -70l-123 107z" />
    <glyph glyph-name="wcircumflex" unicode="&#x175;" horiz-adv-x="861" 
d="M467 500l138 -329l129 329h117l-206 -500h-80l-134 318q-33 -78 -68.5 -159.5t-67.5 -158.5h-79l-206 500h117l128 -329l138 329h74zM307 540l-63 69l186 159l186 -159l-63 -70l-123 107z" />
    <glyph glyph-name="Ycircumflex" unicode="&#x176;" horiz-adv-x="690" 
d="M288 0v292l-283 408h139l201 -291l201 291h139l-283 -408v-292h-114zM222 740l-63 69l186 159l186 -159l-63 -70l-123 107z" />
    <glyph glyph-name="ycircumflex" unicode="&#x177;" horiz-adv-x="540" 
d="M138 500l143 -296l139 296h115l-324 -700h-117l128 278l-212 422h128zM147 540l-63 69l186 159l186 -159l-63 -70l-123 107z" />
    <glyph glyph-name="Ydieresis" unicode="&#x178;" horiz-adv-x="690" 
d="M288 0v292l-283 408h139l201 -291l201 291h139l-283 -408v-292h-114zM157 834q0 33 22.5 55.5t55.5 22.5t55.5 -22.5t22.5 -55.5t-22.5 -55.5t-55.5 -22.5t-55.5 22.5t-22.5 55.5zM377 834q0 33 22.5 55.5t55.5 22.5q32 0 54.5 -22.5t22.5 -55.5t-22.5 -55.5t-54.5 -22.5
q-33 0 -55.5 22.5t-22.5 55.5z" />
    <glyph glyph-name="Zacute" unicode="&#x179;" horiz-adv-x="667" 
d="M220 113h397v-113h-567v85l397 502h-397v113h567v-85zM446 969l52 -83l-225 -141l-51 79z" />
    <glyph glyph-name="zacute" unicode="&#x17a;" horiz-adv-x="455" 
d="M172 102h253v-102h-395v91l243 307h-235v102h377v-91zM353 769l52 -83l-225 -141l-51 79z" />
    <glyph glyph-name="Zdotaccent" unicode="&#x17b;" horiz-adv-x="667" 
d="M220 113h397v-113h-567v85l397 502h-397v113h567v-85zM264 841q0 34 23.5 57.5t57.5 23.5t57.5 -23.5t23.5 -57.5t-23.5 -57.5t-57.5 -23.5t-57.5 23.5t-23.5 57.5z" />
    <glyph glyph-name="zdotaccent" unicode="&#x17c;" horiz-adv-x="455" 
d="M172 102h253v-102h-395v91l243 307h-235v102h377v-91zM146 641q0 34 23.5 57.5t57.5 23.5t57.5 -23.5t23.5 -57.5t-23.5 -57.5t-57.5 -23.5t-57.5 23.5t-23.5 57.5z" />
    <glyph glyph-name="Zcaron" unicode="&#x17d;" horiz-adv-x="667" 
d="M220 113h397v-113h-567v85l397 502h-397v113h567v-85zM354 871l123 107l63 -69l-186 -159l-186 159l63 69z" />
    <glyph glyph-name="zcaron" unicode="&#x17e;" horiz-adv-x="455" 
d="M172 102h253v-102h-395v91l243 307h-235v102h377v-91zM227 671l123 107l63 -69l-186 -159l-186 159l63 69z" />
    <glyph glyph-name="longs" unicode="&#x17f;" horiz-adv-x="335" 
d="M70 524q0 100 43.5 142.5t120.5 42.5q17 0 39.5 -2t46.5 -7v-100q-21 3 -39.5 5t-36.5 2q-35 0 -51.5 -17.5t-16.5 -65.5v-524h-106v524z" />
    <glyph glyph-name="florin" unicode="&#x192;" horiz-adv-x="397" 
d="M238 -28q0 -49 -10 -82.5t-29 -54t-46.5 -29.5t-61.5 -9q-25 0 -45 2.5t-41 6.5v99q16 -3 37.5 -5.5t38.5 -2.5q27 0 39 15.5t12 59.5v438h-87v90h87v24q0 100 43.5 142.5t120.5 42.5q17 0 39.5 -2t46.5 -7v-100q-21 3 -39.5 5t-36.5 2q-35 0 -51.5 -17.5t-16.5 -65.5
v-24h137v-90h-137v-438z" />
    <glyph glyph-name="Aringacute" unicode="&#x1fa;" horiz-adv-x="782" 
d="M645 0l-54 118h-401l-54 -118h-126l326 700h110l326 -700h-127zM244 232h294l-147 316zM344 880q0 -22 13 -34.5t34 -12.5q22 0 34.5 12.5t12.5 34.5t-12.5 34.5t-34.5 12.5q-21 0 -34 -12.5t-13 -34.5zM260 880q0 28 10 52t27.5 41.5t41.5 27.5t52 10t52 -10t41.5 -27.5
t27.5 -41.5t10 -52t-10 -52t-27.5 -41.5t-41.5 -27.5t-52 -10t-52 10t-41.5 27.5t-27.5 41.5t-10 52zM482 1260l52 -83l-225 -141l-51 79z" />
    <glyph glyph-name="aringacute" unicode="&#x1fb;" horiz-adv-x="521" 
d="M368 356q0 25 -25.5 40.5t-69.5 15.5q-45 0 -75 -16.5t-44 -62.5l-97 50q10 30 27 53.5t42.5 40.5t60 26t80.5 9q108 0 158.5 -51t50.5 -139v-322h-108v55q-22 -26 -55.5 -45.5t-87.5 -19.5q-41 0 -74 12t-56.5 34t-36.5 51t-13 64q0 37 13.5 64.5t35 45.5t50 28t58.5 13
l143 13q23 2 23 22v19zM219 207q-33 -4 -48.5 -20t-15.5 -36q0 -26 21.5 -41.5t62.5 -15.5q26 0 49.5 9t41 24.5t28 35.5t10.5 42v20zM225 680q0 -22 13 -34.5t34 -12.5q22 0 34.5 12.5t12.5 34.5t-12.5 34.5t-34.5 12.5q-21 0 -34 -12.5t-13 -34.5zM141 680q0 28 10 52
t27.5 41.5t41.5 27.5t52 10t52 -10t41.5 -27.5t27.5 -41.5t10 -52t-10 -52t-27.5 -41.5t-41.5 -27.5t-52 -10t-52 10t-41.5 27.5t-27.5 41.5t-10 52zM362 1057l52 -83l-225 -141l-51 79z" />
    <glyph glyph-name="AEacute" unicode="&#x1fc;" horiz-adv-x="979" 
d="M483 0v118h-268l-83 -118h-144l507 700h430v-113h-327v-180h327v-114h-327v-180h327v-113h-442zM298 232h186v256zM777 969l52 -83l-225 -141l-51 79z" />
    <glyph glyph-name="aeacute" unicode="&#x1fd;" horiz-adv-x="856" 
d="M805 82q-17 -19 -37 -36t-44.5 -30t-55.5 -20.5t-71 -7.5q-58 0 -104.5 24.5t-76.5 66.5q-12 -17 -29 -32.5t-39.5 -28.5t-53 -20.5t-69.5 -7.5q-41 0 -74 12t-56.5 34t-36.5 51t-13 64q0 37 13.5 64.5t35 45.5t50 28t58.5 13l144 13q11 1 16.5 7.5t5.5 14.5v19
q0 25 -25.5 40.5t-69.5 15.5q-45 0 -75 -16.5t-44 -62.5l-97 50q21 59 70 94t142 35q57 0 99 -18.5t67 -48.5q29 32 71 49.5t96 17.5t96 -20t71.5 -55t45.5 -83t16 -103v-39h-361q6 -57 39.5 -88.5t85.5 -31.5q54 0 89.5 20t64.5 52zM219 207q-32 -4 -48 -20t-16 -36
q0 -26 21.5 -41.5t62.5 -15.5q26 0 49.5 9t41 24.5t28 35.5t10.5 42v20zM713 304q-9 49 -37.5 76.5t-79.5 27.5q-47 0 -77.5 -26.5t-40.5 -76.5zM527 769l52 -83l-225 -141l-51 79z" />
    <glyph glyph-name="Oslashacute" unicode="&#x1fe;" horiz-adv-x="798" 
d="M399 700q52 0 98.5 -13.5t86.5 -36.5l60 71l71 -62l-58 -68q43 -47 67 -108t24 -133q0 -75 -26.5 -139t-73 -111t-110.5 -73.5t-139 -26.5q-56 0 -104.5 14.5t-90.5 41.5l-65 -77l-73 60l67 79q-39 46 -61 104.5t-22 127.5q0 75 26.5 139t73 111t110.5 73.5t139 26.5z
M399 114q51 0 94 17.5t74.5 49t49 75t17.5 94.5q0 45 -13.5 83.5t-38.5 68.5l-303 -358q26 -14 56 -22t64 -8zM164 350q0 -42 11.5 -78t32.5 -65l300 354q-50 25 -109 25q-51 0 -94 -18t-74.5 -49.5t-49 -74.5t-17.5 -94zM490 969l52 -83l-225 -141l-51 79z" />
    <glyph glyph-name="oslashacute" unicode="&#x1ff;" horiz-adv-x="582" 
d="M291 512q38 0 72 -10t64 -28l40 47l70 -62l-40 -48q26 -33 40.5 -74t14.5 -87q0 -54 -20.5 -102t-55.5 -83.5t-83 -56t-102 -20.5q-35 0 -66.5 8.5t-59.5 23.5l-35 -41l-72 60l34 40q-29 35 -45.5 78t-16.5 93q0 54 20.5 102t55.5 83.5t83 56t102 20.5zM377 769l52 -83
l-225 -141l-51 79zM142 250q0 -47 22 -86l194 228q-32 16 -67 16q-33 0 -60 -12.5t-47 -34t-31 -50t-11 -61.5zM291 92q33 0 60 12.5t47 34t31 50t11 61.5q0 39 -17 75l-188 -223q24 -10 56 -10z" />
    <glyph glyph-name="Scommaaccent" unicode="&#x218;" horiz-adv-x="585" 
d="M413 472q-12 57 -44 85.5t-79 28.5t-73.5 -23t-26.5 -59q0 -35 23.5 -54t58.5 -32.5t76.5 -26.5t76.5 -35.5t58.5 -59.5t23.5 -98q0 -51 -17.5 -88.5t-47 -62t-67.5 -36t-80 -11.5q-36 0 -73 9.5t-68.5 31t-55 56t-33.5 84.5l101 54q10 -61 44.5 -91t84.5 -30
q45 0 71.5 21t26.5 58q0 35 -23.5 55t-58.5 34t-76.5 27.5t-76.5 35.5t-58.5 58t-23.5 95q0 49 17.5 87t47 63.5t68.5 38.5t82 13q82 0 144.5 -47.5t84.5 -136.5zM255 -200q-21 10 -33 29t-12 40q0 15 6 29.5t16.5 26t25 18.5t31.5 7q18 0 33 -7t25.5 -18.5t16.5 -25.5
t6 -28q0 -12 -4 -23t-9 -19l-87 -154l-65 38z" />
    <glyph glyph-name="scommaaccent" unicode="&#x219;" horiz-adv-x="479" 
d="M120 167q20 -35 54.5 -55t71.5 -20q42 0 65.5 14.5t23.5 36.5q0 23 -20.5 34.5t-51.5 19.5t-67 16.5t-67 25t-51.5 45t-20.5 77.5q0 30 13 57t37.5 48t60.5 33.5t82 12.5q69 0 118.5 -30.5t75.5 -75.5l-81 -61q-17 27 -46 45t-67 18q-41 0 -63 -15.5t-22 -36.5t20.5 -32
t51.5 -18.5t66.5 -15.5t66.5 -24.5t51.5 -45.5t20.5 -77q0 -34 -14 -62.5t-40 -49t-62 -32t-80 -11.5q-36 0 -68.5 9t-60 24.5t-48.5 37t-34 46.5zM207 -200q-21 10 -33 29t-12 40q0 15 6 29.5t16.5 26t25 18.5t31.5 7q18 0 33 -7t25.5 -18.5t16.5 -25.5t6 -28q0 -12 -4 -23
t-9 -19l-87 -154l-65 38z" />
    <glyph glyph-name="uni021A" unicode="&#x21a;" horiz-adv-x="654" 
d="M649 586h-266v-583q22 -29 31.5 -55t9.5 -49q0 -48 -30 -73.5t-70 -25.5q-21 0 -39.5 5t-35.5 13v85q19 -7 32.5 -10.5t26.5 -3.5q8 0 16 6t8 20q0 15 -9 35.5t-33 49.5h-21v586h-264v114h644v-114z" />
    <glyph glyph-name="uni021B" unicode="&#x21b;" horiz-adv-x="384" 
d="M108 402h-93v98h93v134h106v-134h130v-98h-130v-261q0 -43 36 -44q42 -2 99 6v-97q-52 -11 -99 -11q-71 0 -106.5 34t-35.5 117v256zM169 -200q-21 10 -33 29t-12 40q0 15 6 29.5t16.5 26t25 18.5t31.5 7q18 0 33 -7t25.5 -18.5t16.5 -25.5t6 -28q0 -12 -4 -23t-9 -19
l-87 -154l-65 38z" />
    <glyph glyph-name="hsuperior" unicode="&#x2b0;" horiz-adv-x="398" 
d="M207 518q-38 0 -52.5 -25.5t-14.5 -68.5v-134h-80v420h80v-149q11 11 31.5 23.5t55.5 12.5q55 0 85.5 -36.5t30.5 -96.5v-174h-82v176q0 29 -15 40.5t-39 11.5z" />
    <glyph glyph-name="jsuperior" unicode="&#x2b2;" horiz-adv-x="219" 
d="M5 245q43 0 56.5 11t13.5 29v305h82v-305q0 -59 -33.5 -88t-118.5 -29v77zM63 670q0 22 15 37t38 15t38 -15t15 -37t-15 -37t-38 -15t-38 15t-15 37z" />
    <glyph glyph-name="wsuperior" unicode="&#x2b7;" horiz-adv-x="578" 
d="M316 590l79 -185l75 185h88l-135 -300h-58l-76 175l-76 -175h-58l-135 300h88l75 -185l79 185h54z" />
    <glyph glyph-name="ysuperior" unicode="&#x2b8;" horiz-adv-x="382" 
d="M157 345l-137 245h96l85 -154l74 154h87l-203 -424h-88z" />
    <glyph glyph-name="apostrophemod" unicode="&#x2bc;" horiz-adv-x="317" 
d="M155 552q-23 11 -35.5 31.5t-12.5 43.5q0 16 6.5 31t17.5 27t27 19.5t34 7.5q19 0 34.5 -7.5t27 -19.5t17.5 -26.5t6 -27.5q0 -14 -4.5 -26.5t-8.5 -19.5l-104 -185l-70 40z" />
    <glyph glyph-name="circumflex" unicode="&#x2c6;" horiz-adv-x="392" 
d="M73 540l-63 69l186 159l186 -159l-63 -70l-123 107z" />
    <glyph glyph-name="caron" unicode="&#x2c7;" horiz-adv-x="392" 
d="M196 671l123 107l63 -69l-186 -159l-186 159l63 69z" />
    <glyph glyph-name="breve" unicode="&#x2d8;" horiz-adv-x="320" 
d="M99 737q0 -35 16 -53.5t45 -18.5t45 18.5t16 53.5h89q0 -72 -39.5 -116.5t-110.5 -44.5q-70 0 -110 44.5t-40 116.5h89z" />
    <glyph glyph-name="dotaccent" unicode="&#x2d9;" horiz-adv-x="182" 
d="M10 641q0 34 23.5 57.5t57.5 23.5t57.5 -23.5t23.5 -57.5t-23.5 -57.5t-57.5 -23.5t-57.5 23.5t-23.5 57.5z" />
    <glyph glyph-name="ring" unicode="&#x2da;" horiz-adv-x="290" 
d="M97 680q0 -22 13 -34.5t34 -12.5q22 0 34.5 12.5t12.5 34.5t-12.5 34.5t-34.5 12.5q-21 0 -34 -12.5t-13 -34.5zM13 680q0 28 10 52t27.5 41.5t41.5 27.5t52 10t52 -10t41.5 -27.5t27.5 -41.5t10 -52t-10 -52t-27.5 -41.5t-41.5 -27.5t-52 -10t-52 10t-41.5 27.5
t-27.5 41.5t-10 52z" />
    <glyph glyph-name="ogonek" unicode="&#x2db;" horiz-adv-x="195" 
d="M178 38q-44 -45 -60 -74.5t-16 -48.5q0 -14 8 -20t16 -6q13 0 26.5 3.5t32.5 10.5v-85q-17 -8 -35.5 -13t-39.5 -5q-40 0 -70 25.5t-30 73.5q0 29 16 63t54 76h98z" />
    <glyph glyph-name="tilde" unicode="&#x2dc;" horiz-adv-x="374" 
d="M131 712q19 0 35 -6t29 -13.5t24.5 -13.5t22.5 -6q14 0 33 11.5t37 28.5l52 -65q-12 -12 -26 -23.5t-29.5 -21t-32.5 -15.5t-34 -6q-22 0 -38 6t-28.5 13.5t-23 13.5t-21.5 6q-14 0 -33 -11.5t-36 -28.5l-52 65q12 12 26 23.5t29.5 21t32 15.5t33.5 6z" />
    <glyph glyph-name="hungarumlaut" unicode="&#x2dd;" horiz-adv-x="389" 
d="M139 796l77 -54l-132 -190l-74 51zM302 782l77 -54l-132 -190l-74 51z" />
    <glyph glyph-name="xsuperior" unicode="&#x2e3;" horiz-adv-x="376" 
d="M188 379l-69 -89h-99l119 152l-115 148h99l65 -85l67 85h97l-115 -148l119 -152h-97z" />
    <glyph glyph-name="Delta" unicode="&#x394;" horiz-adv-x="740" 
d="M32 0l309 744h58l308 -744h-675zM555 86l-184 457l-185 -457h369z" />
    <glyph glyph-name="Omega" unicode="&#x3a9;" horiz-adv-x="740" 
d="M370 607q-52 0 -96 -18.5t-76 -50.5t-50 -76t-18 -96q0 -47 15.5 -86.5t43 -73t64.5 -61.5t80 -52v-93h-300v93h125q-29 24 -54 52.5t-44 62.5t-29.5 73t-10.5 83q0 77 26.5 141t73.5 110t111 71.5t139 25.5t139 -25.5t111 -71.5t73.5 -110t26.5 -141q0 -44 -11 -83
t-29.5 -73t-44 -62.5t-54.5 -52.5h125v-93h-299v93q42 24 79 51.5t64.5 61t43.5 73t16 87.5q0 52 -18 96t-50 76t-76 50.5t-96 18.5z" />
    <glyph glyph-name="mu" unicode="&#x3bc;" 
d="M337 92q33 0 56 12.5t38 35t22 53t7 65.5v242h106v-500h-106v56q-25 -29 -59.5 -48.5t-81.5 -19.5q-24 0 -44.5 4t-37.5 11v-203h-103v700h108v-292q0 -53 21 -84.5t74 -31.5z" />
    <glyph glyph-name="pi" unicode="&#x3c0;" 
d="M552 396v-396h-105v396h-148l-84 -396h-107l83 396q-45 -2 -78.5 -7.5t-53.5 -10.5v88q10 6 26.5 12t37 11t44 8.5t48.5 3.5h426v-105h-89z" />
    <glyph glyph-name="Wgrave" unicode="&#x1e80;" horiz-adv-x="1214" 
d="M657 700l224 -503l201 503h122l-278 -700h-81l-238 531l-237 -531h-81l-279 700h122l201 -503l224 503h100zM748 824l-51 -79l-225 141l52 83z" />
    <glyph glyph-name="wgrave" unicode="&#x1e81;" horiz-adv-x="861" 
d="M467 500l138 -329l129 329h117l-206 -500h-80l-134 318q-33 -78 -68.5 -159.5t-67.5 -158.5h-79l-206 500h117l128 -329l138 329h74zM568 624l-51 -79l-225 141l52 83z" />
    <glyph glyph-name="Wacute" unicode="&#x1e82;" horiz-adv-x="1214" 
d="M657 700l224 -503l201 503h122l-278 -700h-81l-238 531l-237 -531h-81l-279 700h122l201 -503l224 503h100zM698 969l52 -83l-225 -141l-51 79z" />
    <glyph glyph-name="wacute" unicode="&#x1e83;" horiz-adv-x="861" 
d="M467 500l138 -329l129 329h117l-206 -500h-80l-134 318q-33 -78 -68.5 -159.5t-67.5 -158.5h-79l-206 500h117l128 -329l138 329h74zM516 769l52 -83l-225 -141l-51 79z" />
    <glyph glyph-name="Wdieresis" unicode="&#x1e84;" horiz-adv-x="1214" 
d="M657 700l224 -503l201 503h122l-278 -700h-81l-238 531l-237 -531h-81l-279 700h122l201 -503l224 503h100zM419 834q0 33 22.5 55.5t55.5 22.5t55.5 -22.5t22.5 -55.5t-22.5 -55.5t-55.5 -22.5t-55.5 22.5t-22.5 55.5zM639 834q0 33 22.5 55.5t55.5 22.5
q32 0 54.5 -22.5t22.5 -55.5t-22.5 -55.5t-54.5 -22.5q-33 0 -55.5 22.5t-22.5 55.5z" />
    <glyph glyph-name="wdieresis" unicode="&#x1e85;" horiz-adv-x="861" 
d="M467 500l138 -329l129 329h117l-206 -500h-80l-134 318q-33 -78 -68.5 -159.5t-67.5 -158.5h-79l-206 500h117l128 -329l138 329h74zM243 634q0 33 22.5 55.5t55.5 22.5t55.5 -22.5t22.5 -55.5t-22.5 -55.5t-55.5 -22.5t-55.5 22.5t-22.5 55.5zM463 634q0 33 22.5 55.5
t55.5 22.5q32 0 54.5 -22.5t22.5 -55.5t-22.5 -55.5t-54.5 -22.5q-33 0 -55.5 22.5t-22.5 55.5z" />
    <glyph glyph-name="Ygrave" unicode="&#x1ef2;" horiz-adv-x="690" 
d="M288 0v292l-283 408h139l201 -291l201 291h139l-283 -408v-292h-114zM455 824l-51 -79l-225 141l52 83z" />
    <glyph glyph-name="ygrave" unicode="&#x1ef3;" horiz-adv-x="540" 
d="M138 500l143 -296l139 296h115l-324 -700h-117l128 278l-212 422h128zM368 624l-51 -79l-225 141l52 83z" />
    <glyph glyph-name="endash" unicode="&#x2013;" horiz-adv-x="913" 
d="M70 362h773v-112h-773v112z" />
    <glyph glyph-name="emdash" unicode="&#x2014;" horiz-adv-x="1339" 
d="M70 362h1199v-112h-1199v112z" />
    <glyph glyph-name="quoteleft" unicode="&#x2018;" horiz-adv-x="257" 
d="M157 575q23 -11 35.5 -31.5t12.5 -43.5q0 -16 -6.5 -31t-17.5 -27t-27 -19.5t-34 -7.5q-19 0 -34.5 7.5t-27 19.5t-17.5 26t-6 28t4.5 26.5t8.5 19.5l104 185l70 -40z" />
    <glyph glyph-name="quoteright" unicode="&#x2019;" horiz-adv-x="317" 
d="M155 552q-23 11 -35.5 31.5t-12.5 43.5q0 16 6.5 31t17.5 27t27 19.5t34 7.5q19 0 34.5 -7.5t27 -19.5t17.5 -26.5t6 -27.5q0 -14 -4.5 -26.5t-8.5 -19.5l-104 -185l-70 40z" />
    <glyph glyph-name="quotesinglbase" unicode="&#x201a;" horiz-adv-x="387" 
d="M165 7q-23 11 -35.5 31.5t-12.5 43.5q0 16 6.5 31t17.5 27t27 19.5t34 7.5q19 0 34.5 -7.5t27 -19.5t17.5 -26.5t6 -27.5q0 -14 -4.5 -26.5t-8.5 -19.5l-104 -185l-70 40z" />
    <glyph glyph-name="quotedblleft" unicode="&#x201c;" horiz-adv-x="440" 
d="M351 575q23 -11 35.5 -31.5t12.5 -43.5q0 -16 -6.5 -31t-17.5 -27t-27 -19.5t-34 -7.5q-19 0 -34.5 7.5t-27 19.5t-17.5 26t-6 28t4.5 26.5t8.5 19.5l104 185l70 -40zM152 575q23 -11 35.5 -31.5t12.5 -43.5q0 -16 -6.5 -31t-17.5 -27t-27 -19.5t-34 -7.5
q-19 0 -34.5 7.5t-27 19.5t-17.5 26t-6 28t4.5 26.5t8.5 19.5l104 185l70 -40z" />
    <glyph glyph-name="quotedblright" unicode="&#x201d;" horiz-adv-x="396" 
d="M70 552q-23 11 -35.5 31.5t-12.5 43.5q0 16 6.5 31t17.5 27t27 19.5t34 7.5q19 0 34.5 -7.5t27 -19.5t17.5 -26.5t6 -27.5q0 -14 -4.5 -26.5t-8.5 -19.5l-104 -185l-70 40zM269 552q-23 11 -35.5 31.5t-12.5 43.5q0 16 6.5 31t17.5 27t27 19.5t34 7.5q19 0 34.5 -7.5
t27 -19.5t17.5 -26.5t6 -27.5q0 -14 -4.5 -26.5t-8.5 -19.5l-104 -185l-70 40z" />
    <glyph glyph-name="quotedblbase" unicode="&#x201e;" horiz-adv-x="395" 
d="M70 7q-23 11 -35.5 31.5t-12.5 43.5q0 16 6.5 31t17.5 27t27 19.5t34 7.5q19 0 34.5 -7.5t27 -19.5t17.5 -26.5t6 -27.5q0 -14 -4.5 -26.5t-8.5 -19.5l-104 -185l-70 40zM269 7q-23 11 -35.5 31.5t-12.5 43.5q0 16 6.5 31t17.5 27t27 19.5t34 7.5q19 0 34.5 -7.5
t27 -19.5t17.5 -26.5t6 -27.5q0 -14 -4.5 -26.5t-8.5 -19.5l-104 -185l-70 40z" />
    <glyph glyph-name="dagger" unicode="&#x2020;" horiz-adv-x="488" 
d="M15 500h179v236h100v-236h179v-88h-179v-504h-100v504h-179v88z" />
    <glyph glyph-name="daggerdbl" unicode="&#x2021;" horiz-adv-x="488" 
d="M15 530h179v211h100v-211h179v-88h-179v-207h179v-88h-179v-244h-100v244h-179v88h179v207h-179v88z" />
    <glyph glyph-name="bullet" unicode="&#x2022;" horiz-adv-x="441" 
d="M90 316q0 28 10 52t27 41.5t41 27.5t52 10t52 -10t41.5 -27.5t27.5 -41.5t10 -52t-10 -52t-27.5 -41t-41.5 -27t-52 -10q-57 0 -93.5 36.5t-36.5 93.5z" />
    <glyph glyph-name="ellipsis" unicode="&#x2026;" horiz-adv-x="885" 
d="M65 87q0 37 25 62.5t62 25.5q38 0 63 -25.5t25 -62.5t-25 -62t-63 -25q-37 0 -62 25t-25 62zM355 87q0 37 25 62.5t62 25.5t62.5 -25.5t25.5 -62.5t-25.5 -62t-62.5 -25t-62 25t-25 62zM645 87q0 37 25 62.5t62 25.5t62.5 -25.5t25.5 -62.5t-25.5 -62t-62.5 -25t-62 25
t-25 62z" />
    <glyph glyph-name="perthousand" unicode="&#x2030;" horiz-adv-x="1046" 
d="M350 147q0 33 12.5 62t34 51t50.5 34.5t62 12.5t62 -12.5t51 -34.5t34.5 -51t12.5 -62t-12.5 -62t-34.5 -50.5t-51 -34t-62 -12.5t-62 12.5t-50.5 34t-34 50.5t-12.5 62zM439 147q0 -29 20.5 -49.5t49.5 -20.5t49.5 20.5t20.5 49.5t-20.5 49.5t-49.5 20.5t-49.5 -20.5
t-20.5 -49.5zM707 147q0 33 12.5 62t34 51t50.5 34.5t62 12.5t62 -12.5t51 -34.5t34.5 -51t12.5 -62t-12.5 -62t-34.5 -50.5t-51 -34t-62 -12.5t-62 12.5t-50.5 34t-34 50.5t-12.5 62zM796 147q0 -29 20.5 -49.5t49.5 -20.5t49.5 20.5t20.5 49.5t-20.5 49.5t-49.5 20.5
t-49.5 -20.5t-20.5 -49.5zM30 542q0 33 12.5 62t34 51t50.5 34.5t62 12.5t62 -12.5t51 -34.5t34.5 -51t12.5 -62t-12.5 -62t-34.5 -50.5t-51 -34t-62 -12.5t-62 12.5t-50.5 34t-34 50.5t-12.5 62zM119 542q0 -29 20.5 -49.5t49.5 -20.5t49.5 20.5t20.5 49.5t-20.5 49.5
t-49.5 20.5t-49.5 -20.5t-20.5 -49.5zM48 52l538 648l65 -52l-538 -648z" />
    <glyph glyph-name="guilsinglleft" unicode="&#x2039;" horiz-adv-x="395" 
d="M251 32l-191 218l191 218l74 -67l-136 -151l136 -152z" />
    <glyph glyph-name="guilsinglright" unicode="&#x203a;" horiz-adv-x="385" 
d="M40 98l136 152l-136 151l74 67l191 -218l-191 -218z" />
    <glyph glyph-name="fraction" unicode="&#x2044;" horiz-adv-x="613" 
d="M18 43l523 659l54 -44l-523 -660z" />
    <glyph glyph-name="zerosuperior" unicode="&#x2070;" horiz-adv-x="518" 
d="M260 790q43 0 80.5 -15t65 -42.5t43.5 -66t16 -86.5t-16 -86.5t-43.5 -66t-65 -42.5t-80.5 -15q-44 0 -81.5 15t-65 42.5t-43.5 66t-16 86.5t16 86.5t43.5 66t65 42.5t81.5 15zM260 450q54 0 89.5 34t35.5 96t-35.5 96t-89.5 34q-55 0 -90.5 -34t-35.5 -96t35.5 -96
t90.5 -34zM311 580q0 -22 -14.5 -36.5t-36.5 -14.5q-23 0 -37.5 14.5t-14.5 36.5t14.5 37t37.5 15q22 0 36.5 -15t14.5 -37z" />
    <glyph glyph-name="foursuperior" unicode="&#x2074;" horiz-adv-x="477" 
d="M434 531v-80h-87v-81h-80v81h-233v67l249 272h64v-259h87zM267 660l-121 -129h121v129z" />
    <glyph glyph-name="fivesuperior" unicode="&#x2075;" horiz-adv-x="420" 
d="M90 790h264v-80h-184v-54q8 1 15.5 1.5t15.5 0.5q69 0 111 -38t42 -107q0 -36 -13.5 -63t-35.5 -45t-51 -26.5t-60 -8.5q-39 0 -73 13t-61 35l41 71q26 -21 50.5 -30t46.5 -9q30 0 53 16.5t23 48.5q0 29 -20 46t-60 17q-21 0 -49 -5t-55 -15v232z" />
    <glyph glyph-name="sixsuperior" unicode="&#x2076;" horiz-adv-x="417" 
d="M226 653q28 0 53 -10.5t44 -29t29.5 -44t10.5 -56.5q0 -32 -11 -58t-31 -45t-47.5 -29.5t-59.5 -10.5q-44 0 -75 18t-49 44q-14 21 -22 50t-8 75q0 109 44.5 171t128.5 62q38 0 63.5 -12t48.5 -29l-44 -65q-16 11 -32.5 18.5t-38.5 7.5q-32 0 -53 -19t-33 -70
q14 14 33.5 23t48.5 9zM143 511q0 -30 21.5 -45.5t50.5 -15.5q30 0 49 16t19 45q0 28 -18.5 45.5t-50.5 17.5q-31 0 -51 -17t-20 -46z" />
    <glyph glyph-name="sevensuperior" unicode="&#x2077;" horiz-adv-x="387" 
d="M346 725l-190 -355h-91l182 340h-206v80h305v-65z" />
    <glyph glyph-name="eightsuperior" unicode="&#x2078;" horiz-adv-x="400" 
d="M200 370q-61 0 -100 32.5t-39 86.5q0 34 15 56t35 36q-20 14 -35 35.5t-15 56.5q0 54 39.5 85.5t99.5 31.5t99.5 -31.5t39.5 -85.5q0 -35 -15 -56.5t-35 -35.5q20 -14 35 -35.5t15 -56.5q0 -54 -39 -86.5t-100 -32.5zM200 621q26 0 42.5 12.5t16.5 32.5t-16.5 32
t-42.5 12t-42.5 -12t-16.5 -32t16.5 -32.5t42.5 -12.5zM200 450q26 0 42.5 12.5t16.5 32.5t-16.5 33t-42.5 13t-42.5 -13t-16.5 -33t16.5 -32.5t42.5 -12.5z" />
    <glyph glyph-name="ninesuperior" unicode="&#x2079;" horiz-adv-x="420" 
d="M358 586q0 -39 -7 -78t-26.5 -69.5t-53.5 -49.5t-87 -19q-33 0 -59.5 8t-55.5 25l33 72q25 -14 46 -19.5t44 -5.5q32 0 54.5 17.5t28.5 64.5q-21 -17 -43.5 -23t-40.5 -6q-26 0 -50.5 10t-44 29t-31 46t-11.5 60q0 31 11 57.5t31 45t48 29t62 10.5q25 0 52 -8t49.5 -30
t36.5 -62t14 -104zM276 646q0 32 -21 48t-50 16q-32 0 -51.5 -17.5t-19.5 -47.5q0 -29 19 -46t51 -17t52 17t20 47z" />
    <glyph glyph-name="plussuperior" unicode="&#x207a;" horiz-adv-x="425" 
d="M56 602h116v113h80v-113h116v-80h-116v-113h-80v113h-116v80z" />
    <glyph glyph-name="minussuperior" unicode="&#x207b;" horiz-adv-x="387" 
d="M38 602h296v-80h-296v80z" />
    <glyph glyph-name="equalsuperior" unicode="&#x207c;" horiz-adv-x="406" 
d="M359 575h-312v80h312v-80zM359 441h-312v80h312v-80z" />
    <glyph glyph-name="parenleftsuperior" unicode="&#x207d;" horiz-adv-x="254" 
d="M41 571q0 81 32 155.5t92 132.5l52 -46q-49 -54 -74.5 -112t-25.5 -130t25.5 -130.5t74.5 -112.5l-52 -46q-60 59 -92 133.5t-32 155.5z" />
    <glyph glyph-name="parenrightsuperior" unicode="&#x207e;" horiz-adv-x="254" 
d="M213 571q0 -81 -32 -155.5t-92 -133.5l-52 46q49 54 74.5 112.5t25.5 130.5t-25.5 130t-74.5 112l52 46q60 -58 92 -132.5t32 -155.5z" />
    <glyph glyph-name="nsuperior" unicode="&#x207f;" horiz-adv-x="406" 
d="M208 518q-32 0 -50 -20.5t-18 -73.5v-134h-80v300h82v-29q17 16 36.5 26t50.5 10t53 -10.5t36.5 -29.5t21 -44t6.5 -53v-170h-81v167q0 32 -14.5 46.5t-42.5 14.5z" />
    <glyph glyph-name="zeroinferior" unicode="&#x2080;" horiz-adv-x="518" 
d="M260 355q43 0 80.5 -15t65 -42.5t43.5 -66t16 -86.5t-16 -86.5t-43.5 -66t-65 -42.5t-80.5 -15q-44 0 -81.5 15t-65 42.5t-43.5 66t-16 86.5t16 86.5t43.5 66t65 42.5t81.5 15zM260 15q54 0 89.5 34t35.5 96t-35.5 96t-89.5 34q-55 0 -90.5 -34t-35.5 -96t35.5 -96
t90.5 -34zM311 145q0 -22 -14.5 -36.5t-36.5 -14.5q-23 0 -37.5 14.5t-14.5 36.5t14.5 37t37.5 15q22 0 36.5 -15t14.5 -37z" />
    <glyph glyph-name="oneinferior" unicode="&#x2081;" horiz-adv-x="343" 
d="M264 355v-420h-80v300l-84 -81l-58 56l151 145h71z" />
    <glyph glyph-name="twoinferior" unicode="&#x2082;" horiz-adv-x="431" 
d="M60 265q20 37 56.5 63.5t92.5 26.5q31 0 57 -9t45 -26t29.5 -40.5t10.5 -51.5q0 -38 -16 -66.5t-36 -48.5l-102 -98h154v-80h-281v64l171 168q11 11 19 26.5t8 30.5q0 20 -15.5 35.5t-44.5 15.5q-31 0 -51 -18.5t-34 -44.5z" />
    <glyph glyph-name="threeinferior" unicode="&#x2083;" horiz-adv-x="407" 
d="M261 229q0 20 -15.5 33t-40.5 13q-23 0 -44 -12.5t-36 -42.5l-61 50q8 16 20.5 31t30 27t39.5 19.5t49 7.5q61 0 99.5 -33.5t38.5 -87.5q0 -35 -17 -56t-38 -32q23 -11 39 -34.5t16 -58.5q0 -51 -36 -84.5t-99 -33.5q-54 0 -90.5 25.5t-55.5 68.5l67 51q13 -29 31.5 -47
t46.5 -18q24 0 40 11.5t16 32.5q0 20 -15.5 33t-49.5 13h-24v79h24q33 0 49 12t16 33z" />
    <glyph glyph-name="fourinferior" unicode="&#x2084;" horiz-adv-x="477" 
d="M434 96v-80h-87v-81h-80v81h-233v67l249 272h64v-259h87zM267 225l-121 -129h121v129z" />
    <glyph glyph-name="fiveinferior" unicode="&#x2085;" horiz-adv-x="420" 
d="M90 355h264v-80h-184v-54q8 1 15.5 1.5t15.5 0.5q69 0 111 -38t42 -107q0 -36 -13.5 -63t-35.5 -45t-51 -26.5t-60 -8.5q-39 0 -73 13t-61 35l41 71q26 -21 50.5 -30t46.5 -9q30 0 53 16.5t23 48.5q0 29 -20 46t-60 17q-21 0 -49 -5t-55 -15v232z" />
    <glyph glyph-name="sixinferior" unicode="&#x2086;" horiz-adv-x="417" 
d="M226 218q28 0 53 -10.5t44 -29t29.5 -44t10.5 -56.5q0 -32 -11 -58t-31 -45t-47.5 -29.5t-59.5 -10.5q-44 0 -75 18t-49 44q-14 21 -22 50t-8 75q0 109 44.5 171t128.5 62q38 0 63.5 -12t48.5 -29l-44 -65q-16 11 -32.5 18.5t-38.5 7.5q-32 0 -53 -19t-33 -70
q14 14 33.5 23t48.5 9zM143 76q0 -30 21.5 -45.5t50.5 -15.5q30 0 49 16t19 45q0 28 -18.5 45.5t-50.5 17.5q-31 0 -51 -17t-20 -46z" />
    <glyph glyph-name="seveninferior" unicode="&#x2087;" horiz-adv-x="387" 
d="M346 290l-190 -355h-91l182 340h-206v80h305v-65z" />
    <glyph glyph-name="eightinferior" unicode="&#x2088;" horiz-adv-x="400" 
d="M200 -65q-61 0 -100 32.5t-39 86.5q0 34 15 56t35 36q-20 14 -35 35.5t-15 56.5q0 54 39.5 85.5t99.5 31.5t99.5 -31.5t39.5 -85.5q0 -35 -15 -56.5t-35 -35.5q20 -14 35 -35.5t15 -56.5q0 -54 -39 -86.5t-100 -32.5zM200 186q26 0 42.5 12.5t16.5 32.5t-16.5 32
t-42.5 12t-42.5 -12t-16.5 -32t16.5 -32.5t42.5 -12.5zM200 15q26 0 42.5 12.5t16.5 32.5t-16.5 33t-42.5 13t-42.5 -13t-16.5 -33t16.5 -32.5t42.5 -12.5z" />
    <glyph glyph-name="nineinferior" unicode="&#x2089;" horiz-adv-x="420" 
d="M357 151q0 -39 -7 -78t-26.5 -69.5t-53.5 -49.5t-87 -19q-33 0 -59.5 8t-55.5 25l33 72q25 -14 46 -19.5t44 -5.5q32 0 54.5 17.5t28.5 64.5q-21 -17 -43.5 -23t-40.5 -6q-26 0 -50.5 10t-44 29t-31 46t-11.5 60q0 31 11 57.5t31 45t48 29t62 10.5q25 0 52 -8t49.5 -30
t36.5 -62t14 -104zM275 211q0 32 -21 48t-50 16q-32 0 -51.5 -17.5t-19.5 -47.5q0 -29 19 -46t51 -17t52 17t20 47z" />
    <glyph glyph-name="parenleftinferior" unicode="&#x208d;" horiz-adv-x="254" 
d="M41 136q0 81 32 155.5t92 132.5l52 -46q-49 -54 -74.5 -112t-25.5 -130t25.5 -130.5t74.5 -112.5l-52 -46q-60 59 -92 133.5t-32 155.5z" />
    <glyph glyph-name="parenrightinferior" unicode="&#x208e;" horiz-adv-x="254" 
d="M213 136q0 -81 -32 -155.5t-92 -133.5l-52 46q49 54 74.5 112.5t25.5 130.5t-25.5 130t-74.5 112l52 46q60 -58 92 -132.5t32 -155.5z" />
    <glyph glyph-name="Euro" unicode="&#x20ac;" horiz-adv-x="735" 
d="M296 226q27 -59 77 -86.5t106 -27.5q28 0 57 7t62 24l17 -111q-41 -17 -74 -24.5t-68 -7.5q-56 0 -103.5 17.5t-84.5 48t-63.5 72t-41.5 88.5h-115l44 90h53q-1 8 -1 16v16v20h-84l42 90h58q14 49 41 91t66 73.5t88.5 49.5t108.5 18q60 0 115.5 -20t108.5 -65l-48 -108
q-38 40 -85 61t-94 21q-25 0 -51.5 -6.5t-51.5 -21t-46 -37.5t-35 -56h345l-42 -90h-323q-1 -6 -1 -11.5v-11.5v-15t1 -14h302l-44 -90h-236z" />
    <glyph glyph-name="afii61289" unicode="&#x2113;" horiz-adv-x="481" 
d="M251 -12q-68 0 -111.5 43.5t-43.5 132.5l-43 -32l-45 65q21 16 43 33t45 38v268q0 63 12 105.5t32 68.5t46.5 37t55.5 11q62 0 95.5 -43.5t33.5 -113.5q0 -46 -14.5 -93.5t-40 -94t-59.5 -91t-73 -83.5v-53q0 -108 73 -108q30 0 52 26.5t41 64.5l71 -44
q-32 -66 -71.5 -101.5t-98.5 -35.5zM184 362q42 54 69.5 117t27.5 123q0 34 -11 51.5t-29 17.5q-23 0 -40 -29t-17 -101v-179z" />
    <glyph glyph-name="afii61352" unicode="&#x2116;" horiz-adv-x="1411" 
d="M827 95h423v-95h-423v95zM605 0l-414 503v-503h-114v700h101l416 -508v508h114v-700h-103zM1040 641q49 0 92 -17.5t74 -49t49 -74t18 -91.5q0 -50 -18 -92t-49 -73.5t-74 -49t-92 -17.5q-50 0 -92.5 17.5t-73.5 49t-49 73.5t-18 92q0 49 18 91.5t49 74t73.5 49
t92.5 17.5zM1040 275q28 0 51.5 10.5t41 28.5t27 42.5t9.5 52.5t-9.5 52.5t-27 42.5t-41 28.5t-51.5 10.5t-51.5 -10.5t-41 -28.5t-27 -42.5t-9.5 -52.5t9.5 -52.5t27 -42.5t41 -28.5t51.5 -10.5z" />
    <glyph glyph-name="trademark" unicode="&#x2122;" horiz-adv-x="898" 
d="M376 608h-136v-302h-93v302h-137v92h366v-92zM619 306l-110 193v-193h-93v394h84l153 -265l150 265h85v-394h-93v193l-110 -193h-66z" />
    <glyph glyph-name="uni2126" unicode="&#x2126;" horiz-adv-x="740" 
d="M370 607q-52 0 -96 -18.5t-76 -50.5t-50 -76t-18 -96q0 -47 15.5 -86.5t43 -73t64.5 -61.5t80 -52v-93h-300v93h125q-29 24 -54 52.5t-44 62.5t-29.5 73t-10.5 83q0 77 26.5 141t73.5 110t111 71.5t139 25.5t139 -25.5t111 -71.5t73.5 -110t26.5 -141q0 -44 -11 -83
t-29.5 -73t-44 -62.5t-54.5 -52.5h125v-93h-299v93q42 24 79 51.5t64.5 61t43.5 73t16 87.5q0 52 -18 96t-50 76t-76 50.5t-96 18.5z" />
    <glyph glyph-name="estimated" unicode="&#x212e;" horiz-adv-x="768" 
d="M164 290v-140q0 -20 5.5 -35t13.5 -26t17 -18.5t16 -12.5q37 -23 81 -34t91 -11q68 0 127.5 24.5t100.5 68.5h49q-48 -56 -120.5 -89.5t-158.5 -33.5q-73 0 -137 25t-111.5 67.5t-75 100t-27.5 123.5t27.5 123.5t75 100t111.5 67.5t137 25t137 -25t112 -67.5t75.5 -100
t27.5 -123.5v-9h-574zM609 460q0 33 -15.5 50t-28.5 26q-37 26 -82 38t-95 12q-48 0 -91.5 -11.5t-80.5 -34.5q-7 -5 -16 -11.5t-17 -15.5t-13.5 -20.5t-5.5 -26.5v-148h445v142z" />
    <glyph glyph-name="arrowleft" unicode="&#x2190;" horiz-adv-x="938" 
d="M429 639l64 -71l-184 -165h529v-100h-529l184 -165l-64 -71l-329 286z" />
    <glyph glyph-name="arrowup" unicode="&#x2191;" horiz-adv-x="772" 
d="M672 386l-75 -65l-161 185v-506h-100v506l-161 -185l-75 65l286 329z" />
    <glyph glyph-name="arrowright" unicode="&#x2192;" horiz-adv-x="938" 
d="M838 353l-329 -286l-64 71l184 165h-529v100h529l-184 165l64 71z" />
    <glyph glyph-name="arrowdown" unicode="&#x2193;" horiz-adv-x="772" 
d="M386 -18l-286 329l75 65l161 -185v506h100v-506l161 185l75 -65z" />
    <glyph glyph-name="uni2196" unicode="&#x2196;" horiz-adv-x="757" 
d="M100 615l435 -30l-5 -96l-247 13l374 -374l-70 -70l-374 374l13 -247l-96 -5z" />
    <glyph glyph-name="uni2197" unicode="&#x2197;" horiz-adv-x="757" 
d="M627 180l-96 5l13 247l-374 -374l-70 70l374 374l-247 -13l-5 96l435 30z" />
    <glyph glyph-name="uni2198" unicode="&#x2198;" horiz-adv-x="757" 
d="M657 74l-435 30l5 96l247 -13l-374 374l70 70l374 -374l-13 247l96 5z" />
    <glyph glyph-name="uni2199" unicode="&#x2199;" horiz-adv-x="757" 
d="M130 509l96 -5l-13 -247l374 374l70 -70l-374 -374l247 13l5 -96l-435 -30z" />
    <glyph glyph-name="partialdiff" unicode="&#x2202;" 
d="M121 656q33 24 84.5 44t111.5 20q56 0 105.5 -21.5t87 -65.5t59 -111.5t21.5 -160.5q0 -78 -16.5 -146t-49.5 -118.5t-82.5 -79.5t-115.5 -29q-54 0 -95 19.5t-68 51.5t-40.5 73t-13.5 85q0 53 18.5 97.5t50 76t73 49t86.5 17.5t80.5 -15.5t58.5 -33.5q-2 46 -15.5 84.5
t-36 66t-51 42.5t-60.5 15q-20 0 -40 -5t-38.5 -13.5t-35.5 -18.5t-30 -19zM328 93q29 0 53.5 14t43 39t30.5 59t17 74q-8 13 -21.5 26t-30.5 23.5t-36 17t-39 6.5q-26 0 -48.5 -11t-39 -30t-26.5 -44.5t-10 -53.5q0 -26 8 -47.5t22 -38t34 -25.5t43 -9z" />
    <glyph glyph-name="uni2206" unicode="&#x2206;" horiz-adv-x="740" 
d="M32 0l309 744h58l308 -744h-675zM555 86l-184 457l-185 -457h369z" />
    <glyph glyph-name="product" unicode="&#x220f;" 
d="M553 598v-698h-104v698h-197v-698h-105v698h-114v102h634v-102h-114z" />
    <glyph glyph-name="summation" unicode="&#x2211;" 
d="M108 -100v72l230 338l-219 320v70h459v-102h-305l195 -288l-208 -308h331v-102h-483z" />
    <glyph glyph-name="minus" unicode="&#x2212;" 
d="M119 375h461v-114h-461v114z" />
    <glyph glyph-name="radical" unicode="&#x221a;" 
d="M365 -53l-184 447l-71 -31l-38 87l167 72l153 -381l142 757l94 -13l-179 -938h-84z" />
    <glyph glyph-name="infinity" unicode="&#x221e;" horiz-adv-x="740" 
d="M196 215q32 0 60 24t57 58q-29 35 -56.5 59t-60.5 24q-32 0 -54.5 -23.5t-22.5 -59.5q0 -35 22.5 -58.5t54.5 -23.5zM541 131q-55 0 -96.5 28.5t-74.5 66.5q-34 -38 -75.5 -66.5t-96.5 -28.5q-35 0 -66 12.5t-54.5 34.5t-37.5 52.5t-14 66.5t14 67t37.5 53t54.5 34.5
t66 12.5q55 0 96 -28.5t76 -69.5q35 41 76 69.5t96 28.5q34 0 65 -12.5t54.5 -34.5t37.5 -53t14 -67t-14 -66.5t-37.5 -52.5t-54.5 -34.5t-66 -12.5zM543 215q32 0 55 23.5t23 58.5q0 36 -23 59.5t-55 23.5q-33 0 -60.5 -24t-56.5 -59q29 -34 57 -58t60 -24z" />
    <glyph glyph-name="integral" unicode="&#x222b;" 
d="M298 714q0 66 31.5 97.5t77.5 31.5q19 0 40.5 -3t44.5 -8v-100q-22 4 -35.5 5.5t-27.5 1.5q-28 0 -28 -33v-772q0 -66 -31.5 -97.5t-76.5 -31.5q-19 0 -41 3t-45 8v100q23 -3 36 -5t27 -2q28 0 28 33v772z" />
    <glyph glyph-name="approxequal" unicode="&#x2248;" 
d="M457 302q-28 0 -56 11.5t-55 26t-53 26t-51 11.5q-28 0 -53 -13.5t-55 -40.5l-64 81q34 33 78.5 58.5t94.5 25.5q31 0 61 -11.5t57.5 -25.5t52 -25.5t44.5 -11.5q23 0 49 15t52 38l65 -78q-18 -16 -38.5 -31.5t-42 -28t-43.5 -20t-43 -7.5zM462 96q-28 0 -56 11.5t-55 26
t-53 26t-51 11.5q-28 0 -53 -13.5t-55 -40.5l-64 81q34 33 78.5 58.5t94.5 25.5q31 0 61 -11.5t57.5 -25.5t52 -25.5t44.5 -11.5q23 0 49 15t52 38l65 -78q-18 -16 -38.5 -31.5t-42 -28t-43.5 -20t-43 -7.5z" />
    <glyph glyph-name="notequal" unicode="&#x2260;" 
d="M593 140h-277l-65 -123l-88 46l40 77h-97v107h154l48 92h-202v107h259l57 107l90 -46l-33 -61h114v-107h-171l-49 -92h220v-107z" />
    <glyph glyph-name="lessequal" unicode="&#x2264;" 
d="M556 227l-444 130v93l442 130l29 -95l-287 -81l289 -80zM110 173h479v-106h-479v106z" />
    <glyph glyph-name="greaterequal" unicode="&#x2265;" 
d="M114 324l289 80l-287 81l29 95l442 -130v-93l-444 -130zM589 67h-479v106h479v-106z" />
    <glyph glyph-name="lozenge" unicode="&#x25ca;" 
d="M393 -80h-86l-201 409l201 411h86l200 -411zM350 611l-136 -282l136 -280l136 280z" />
    <glyph glyph-name="ffi" unicode="&#xfb03;" horiz-adv-x="963" 
d="M528 402v-402h-106v402h-214v-402h-106v402h-87v98h87v24q0 100 43.5 142.5t120.5 42.5q17 0 39.5 -2t46.5 -7v-100q-21 3 -39.5 5t-36.5 2q-35 0 -51.5 -17.5t-16.5 -65.5v-24h214v24q0 100 43.5 142.5t120.5 42.5q17 0 39.5 -2t46.5 -7v-100q-21 3 -39.5 5t-36.5 2
q-35 0 -51.5 -17.5t-16.5 -65.5v-24h352v-500h-108v402h-244zM748 629q0 33 22.5 55.5t55.5 22.5t55.5 -22.5t22.5 -55.5t-22.5 -55.5t-55.5 -22.5t-55.5 22.5t-22.5 55.5z" />
    <glyph glyph-name="ffl" unicode="&#xfb04;" horiz-adv-x="927" 
d="M208 0h-106v402h-87v98h87v24q0 100 43.5 142.5t120.5 42.5q17 0 39.5 -2t46.5 -7v-100q-21 3 -39.5 5t-36.5 2q-35 0 -51.5 -17.5t-16.5 -65.5v-24h215v24q0 100 43.5 142.5t120.5 42.5q17 0 39.5 -2t46.5 -7v-100q-21 3 -39.5 5t-36.5 2q-35 0 -51.5 -17.5t-16.5 -65.5
v-24h137v-98h-137v-402h-106v402h-215v-402zM749 0v700h108v-700h-108z" />
    <glyph glyph-name="apple" horiz-adv-x="885" 
d="M494 494q34 0 55 -21t21 -53q0 -33 -21 -55t-55 -22q-32 0 -53.5 22t-21.5 55q0 32 21.5 53t53.5 21zM494 378q17 0 29.5 11.5t12.5 30.5q0 17 -12.5 28.5t-29.5 11.5t-28.5 -11.5t-11.5 -28.5q0 -19 11.5 -30.5t28.5 -11.5zM296 579h41l-61 -90v-62h-35v63l-61 89h41
l37 -52zM719 283h-34v96h34v-96zM702 271q10 0 16 -6t6 -15q0 -22 -22 -22q-9 0 -15 6t-6 16q0 9 6 15t15 6zM711 454q61 0 87 -24t26 -61v-246q-36 22 -64 29.5t-48 7.5q-29 0 -57 -9.5t-59 -9.5q-57 0 -57 52v77q-10 1 -19.5 2t-18.5 1q-34 0 -67 -8.5t-68 -8.5
q-33 0 -47 14t-14 38v58h-5q-20 0 -42 -4t-43.5 -9.5t-41.5 -12.5t-36 -13v-327h-53v633q-7 7 -12 17t-5 20q0 19 12 30.5t32 11.5q17 0 30 -11.5t13 -30.5q0 -23 -17 -37v-8q36 14 80 25.5t80 11.5q21 0 41 -5.5t35.5 -16t25 -27.5t9.5 -39v-15q17 4 41 7t52 3q24 0 49 -4
t45.5 -14t33 -27t12.5 -43v-37q15 4 31.5 7t38.5 3zM299 409q15 0 32.5 -2.5t33.5 -7.5v175q0 25 -21 35t-46 10q-17 0 -38 -3.5t-43 -9.5t-43 -13t-37 -14v-208q42 17 83 27.5t79 10.5zM501 315q24 0 50 -5t47 -14v178q0 6 -2 15t-11 17t-28 14t-54 6q-22 0 -44 -2.5
t-51 -7.5v-159q0 -18 -11.5 -25t-26.5 -12l-16.5 -5.5t-7.5 -8.5q0 -8 19 -8q33 0 66 8.5t70 8.5zM782 368q0 25 -20 33.5t-50 8.5q-18 0 -33.5 -2.5t-37.5 -7.5v-156q0 -17 -9.5 -23.5t-28.5 -14.5q-9 -4 -15.5 -7.5t-6.5 -8.5q0 -8 16 -8q14 0 28 3.5t27.5 7t28 7
t30.5 3.5q36 0 71 -11v176zM598 248q0 5 -17 12v-22q17 8 17 10zM348 352q5 2 8 2.5t8 1.5q-4 7 -16 7v-11z" />
    <glyph glyph-name="asuperior" horiz-adv-x="387" 
d="M252 487q0 34 -64 34q-29 0 -50 -7.5t-39 -22.5l-41 59q25 21 57 34t74 13q78 0 110.5 -33t32.5 -87v-187h-80v26q-11 -10 -33.5 -21t-56.5 -11q-51 0 -81.5 27t-30.5 69q0 38 24.5 62.5t71.5 28.5l99 8q7 0 7 8zM157 406q-28 -3 -28 -25q0 -25 42 -25q32 0 55.5 17.5
t25.5 43.5z" />
    <glyph glyph-name="bsuperior" horiz-adv-x="420" 
d="M234 597q30 0 57.5 -11t48 -31.5t33 -49t12.5 -64.5t-13 -65.5t-34 -50t-48.5 -31.5t-56.5 -11q-56 0 -93 39v-32h-80v420h80v-149q20 17 42.5 26.5t51.5 9.5zM219 362q37 0 58 21t21 57t-21 57t-58 21q-38 0 -59.5 -21.5t-21.5 -56.5t21.5 -56.5t59.5 -21.5z" />
    <glyph glyph-name="csuperior" horiz-adv-x="359" 
d="M35 440q0 36 12.5 65.5t34.5 49.5t51.5 31t63.5 11q45 0 75.5 -15.5t56.5 -38.5l-50 -59q-13 12 -32 24t-46 12q-30 0 -55 -19.5t-25 -60.5t25 -60.5t55 -19.5q29 0 47.5 11.5t33.5 23.5l44 -60q-8 -8 -19.5 -17t-27 -16.5t-35.5 -13t-46 -5.5q-35 0 -64.5 11t-51.5 31
t-34.5 49.5t-12.5 65.5z" />
    <glyph glyph-name="dsuperior" horiz-adv-x="418" 
d="M187 597q32 0 54 -10t37 -26v149h80v-420h-80v32q-15 -15 -35 -27t-55 -12q-31 0 -59 11t-49 31.5t-33 50t-12 65.5q0 35 11.5 64t32 49.5t48 31.5t60.5 11zM200 362q42 0 62 24.5t20 55.5q0 32 -20.5 54t-60.5 22q-37 0 -58.5 -21t-21.5 -57q0 -35 21 -56.5t58 -21.5z
" />
    <glyph glyph-name="esuperior" horiz-adv-x="381" 
d="M335 332q-11 -9 -24 -17.5t-29 -15.5t-35 -11.5t-43 -4.5q-37 0 -68 11.5t-53.5 32t-35 49.5t-12.5 64q0 33 11 61.5t32 49.5t50.5 33.5t66.5 12.5q36 0 64.5 -11.5t49 -32t31.5 -49.5t11 -63v-27h-232q8 -25 29.5 -40t54.5 -15q31 0 53.5 10t39.5 23zM263 475
q-12 48 -68 48q-28 0 -47 -12.5t-26 -35.5h141z" />
    <glyph glyph-name="fsuperior" horiz-adv-x="273" 
d="M25 590h54v8q0 64 28 88.5t79 24.5q28 0 62 -7v-76q-14 2 -27.5 4t-27.5 2q-17 0 -25.5 -6.5t-8.5 -29.5v-8h85v-75h-85v-225h-80v225h-54v75z" />
    <glyph glyph-name="gsuperior" horiz-adv-x="426" 
d="M287 329q-14 -19 -38.5 -32.5t-58.5 -13.5q-29 0 -56 11t-48 31.5t-33.5 50t-12.5 66.5q0 35 12 63.5t33 49t49 31.5t60 11q33 0 55 -11t36 -25v29h81v-268q0 -28 -7.5 -56.5t-26.5 -52t-50 -38t-77 -14.5q-45 0 -82.5 14.5t-66.5 40.5l45 59q26 -23 52.5 -32t50.5 -9
q26 0 42.5 8.5t25.5 22t12 28.5t3 29v7zM208 517q-37 0 -59.5 -21t-22.5 -56t22.5 -56.5t57.5 -21.5q36 0 59.5 22.5t23.5 58.5q0 35 -23 54.5t-58 19.5z" />
    <glyph glyph-name="isuperior" horiz-adv-x="206" 
d="M62 590h82v-300h-82v300zM50 670q0 22 15 37t38 15t38 -15t15 -37t-15 -37t-38 -15t-38 15t-15 37z" />
    <glyph glyph-name="ksuperior" horiz-adv-x="381" 
d="M140 487l108 103h113l-138 -131l134 -169h-104l-88 115l-25 -24v-91h-80v420h80v-223z" />
    <glyph glyph-name="lsuperior" horiz-adv-x="202" 
d="M60 290v420h82v-420h-82z" />
    <glyph glyph-name="msuperior" horiz-adv-x="614" 
d="M470 462q0 9 -1.5 19.5t-7 19t-16.5 14.5t-30 6q-33 0 -49 -20.5t-16 -67.5v-143h-84v172q0 10 -2 20.5t-8 19t-17 14t-28 5.5q-34 0 -52.5 -24.5t-18.5 -82.5v-124h-80v300h82v-33q17 18 38.5 29t49.5 11q29 0 53.5 -12.5t42.5 -35.5q17 19 39.5 33.5t63.5 14.5
q64 0 94.5 -38t30.5 -103v-166h-84v172z" />
    <glyph glyph-name="osuperior" horiz-adv-x="400" 
d="M200 597q35 0 65.5 -11.5t52.5 -32t34.5 -49.5t12.5 -64t-12.5 -64t-34.5 -49.5t-52.5 -32t-65.5 -11.5t-65.5 11.5t-52.5 32t-34.5 49.5t-12.5 64t12.5 64t34.5 49.5t52.5 32t65.5 11.5zM200 360q37 0 58 21.5t21 58.5t-21 58.5t-58 21.5t-58 -21.5t-21 -58.5t21 -58.5
t58 -21.5z" />
    <glyph glyph-name="psuperior" horiz-adv-x="420" 
d="M60 168v422h80v-29q19 16 41 26t53 10t58.5 -10.5t48 -31t32.5 -49t12 -64.5q0 -38 -13 -67.5t-34 -50t-48 -31t-56 -10.5q-32 0 -54.5 10.5t-39.5 23.5v-149h-80zM218 518q-40 0 -60 -22t-20 -56t20.5 -56t58.5 -22q35 0 58 20t23 59q0 38 -22.5 57.5t-57.5 19.5z" />
    <glyph glyph-name="qsuperior" horiz-adv-x="418" 
d="M278 168v149q-17 -14 -39 -24t-54 -10t-59 11t-47.5 31.5t-32 49.5t-11.5 65t11.5 65t31.5 49.5t47.5 31.5t59.5 11t55 -10.5t38 -25.5v29h80v-422h-80zM200 518q-36 0 -57.5 -21.5t-21.5 -56.5t21.5 -56.5t57.5 -21.5q38 0 60 22t22 56t-22 56t-60 22z" />
    <glyph glyph-name="rsuperior" horiz-adv-x="287" 
d="M257 499q-28 14 -52 14q-32 0 -47.5 -22t-15.5 -59v-142h-82v300h80v-34q11 16 30 29t43 13q11 0 22.5 -2.5t21.5 -6.5v-90z" />
    <glyph glyph-name="ssuperior" horiz-adv-x="350" 
d="M83 391q17 -14 45 -23.5t55 -9.5q18 0 33 5t15 18q0 10 -13 14t-32.5 7.5t-42 7.5t-42 13.5t-32.5 27t-13 46.5q0 48 35.5 74t91.5 26q38 0 66.5 -11t48.5 -25l-37 -63q-14 11 -33.5 17.5t-41.5 6.5q-19 0 -34.5 -6t-15.5 -17q0 -10 13 -13.5t32 -6.5t42 -7t42 -13.5
t32 -27t13 -47.5q0 -47 -33.5 -74t-96.5 -27q-52 0 -87 15.5t-53 29.5z" />
    <glyph glyph-name="tsuperior" horiz-adv-x="278" 
d="M82 517h-57v73h57v78h80v-78h81v-73h-81v-133q0 -16 7 -20.5t21 -4.5q12 0 25 2t28 5v-71q-16 -5 -31 -7.5t-35 -2.5q-48 0 -71.5 19.5t-23.5 72.5v140z" />
    <glyph glyph-name="usuperior" horiz-adv-x="399" 
d="M193 362q32 0 49 20.5t17 61.5v146h80v-300h-82v30q-13 -14 -33.5 -25.5t-52.5 -11.5q-29 0 -50 11t-34.5 29.5t-20 43.5t-6.5 54v169h81v-169q0 -59 52 -59z" />
    <glyph glyph-name="vsuperior" horiz-adv-x="378" 
d="M358 590l-141 -300h-57l-140 300h88l81 -188l81 188h88z" />
    <glyph glyph-name="zsuperior" horiz-adv-x="335" 
d="M145 361h155v-71h-265v61l147 167h-142v72h254v-62z" />
    <glyph glyph-name="plusinferior" horiz-adv-x="425" 
d="M60 167h116v113h80v-113h116v-80h-116v-113h-80v113h-116v80z" />
    <glyph glyph-name="minusinferior" horiz-adv-x="387" 
d="M38 167h296v-80h-296v80z" />
    <glyph glyph-name="equalinferior" horiz-adv-x="406" 
d="M359 140h-312v80h312v-80zM359 6h-312v80h312v-80z" />
    <glyph glyph-name="zero.denominator" horiz-adv-x="518" 
d="M260 420q43 0 80.5 -15t65 -42.5t43.5 -66t16 -86.5t-16 -86.5t-43.5 -66t-65 -42.5t-80.5 -15q-44 0 -81.5 15t-65 42.5t-43.5 66t-16 86.5t16 86.5t43.5 66t65 42.5t81.5 15zM260 80q54 0 89.5 34t35.5 96t-35.5 96t-89.5 34q-55 0 -90.5 -34t-35.5 -96t35.5 -96
t90.5 -34zM311 210q0 -22 -14.5 -36.5t-36.5 -14.5q-23 0 -37.5 14.5t-14.5 36.5t14.5 37t37.5 15q22 0 36.5 -15t14.5 -37z" />
    <glyph glyph-name="one.denominator" horiz-adv-x="343" 
d="M264 420v-420h-80v300l-84 -81l-58 56l151 145h71z" />
    <glyph glyph-name="two.denominator" horiz-adv-x="431" 
d="M60 330q20 37 56.5 63.5t92.5 26.5q31 0 57 -9t45 -26t29.5 -40.5t10.5 -51.5q0 -38 -16 -66.5t-36 -48.5l-102 -98h154v-80h-281v64l171 168q11 11 19 26.5t8 30.5q0 20 -15.5 35.5t-44.5 15.5q-31 0 -51 -18.5t-34 -44.5z" />
    <glyph glyph-name="three.denominator" horiz-adv-x="407" 
d="M261 294q0 20 -15.5 33t-40.5 13q-23 0 -44 -12.5t-36 -42.5l-61 50q8 16 20.5 31t30 27t39.5 19.5t49 7.5q61 0 99.5 -33.5t38.5 -87.5q0 -35 -17 -56t-38 -32q23 -11 39 -34.5t16 -58.5q0 -51 -36 -84.5t-99 -33.5q-54 0 -90.5 25.5t-55.5 68.5l67 51q13 -29 31.5 -47
t46.5 -18q24 0 40 11.5t16 32.5q0 20 -15.5 33t-49.5 13h-24v79h24q33 0 49 12t16 33z" />
    <glyph glyph-name="four.denominator" horiz-adv-x="477" 
d="M434 161v-80h-87v-81h-80v81h-233v67l249 272h64v-259h87zM267 290l-121 -129h121v129z" />
    <glyph glyph-name="five.denominator" horiz-adv-x="420" 
d="M90 420h264v-80h-184v-54q8 1 15.5 1.5t15.5 0.5q69 0 111 -38t42 -107q0 -36 -13.5 -63t-35.5 -45t-51 -26.5t-60 -8.5q-39 0 -73 13t-61 35l41 71q26 -21 50.5 -30t46.5 -9q30 0 53 16.5t23 48.5q0 29 -20 46t-60 17q-21 0 -49 -5t-55 -15v232z" />
    <glyph glyph-name="six.denominator" horiz-adv-x="417" 
d="M226 283q28 0 53 -10.5t44 -29t29.5 -44t10.5 -56.5q0 -32 -11 -58t-31 -45t-47.5 -29.5t-59.5 -10.5q-44 0 -75 18t-49 44q-14 21 -22 50t-8 75q0 109 44.5 171t128.5 62q38 0 63.5 -12t48.5 -29l-44 -65q-16 11 -32.5 18.5t-38.5 7.5q-32 0 -53 -19t-33 -70
q14 14 33.5 23t48.5 9zM143 141q0 -30 21.5 -45.5t50.5 -15.5q30 0 49 16t19 45q0 28 -18.5 45.5t-50.5 17.5q-31 0 -51 -17t-20 -46z" />
    <glyph glyph-name="seven.denominator" horiz-adv-x="387" 
d="M346 355l-190 -355h-91l182 340h-206v80h305v-65z" />
    <glyph glyph-name="eight.denominator" horiz-adv-x="400" 
d="M200 0q-61 0 -100 32.5t-39 86.5q0 34 15 56t35 36q-20 14 -35 35.5t-15 56.5q0 54 39.5 85.5t99.5 31.5t99.5 -31.5t39.5 -85.5q0 -35 -15 -56.5t-35 -35.5q20 -14 35 -35.5t15 -56.5q0 -54 -39 -86.5t-100 -32.5zM200 251q26 0 42.5 12.5t16.5 32.5t-16.5 32t-42.5 12
t-42.5 -12t-16.5 -32t16.5 -32.5t42.5 -12.5zM200 80q26 0 42.5 12.5t16.5 32.5t-16.5 33t-42.5 13t-42.5 -13t-16.5 -33t16.5 -32.5t42.5 -12.5z" />
    <glyph glyph-name="nine.denominator" horiz-adv-x="420" 
d="M357 216q0 -39 -7 -78t-26.5 -69.5t-53.5 -49.5t-87 -19q-33 0 -59.5 8t-55.5 25l33 72q25 -14 46 -19.5t44 -5.5q32 0 54.5 17.5t28.5 64.5q-21 -17 -43.5 -23t-40.5 -6q-26 0 -50.5 10t-44 29t-31 46t-11.5 60q0 31 11 57.5t31 45t48 29t62 10.5q25 0 52 -8t49.5 -30
t36.5 -62t14 -104zM275 276q0 32 -21 48t-50 16q-32 0 -51.5 -17.5t-19.5 -47.5q0 -29 19 -46t51 -17t52 17t20 47z" />
    <glyph glyph-name="plus.denominator" horiz-adv-x="425" 
d="M60 232h116v113h80v-113h116v-80h-116v-113h-80v113h-116v80z" />
    <glyph glyph-name="minus.denominator" horiz-adv-x="387" 
d="M38 232h296v-80h-296v80z" />
    <glyph glyph-name="equal.denominator" horiz-adv-x="406" 
d="M359 205h-312v80h312v-80zM359 71h-312v80h312v-80z" />
    <glyph glyph-name="parenleft.denominator" horiz-adv-x="254" 
d="M41 202q0 81 32 155.5t92 132.5l52 -46q-49 -54 -74.5 -112t-25.5 -130t25.5 -130.5t74.5 -112.5l-52 -46q-60 59 -92 133.5t-32 155.5z" />
    <glyph glyph-name="parenright.denominator" horiz-adv-x="254" 
d="M213 202q0 -81 -32 -155.5t-92 -133.5l-52 46q49 54 74.5 112.5t25.5 130.5t-25.5 130t-74.5 112l52 46q60 -58 92 -132.5t32 -155.5z" />
    <glyph glyph-name="zero.numerator" horiz-adv-x="518" 
d="M260 700q43 0 80.5 -15t65 -42.5t43.5 -66t16 -86.5t-16 -86.5t-43.5 -66t-65 -42.5t-80.5 -15q-44 0 -81.5 15t-65 42.5t-43.5 66t-16 86.5t16 86.5t43.5 66t65 42.5t81.5 15zM260 360q54 0 89.5 34t35.5 96t-35.5 96t-89.5 34q-55 0 -90.5 -34t-35.5 -96t35.5 -96
t90.5 -34zM311 490q0 -22 -14.5 -36.5t-36.5 -14.5q-23 0 -37.5 14.5t-14.5 36.5t14.5 37t37.5 15q22 0 36.5 -15t14.5 -37z" />
    <glyph glyph-name="one.numerator" horiz-adv-x="343" 
d="M264 700v-420h-80v300l-84 -81l-58 56l151 145h71z" />
    <glyph glyph-name="two.numerator" horiz-adv-x="431" 
d="M60 610q20 37 56.5 63.5t92.5 26.5q31 0 57 -9t45 -26t29.5 -40.5t10.5 -51.5q0 -38 -16 -66.5t-36 -48.5l-102 -98h154v-80h-281v64l171 168q11 11 19 26.5t8 30.5q0 20 -15.5 35.5t-44.5 15.5q-31 0 -51 -18.5t-34 -44.5z" />
    <glyph glyph-name="three.numerator" horiz-adv-x="407" 
d="M261 574q0 20 -15.5 33t-40.5 13q-23 0 -44 -12.5t-36 -42.5l-61 50q8 16 20.5 31t30 27t39.5 19.5t49 7.5q61 0 99.5 -33.5t38.5 -87.5q0 -35 -17 -56t-38 -32q23 -11 39 -34.5t16 -58.5q0 -51 -36 -84.5t-99 -33.5q-54 0 -90.5 25.5t-55.5 68.5l67 51q13 -29 31.5 -47
t46.5 -18q24 0 40 11.5t16 32.5q0 20 -15.5 33t-49.5 13h-24v79h24q33 0 49 12t16 33z" />
    <glyph glyph-name="four.numerator" horiz-adv-x="477" 
d="M434 441v-80h-87v-81h-80v81h-233v67l249 272h64v-259h87zM267 570l-121 -129h121v129z" />
    <glyph glyph-name="five.numerator" horiz-adv-x="420" 
d="M90 700h264v-80h-184v-54q8 1 15.5 1.5t15.5 0.5q69 0 111 -38t42 -107q0 -36 -13.5 -63t-35.5 -45t-51 -26.5t-60 -8.5q-39 0 -73 13t-61 35l41 71q26 -21 50.5 -30t46.5 -9q30 0 53 16.5t23 48.5q0 29 -20 46t-60 17q-21 0 -49 -5t-55 -15v232z" />
    <glyph glyph-name="six.numerator" horiz-adv-x="417" 
d="M226 563q28 0 53 -10.5t44 -29t29.5 -44t10.5 -56.5q0 -32 -11 -58t-31 -45t-47.5 -29.5t-59.5 -10.5q-44 0 -75 18t-49 44q-14 21 -22 50t-8 75q0 109 44.5 171t128.5 62q38 0 63.5 -12t48.5 -29l-44 -65q-16 11 -32.5 18.5t-38.5 7.5q-32 0 -53 -19t-33 -70
q14 14 33.5 23t48.5 9zM143 421q0 -30 21.5 -45.5t50.5 -15.5q30 0 49 16t19 45q0 28 -18.5 45.5t-50.5 17.5q-31 0 -51 -17t-20 -46z" />
    <glyph glyph-name="seven.numerator" horiz-adv-x="387" 
d="M346 635l-190 -355h-91l182 340h-206v80h305v-65z" />
    <glyph glyph-name="eight.numerator" horiz-adv-x="400" 
d="M200 280q-61 0 -100 32.5t-39 86.5q0 34 15 56t35 36q-20 14 -35 35.5t-15 56.5q0 54 39.5 85.5t99.5 31.5t99.5 -31.5t39.5 -85.5q0 -35 -15 -56.5t-35 -35.5q20 -14 35 -35.5t15 -56.5q0 -54 -39 -86.5t-100 -32.5zM200 531q26 0 42.5 12.5t16.5 32.5t-16.5 32
t-42.5 12t-42.5 -12t-16.5 -32t16.5 -32.5t42.5 -12.5zM200 360q26 0 42.5 12.5t16.5 32.5t-16.5 33t-42.5 13t-42.5 -13t-16.5 -33t16.5 -32.5t42.5 -12.5z" />
    <glyph glyph-name="nine.numerator" horiz-adv-x="420" 
d="M357 496q0 -39 -7 -78t-26.5 -69.5t-53.5 -49.5t-87 -19q-33 0 -59.5 8t-55.5 25l33 72q25 -14 46 -19.5t44 -5.5q32 0 54.5 17.5t28.5 64.5q-21 -17 -43.5 -23t-40.5 -6q-26 0 -50.5 10t-44 29t-31 46t-11.5 60q0 31 11 57.5t31 45t48 29t62 10.5q25 0 52 -8t49.5 -30
t36.5 -62t14 -104zM275 556q0 32 -21 48t-50 16q-32 0 -51.5 -17.5t-19.5 -47.5q0 -29 19 -46t51 -17t52 17t20 47z" />
    <glyph glyph-name="plus.numerator" horiz-adv-x="425" 
d="M60 512h116v113h80v-113h116v-80h-116v-113h-80v113h-116v80z" />
    <glyph glyph-name="minus.numerator" horiz-adv-x="387" 
d="M28 512h296v-80h-296v80z" />
    <glyph glyph-name="equal.numerator" horiz-adv-x="406" 
d="M359 485h-312v80h312v-80zM359 351h-312v80h312v-80z" />
    <glyph glyph-name="parenleft.numerator" horiz-adv-x="254" 
d="M42 481q0 81 32 155.5t92 132.5l52 -46q-49 -54 -74.5 -112t-25.5 -130t25.5 -130.5t74.5 -112.5l-52 -46q-60 59 -92 133.5t-32 155.5z" />
    <glyph glyph-name="parenright.numerator" horiz-adv-x="254" 
d="M213 481q0 -81 -32 -155.5t-92 -133.5l-52 46q49 54 74.5 112.5t25.5 130.5t-25.5 130t-74.5 112l52 46q60 -58 92 -132.5t32 -155.5z" />
    <glyph glyph-name="commaaccent" horiz-adv-x="185" 
d="M60 -200q-21 10 -33 29t-12 40q0 15 6 29.5t16.5 26t25 18.5t31.5 7q18 0 33 -7t25.5 -18.5t16.5 -25.5t6 -28q0 -12 -4 -23t-9 -19l-87 -154l-65 38z" />
    <glyph glyph-name="commaturn" horiz-adv-x="185" 
d="M125 702q21 -10 33 -29t12 -40q0 -15 -6 -29.5t-16.5 -26t-25 -18.5t-31.5 -7q-18 0 -33 7t-25.5 18.5t-16.5 25.5t-6 28q0 12 4 23t9 19l87 154l65 -38z" />
    <glyph glyph-name="at.case" horiz-adv-x="935" 
d="M444 315q-20 -2 -29 -13t-9 -25q0 -15 12.5 -27t39.5 -12q21 0 37.5 7t28.5 18.5t18.5 26t6.5 29.5v9zM304 457q21 52 63.5 83t105.5 31q47 0 81 -12t55.5 -33.5t31.5 -51t10 -65.5v-124q0 -23 9.5 -35t25.5 -12q15 0 28.5 8.5t23.5 28t15.5 50.5t5.5 75q0 58 -20 106
t-56 82t-87.5 52.5t-114.5 18.5q-65 0 -119 -22t-93 -62.5t-61 -96.5t-22 -123t21 -124t59.5 -99t91 -65.5t115.5 -23.5q69 0 126 15t101 35l19 -101q-54 -22 -111.5 -36.5t-134.5 -14.5q-85 0 -157 32t-124.5 88t-82 131.5t-29.5 162.5q0 88 31 163t85 129t127 84.5
t158 30.5t155.5 -25.5t121.5 -72.5t79 -113.5t28 -148.5q0 -120 -48 -190t-135 -70q-73 0 -104 53q-23 -26 -54 -40t-73 -14q-35 0 -62 10.5t-45.5 28.5t-28.5 43t-10 54q0 50 32 82t96 39l112 12q2 0 3 3.5t1 5.5q0 23 -16.5 40t-54.5 17q-26 0 -50.5 -14.5t-38.5 -46.5z
" />
    <glyph glyph-name="bar.case" horiz-adv-x="298" 
d="M100 811h98v-895h-98v895z" />
    <glyph glyph-name="plus.case" 
d="M93 425h200v200h114v-200h200v-114h-200v-200h-114v200h-200v114z" />
    <glyph glyph-name="minus.case" 
d="M119 425h461v-114h-461v114z" />
    <glyph glyph-name="plusminus.case" 
d="M99 534h195v130h112v-130h195v-110h-195v-130h-112v130h-195v110zM99 245h502v-110h-502v110z" />
    <glyph glyph-name="multiply.case" 
d="M182 612l167 -167l168 168l76 -77l-167 -168l167 -166l-76 -77l-168 168l-167 -167l-75 76l166 166l-166 168z" />
    <glyph glyph-name="divide.case" 
d="M77 425h545v-110h-545v110zM253 182q0 38 25 63t62 25t62.5 -25t25.5 -63q0 -37 -25.5 -62t-62.5 -25t-62 25t-25 62zM253 557q0 37 25 62.5t62 25.5t62.5 -25.5t25.5 -62.5t-25.5 -62t-62.5 -25t-62 25t-25 62z" />
    <glyph glyph-name="equal.case" 
d="M593 389h-487v107h487v-107zM593 190h-487v107h487v-107z" />
    <glyph glyph-name="notequal.case" 
d="M593 190h-276l-66 -124l-92 48l40 76h-93v107h150l49 92h-199v107h255l58 108l93 -48l-32 -60h113v-107h-170l-49 -92h219v-107z" />
    <glyph glyph-name="approxequal.case" 
d="M457 352q-28 0 -56 11.5t-55 26t-53 26t-51 11.5q-28 0 -53 -13.5t-55 -40.5l-64 81q34 33 78.5 58.5t94.5 25.5q31 0 61 -11.5t57.5 -25.5t52 -25.5t44.5 -11.5q23 0 49 15t52 38l65 -78q-18 -16 -38.5 -31.5t-42 -28t-43.5 -20t-43 -7.5zM462 146q-28 0 -56 11.5
t-55 26t-53 26t-51 11.5q-28 0 -53 -13.5t-55 -40.5l-64 81q34 33 78.5 58.5t94.5 25.5q31 0 61 -11.5t57.5 -25.5t52 -25.5t44.5 -11.5q23 0 49 15t52 38l65 -78q-18 -16 -38.5 -31.5t-42 -28t-43.5 -20t-43 -7.5z" />
    <glyph glyph-name="logicalnot.case" 
d="M115 475h495v-279h-109v169h-386v110z" />
    <glyph glyph-name="parenleft.case" horiz-adv-x="340" 
d="M40 360q0 134 50 254.5t142 214.5l73 -66q-78 -87 -118.5 -184t-40.5 -219t40.5 -219t118.5 -185l-73 -66q-92 94 -142 215t-50 255z" />
    <glyph glyph-name="parenright.case" horiz-adv-x="340" 
d="M300 360q0 -134 -50 -255t-142 -215l-73 66q78 88 118.5 185t40.5 219t-40.5 219t-118.5 184l73 66q92 -94 142 -214.5t50 -254.5z" />
    <glyph glyph-name="hyphen.case" horiz-adv-x="627" 
d="M80 414h467v-114h-467v114z" />
    <glyph glyph-name="bracketleft.case" horiz-adv-x="356" 
d="M110 797h216v-95h-116v-684h116v-95h-216v874z" />
    <glyph glyph-name="bracketright.case" horiz-adv-x="356" 
d="M246 -77h-216v95h116v684h-116v95h216v-874z" />
    <glyph glyph-name="braceleft.case" horiz-adv-x="389" 
d="M260 79q0 -32 19.5 -47.5t45.5 -15.5h44v-93h-39q-75 0 -121.5 37.5t-46.5 123.5v156q0 33 -27 52t-75 22v95q48 3 75 22.5t27 53.5v151q0 87 46.5 124t121.5 37h39v-93h-44q-26 0 -45.5 -15.5t-19.5 -47.5v-158q0 -41 -12.5 -70t-46.5 -49q33 -18 46 -46t13 -68v-171z
" />
    <glyph glyph-name="braceright.case" horiz-adv-x="389" 
d="M129 250q0 40 13 68t46 46q-34 20 -46.5 49t-12.5 70v158q0 32 -19.5 47.5t-45.5 15.5h-44v93h39q75 0 121.5 -37t46.5 -124v-151q0 -34 27 -53.5t75 -22.5v-95q-48 -3 -75 -22t-27 -52v-156q0 -86 -46.5 -123.5t-121.5 -37.5h-39v93h44q26 0 45.5 15.5t19.5 47.5v171z
" />
    <glyph glyph-name="guillemotleft.case" horiz-adv-x="525" 
d="M231 82l-191 218l191 218l74 -67l-136 -151l136 -152zM441 82l-191 218l191 218l74 -67l-135 -151l135 -152z" />
    <glyph glyph-name="guillemotright.case" horiz-adv-x="526" 
d="M231 148l136 152l-136 151l74 67l191 -218l-191 -218zM20 148l136 152l-136 151l74 67l191 -218l-191 -218z" />
    <glyph glyph-name="endash.case" horiz-adv-x="913" 
d="M70 412h773v-112h-773v112z" />
    <glyph glyph-name="emdash.case" horiz-adv-x="1339" 
d="M70 412h1199v-112h-1199v112z" />
    <glyph glyph-name="guilsinglleft.case" horiz-adv-x="395" 
d="M251 82l-191 218l191 218l74 -67l-136 -151l136 -152z" />
    <glyph glyph-name="guilsinglright.case" horiz-adv-x="385" 
d="M40 148l136 152l-136 151l74 67l191 -218l-191 -218z" />
    <glyph glyph-name="brokenbar.case" horiz-adv-x="298" 
d="M100 438v373h98v-373h-98zM198 339v-423h-98v423h98z" />
    <glyph glyph-name="arrowup.case" horiz-adv-x="772" 
d="M672 436l-75 -65l-161 185v-506h-100v506l-161 -185l-75 65l286 329z" />
    <glyph glyph-name="arrowright.case" horiz-adv-x="938" 
d="M838 403l-329 -286l-64 71l184 165h-529v100h529l-184 165l64 71z" />
    <glyph glyph-name="arrowdown.case" horiz-adv-x="772" 
d="M386 -68l-286 329l75 65l161 -185v506h100v-506l161 185l75 -65z" />
    <glyph glyph-name="arrowleft.case" horiz-adv-x="938" 
d="M429 689l64 -71l-184 -165h529v-100h-529l184 -165l-64 -71l-329 286z" />
    <glyph glyph-name="uni2196.case" horiz-adv-x="757" 
d="M100 665l435 -30l-5 -96l-247 13l374 -374l-70 -70l-374 374l13 -247l-96 -5z" />
    <glyph glyph-name="uni2197.case" horiz-adv-x="757" 
d="M627 230l-96 5l13 247l-374 -374l-70 70l374 374l-247 -13l-5 96l435 30z" />
    <glyph glyph-name="uni2198.case" horiz-adv-x="757" 
d="M657 24l-435 30l5 96l247 -13l-374 374l70 70l374 -374l-13 247l96 5z" />
    <glyph glyph-name="uni2199.case" horiz-adv-x="757" 
d="M130 459l96 -5l-13 -247l374 374l70 -70l-374 -374l247 13l5 -96l-435 -30z" />
    </font>
</defs>
</svg>
